<?xml version="1.0" encoding="UTF-8"?>
<svg version="1.1" xmlns="http://www.w3.org/2000/svg" width="2000" height="2000">
<path d="M0 0 C8.968781 0.00445027 17.93756037 0.00691603 26.90634239 0.00799593 C109.27894036 0.01821956 191.64701243 0.26096366 274.01676941 0.97813725 C288.88456227 1.10471077 303.75012892 1.15421883 318.61837959 1.12608647 C332.39456736 1.10183051 346.15883985 1.29790556 359.93103027 1.63057256 C364.07550937 1.72673816 368.22004204 1.82020321 372.36462402 1.91182256 C373.84330963 1.94504109 373.84330963 1.94504109 375.35186768 1.97893071 C380.61343331 2.09105585 385.86717191 2.14167709 391.13024902 2.10713506 C402.39445997 2.06948391 413.65045985 2.50076874 424.90710449 2.87520146 C428.82506944 3.00414226 432.74324113 3.12419355 436.66149902 3.24385381 C451.20743431 3.71012033 465.68429825 4.48100385 480.18688965 5.70210576 C484.33219965 6.05041929 488.46175812 6.29144356 492.61853027 6.44307256 C521.04208449 8.45317503 551.11124423 18.47942264 576.49353027 31.13057256 C577.85793201 31.80021353 579.22252085 32.46947337 580.58728027 33.13838506 C601.02755402 43.20873683 619.55207299 55.09283634 637.49353027 69.13057256 C638.44228027 69.87049443 639.39103027 70.61041631 640.36853027 71.37276006 C644.67387371 74.76834342 648.64694773 78.21426344 652.49353027 82.13057256 C653.44779524 83.07606305 654.40357522 84.02002647 655.36071777 84.96260381 C668.34277208 97.80382715 668.34277208 97.80382715 671.49353027 102.13057256 C671.49353027 102.79057256 671.49353027 103.45057256 671.49353027 104.13057256 C672.15353027 104.13057256 672.81353027 104.13057256 673.49353027 104.13057256 C675.39459727 106.42527943 677.17417758 108.72836232 678.93103027 111.13057256 C679.7269458 112.20794683 679.7269458 112.20794683 680.53894043 113.30708623 C688.5259635 124.18351144 696.42542108 135.04315934 702.49353027 147.13057256 C702.95106689 148.03525273 702.95106689 148.03525273 703.41784668 148.95820928 C705.14470367 152.37403511 706.8563201 155.7968819 708.55212402 159.22822881 C709.707634 161.56352181 710.88460705 163.87925988 712.09118652 166.18916631 C722.5997296 186.39359179 729.09165783 208.55537079 733.96276855 230.71870732 C734.29894075 232.24632698 734.64971392 233.77086762 735.02038574 235.29048467 C736.86899871 243.39777159 737.32202215 251.67067256 737.92614746 259.9433167 C738.11787451 262.55912569 738.32059763 265.1739126 738.52478027 267.78877568 C739.10756693 275.42768554 739.62735087 283.00855373 739.51501465 290.67476201 C739.47464457 295.2893373 739.73363479 299.89617028 739.93103027 304.50557256 C740.61021177 321.64884121 740.95004672 338.79918176 741.30151367 355.95173955 C741.42753329 362.0785531 741.56293556 368.20506247 741.70669556 374.33148503 C741.80389952 378.50645513 741.89634078 382.68152462 741.98815918 386.85661626 C742.03140016 388.78319254 742.07630543 390.7097327 742.12341309 392.63621831 C742.46308565 406.62093701 742.50394116 420.59713844 742.47912288 434.58498669 C742.45255627 451.70570353 742.49880812 468.82308256 742.70788574 485.94258428 C742.71873691 486.83985588 742.72958808 487.73712749 742.74076807 488.66158915 C742.78605846 492.39037863 742.83185917 496.11916145 742.87824529 499.84793746 C743.43235759 544.61122498 743.60611844 589.37229804 743.62634277 634.13838506 C743.62668228 634.88964451 743.62702179 635.64090396 743.62737158 636.41492885 C743.63607944 656.67351797 743.63200476 676.9320994 743.62332767 697.19068766 C743.61916107 706.95039717 743.61681517 716.71010604 743.61524638 726.46981628 C743.60176634 808.05235642 743.57563265 889.63469992 742.52799225 1002.93130803 C742.49383794 1006.10201084 742.46064295 1009.27272217 742.42779541 1012.44343877 C742.03815245 1050.00939945 741.59275964 1087.57750529 740.49353027 1125.13057256 C740.47290527 1125.83905339 740.45228027 1126.54753423 740.43103027 1127.27748418 C739.57199816 1156.52568201 739.57199816 1156.52568201 738.6439209 1169.05781865 C738.53850376 1170.5107269 738.44156915 1171.96426385 738.35095215 1173.41817021 C736.77408721 1198.14401123 730.62322231 1221.80428432 722.49353027 1245.13057256 C722.09134277 1246.30547246 722.09134277 1246.30547246 721.68103027 1247.50410771 C718.34383995 1257.19195384 714.13965305 1266.2537167 709.41345215 1275.33760381 C708.13653626 1277.8263698 706.94884658 1280.35649841 705.74353027 1282.88057256 C697.19834824 1299.92436888 686.57249456 1315.09823127 674.41931152 1329.72822881 C672.36035517 1332.21043191 672.36035517 1332.21043191 670.36853027 1335.44307256 C668.32288359 1338.37516614 666.11649269 1340.24676399 663.36071777 1342.48213506 C660.65783003 1344.8683665 658.43821318 1347.60203705 656.16931152 1350.39619756 C654.39993755 1352.22743776 652.82069693 1353.1368369 650.49353027 1354.13057256 C650.49353027 1354.79057256 650.49353027 1355.45057256 650.49353027 1356.13057256 C648.80078743 1357.69490042 647.03783175 1359.18385828 645.24353027 1360.63057256 C644.26899902 1361.42463506 643.29446777 1362.21869756 642.29040527 1363.03682256 C640.04458266 1364.7180529 638.04694998 1366.01193154 635.49353027 1367.13057256 C635.49353027 1367.79057256 635.49353027 1368.45057256 635.49353027 1369.13057256 C630.42583704 1373.81073631 624.1550654 1377.41727826 618.41540527 1381.20088506 C616.70857277 1382.3281247 615.00756189 1383.46445731 613.32165527 1384.62276006 C611.07048243 1386.16716934 608.79081557 1387.65547358 606.49353027 1389.13057256 C605.39911621 1389.83568974 604.30470215 1390.54080693 603.17712402 1391.26729131 C576.62089009 1407.85767004 545.19723006 1420.22671574 514.49353027 1426.13057256 C513.74474609 1426.27688115 512.99596191 1426.42318974 512.2244873 1426.57393193 C481.67833694 1432.27998765 449.47939054 1432.59147441 418.49353027 1433.13057256 C417.46552307 1433.14906255 416.43751587 1433.16755254 415.37835693 1433.18660283 C380.31191526 1433.81560302 345.24201806 1434.23830217 310.17257309 1434.65922856 C307.4133118 1434.69253206 304.65405829 1434.72642307 301.89480591 1434.76045537 C297.46903033 1434.81485801 293.04323331 1434.86707514 288.61741447 1434.91783261 C287.00979821 1434.9365249 285.40218852 1434.95579692 283.79458809 1434.97580457 C273.05235598 1435.1087241 262.31199125 1435.13634852 251.56896973 1435.12617803 C240.04892719 1435.11583305 228.53010885 1435.15278062 217.01037598 1435.23823857 C216.25481686 1435.24384002 215.49925775 1435.24944147 214.7208029 1435.25521266 C211.55527359 1435.27887245 208.38974694 1435.30285761 205.22422296 1435.32722038 C115.28270799 1436.01813468 25.34845748 1436.20708037 -136.46228027 1435.5370667 C-137.15439996 1435.53386972 -137.84651964 1435.53067274 -138.55961265 1435.52737889 C-153.58682277 1435.457876 -168.61401754 1435.38591792 -183.64118958 1435.30855107 C-188.28443297 1435.28490635 -192.92767757 1435.26150911 -197.57092285 1435.23823857 C-199.23039304 1435.22983734 -199.23039304 1435.22983734 -200.92338789 1435.22126639 C-214.65572312 1435.15274711 -228.38727107 1435.12177891 -242.11975098 1435.1398499 C-256.88729612 1435.15802652 -271.64749939 1434.99401101 -286.41271973 1434.72822881 C-288.8949348 1434.68558844 -291.37715333 1434.64314888 -293.859375 1434.60089421 C-298.98787046 1434.512913 -304.11632244 1434.4228091 -309.24475098 1434.33101201 C-315.72925812 1434.21507862 -322.21384081 1434.1042665 -328.69846344 1433.9950068 C-333.79853724 1433.90855918 -338.89856409 1433.81955331 -343.99858093 1433.72981381 C-346.38692477 1433.68804219 -348.77528095 1433.64696827 -351.16365051 1433.60669446 C-367.27630979 1433.33296957 -383.37441294 1432.86373231 -399.47755432 1432.24562192 C-403.17673537 1432.1051134 -406.87622752 1431.97442166 -410.57584381 1431.84593606 C-433.72814448 1430.93853692 -456.15752081 1428.33502805 -478.50646973 1422.13057256 C-479.31922363 1421.91110967 -480.13197754 1421.69164678 -480.96936035 1421.46553349 C-491.39109861 1418.64132198 -501.47781599 1415.12066684 -511.50646973 1411.13057256 C-512.60813477 1410.69986455 -512.60813477 1410.69986455 -513.73205566 1410.26045537 C-535.40793792 1401.73933719 -554.98221134 1390.01853046 -573.78869629 1376.36934209 C-575.46446162 1375.16086664 -577.15116391 1373.96960369 -578.84240723 1372.78291631 C-579.84529785 1372.07264287 -580.84818848 1371.36236943 -581.88146973 1370.63057256 C-582.7760791 1370.00151006 -583.67068848 1369.37244756 -584.59240723 1368.72432256 C-585.53986816 1367.93541631 -585.53986816 1367.93541631 -586.50646973 1367.13057256 C-586.50646973 1366.47057256 -586.50646973 1365.81057256 -586.50646973 1365.13057256 C-587.07881348 1364.87533818 -587.65115723 1364.62010381 -588.24084473 1364.35713506 C-602.5033803 1356.63569338 -615.73199971 1339.82807456 -625.50646973 1327.13057256 C-626.25541504 1326.21018193 -627.00436035 1325.28979131 -627.77600098 1324.34151006 C-640.35534141 1308.61225401 -650.59947096 1291.1566415 -659.50646973 1273.13057256 C-660.05561035 1272.03100224 -660.60475098 1270.93143193 -661.17053223 1269.79854131 C-673.82449928 1243.44174897 -682.22227288 1215.15626756 -685.50646973 1186.13057256 C-685.66405762 1184.74805303 -685.66405762 1184.74805303 -685.8248291 1183.33760381 C-686.61906406 1175.94961952 -687.1021583 1168.54894007 -687.50646973 1161.13057256 C-687.54794128 1160.36970342 -687.58941284 1159.60883428 -687.63214111 1158.82490849 C-689.31272206 1127.42289894 -689.93161081 1096.00830961 -690.30570412 1064.56698346 C-690.39877805 1056.95229361 -690.51769603 1049.33885299 -690.67998987 1041.7253018 C-691.80580291 988.67790517 -691.65472709 935.62322984 -691.64176941 882.56662074 C-691.63942558 872.7754369 -691.63918488 862.9842547 -691.64028549 853.19307065 C-691.64036188 852.48788555 -691.64043826 851.78270045 -691.64051696 851.05614611 C-691.64082851 848.1906085 -691.64114693 845.32507089 -691.64147673 842.45953328 C-691.64451307 815.75485144 -691.64180023 789.05017299 -691.63637983 762.34549167 C-691.63164988 738.86491459 -691.63205052 715.38434295 -691.63684082 691.90376592 C-691.64225597 665.27394264 -691.64428462 638.64412237 -691.64122856 612.01429862 C-691.64090805 609.14735528 -691.6405952 606.28041194 -691.64028549 603.4134686 C-691.64020641 602.70800995 -691.64012734 602.00255129 -691.64004586 601.27571511 C-691.63900421 591.52831352 -691.63987651 581.78091392 -691.64227183 572.03351259 C-691.65792162 507.39248111 -691.47251874 442.76512199 -690.50646973 378.13057256 C-690.4953268 377.38319905 -690.48418387 376.63582554 -690.47270328 375.86580434 C-689.60465447 317.77981538 -689.60465447 317.77981538 -688.62268066 293.07442021 C-688.51461333 290.33686588 -688.41988269 287.59913638 -688.32678223 284.86104131 C-686.72617533 242.33965557 -678.33942597 201.42988043 -659.50646973 163.13057256 C-658.67502441 161.39227178 -658.67502441 161.39227178 -657.82678223 159.61885381 C-648.3021451 140.02092534 -636.00186199 122.18624656 -622.50646973 105.13057256 C-621.79361816 104.18568974 -621.0807666 103.24080693 -620.34631348 102.26729131 C-619.73916504 101.56217412 -619.1320166 100.85705693 -618.50646973 100.13057256 C-617.84646973 100.13057256 -617.18646973 100.13057256 -616.50646973 100.13057256 C-616.27959473 99.59432256 -616.05271973 99.05807256 -615.81896973 98.50557256 C-614.05076883 95.30597094 -611.9697677 92.84020033 -609.50646973 90.13057256 C-608.84646973 90.13057256 -608.18646973 90.13057256 -607.50646973 90.13057256 C-607.29893066 89.58787724 -607.0913916 89.04518193 -606.87756348 88.48604131 C-604.98167032 85.22899409 -602.3438719 82.93590284 -599.56896973 80.44307256 C-598.98268799 79.91125371 -598.39640625 79.37943486 -597.7923584 78.83150029 C-580.06215075 62.86013693 -560.17092012 47.88219172 -538.54016113 37.58784795 C-535.6558466 36.2023278 -532.80853111 34.75900948 -529.95959473 33.30244756 C-523.58942685 30.11442445 -517.10411515 27.31143531 -510.50646973 24.63057256 C-509.33455078 24.15426396 -508.16263184 23.67795537 -506.9552002 23.18721318 C-496.96466167 19.19372184 -486.90772277 15.86553387 -476.50646973 13.13057256 C-475.3798291 12.82764287 -474.25318848 12.52471318 -473.09240723 12.21260381 C-466.79085517 10.64120412 -460.41924962 9.56615842 -454.00646973 8.56807256 C-453.27879395 8.4531043 -452.55111816 8.33813603 -451.8013916 8.21968389 C-429.99414828 5.00398522 -408.01010097 4.39848607 -386.01690674 3.60255742 C-382.5222967 3.47395474 -379.02802948 3.3370966 -375.53372765 3.20041585 C-358.0818122 2.52121517 -340.66897117 2.00959749 -323.20129395 2.11348271 C-315.5435506 2.15211539 -307.88943457 2.03612334 -300.23303223 1.91182256 C-299.53464108 1.90071069 -298.83624992 1.88959882 -298.1166954 1.87815022 C-292.40527056 1.78709666 -286.69393408 1.69098075 -280.98260498 1.59413457 C-276.68935787 1.52148356 -272.39608497 1.4509141 -268.10276413 1.38275456 C-266.17338714 1.35140032 -264.24405505 1.31731621 -262.31472778 1.28303838 C-255.02712214 1.16650703 -247.74321357 1.12640266 -240.45465279 1.14092755 C-226.44637803 1.16803079 -212.4425393 1.06885845 -198.43518066 0.91621709 C-196.38448162 0.89409519 -194.33378238 0.87199123 -192.28308296 0.8499043 C-190.71890882 0.83303982 -190.71890882 0.83303982 -189.12313521 0.81583464 C-187.53135107 0.79867901 -187.53135107 0.79867901 -185.90740967 0.78117681 C-184.82781491 0.76952162 -183.74822015 0.75786644 -182.63591039 0.74585807 C-121.75697294 0.09257766 -60.88197505 -0.030366 0 0 Z " fill="#3B87DA" transform="translate(974.5064697265625,281.86942744255066)"/>
<path d="M0 0 C2.19595723 0.63316767 4.40136115 1.21570693 6.61328125 1.79052734 C15.17109377 4.03239042 23.16428795 6.50438089 31.05078125 10.59130859 C31.67807129 10.90583984 32.30536133 11.22037109 32.95166016 11.54443359 C55.96149427 23.08433637 76.66098373 38.73872035 92.05078125 59.59130859 C92.80875 60.60966797 93.56671875 61.62802734 94.34765625 62.67724609 C105.90330717 78.78857969 114.27460613 97.43248112 119.48339844 116.52001953 C120.01207427 118.45000482 120.58068468 120.36892789 121.15234375 122.28662109 C123.28906826 129.70806882 124.8148902 137.18166282 126.17578125 144.77880859 C126.33449707 145.64989258 126.49321289 146.52097656 126.65673828 147.41845703 C129.85327989 166.11368775 130.3414741 184.66708016 130.28291249 203.59917402 C130.274142 207.16804397 130.27720759 210.73690842 130.27871704 214.30578613 C130.27975744 220.46491506 130.27357025 226.62400107 130.26224136 232.7831192 C130.24587324 241.68777583 130.24076689 250.59241205 130.23826538 259.49708208 C130.23390586 273.95005211 130.22064447 288.40299935 130.20166016 302.85595703 C130.18325595 316.88199755 130.16912177 330.90803185 130.16064453 344.93408203 C130.16011908 345.80103027 130.15959364 346.66797851 130.15905227 347.56119791 C130.15644188 351.91113399 130.15391454 356.26107011 130.15142846 360.61100626 C130.13075033 396.60445645 130.09557278 432.59788073 130.05078125 468.59130859 C110.00624007 468.66131184 89.96172361 468.71425408 69.91708565 468.74674511 C60.61053513 468.76223055 51.30406044 468.78335199 41.99755859 468.81762695 C33.88838301 468.8474781 25.77926233 468.86687138 17.67003334 468.87357408 C13.37409093 468.87749364 9.07830565 468.88673967 4.78241348 468.90849876 C0.74248985 468.9287964 -3.29721131 468.93515613 -7.33718109 468.93063164 C-8.82313113 468.93145987 -10.30908828 468.93746555 -11.79499435 468.94892502 C-13.81736681 468.96376228 -15.83985749 468.95849513 -17.86227417 468.95207214 C-18.99607954 468.95483752 -20.12988491 468.9576029 -21.29804802 468.96045208 C-22.61037753 468.77772605 -22.61037753 468.77772605 -23.94921875 468.59130859 C-26.04066441 465.45414011 -26.19958357 464.75452963 -26.20255184 461.18628025 C-26.20816724 460.27999144 -26.21378263 459.37370263 -26.21956819 458.43995053 C-26.21359655 456.94437922 -26.21359655 456.94437922 -26.20750427 455.41859436 C-26.21117998 454.36025168 -26.21485568 453.30190901 -26.21864277 452.21149534 C-26.22866359 448.64672658 -26.22446366 445.08211257 -26.22045898 441.51733398 C-26.22484407 438.96809218 -26.23014542 436.4188518 -26.23629761 433.86961365 C-26.24782203 428.36776256 -26.25345134 422.865954 -26.254179 417.36409187 C-26.2555055 409.38751585 -26.27062747 401.41100994 -26.28967417 393.43445867 C-26.32054391 380.46469663 -26.34469011 367.49493281 -26.36254883 354.52514648 C-26.36362151 353.74854813 -26.36469419 352.97194977 -26.36579937 352.17181813 C-26.37759176 343.52887395 -26.38779843 334.88592905 -26.39624023 326.24298096 C-26.39931349 323.11991372 -26.40240242 319.99684649 -26.40551758 316.8737793 C-26.40666559 315.71803439 -26.40666559 315.71803439 -26.40783679 314.53894109 C-26.42097128 301.63849884 -26.44569078 288.73810677 -26.47926098 275.83770174 C-26.49943843 267.89529781 -26.50985602 259.95300169 -26.50727177 252.01057195 C-26.50610317 245.8989163 -26.52040149 239.78738233 -26.54008102 233.67576027 C-26.54563572 231.18631344 -26.54620766 228.69684915 -26.54114342 226.20740128 C-26.48897242 197.53093259 -28.68840592 166.06313386 -46.94921875 142.59130859 C-48.06296875 141.10630859 -48.06296875 141.10630859 -49.19921875 139.59130859 C-50.97639677 137.38475562 -50.97639677 137.38475562 -53.94921875 135.59130859 C-53.94921875 134.60130859 -53.94921875 133.61130859 -53.94921875 132.59130859 C-54.81546875 132.43662109 -54.81546875 132.43662109 -55.69921875 132.27880859 C-58.30583033 131.48234395 -59.92274985 130.40065583 -61.94921875 128.59130859 C-61.94921875 127.93130859 -61.94921875 127.27130859 -61.94921875 126.59130859 C-80.64171682 116.59818313 -105.79086125 115.96676688 -125.94921875 121.59130859 C-130.09934113 122.99796065 -134.02002101 124.6545369 -137.94921875 126.59130859 C-139.19058594 127.20232422 -139.19058594 127.20232422 -140.45703125 127.82568359 C-159.44913321 138.20721843 -174.27497835 158.44126534 -180.88671875 178.84130859 C-183.23855131 188.65773059 -184.24679484 198.40486067 -184.22769165 208.48078918 C-184.23638025 210.16353983 -184.23638025 210.16353983 -184.24524438 211.88028544 C-184.26210345 215.59884991 -184.26510867 219.31728922 -184.26806641 223.03588867 C-184.27737433 225.71758206 -184.28745852 228.39926216 -184.29850769 231.08094788 C-184.32067615 236.83365675 -184.3357517 242.58634814 -184.34587479 248.33909035 C-184.36052114 256.65636713 -184.38607426 264.97358297 -184.41420607 273.29082378 C-184.45956642 286.78818597 -184.49622545 300.28555699 -184.52734375 313.78295898 C-184.55757352 326.88681589 -184.59196639 339.99065115 -184.63183594 353.09448242 C-184.63431745 353.91175928 -184.63679895 354.72903613 -184.63935566 355.57107896 C-184.6587978 361.96365016 -184.67847975 368.35622062 -184.69823742 374.74879086 C-184.79485649 406.02960373 -184.87057679 437.31043538 -184.94921875 468.59130859 C-235.43921875 468.59130859 -285.92921875 468.59130859 -337.94921875 468.59130859 C-337.94921875 316.13130859 -337.94921875 163.67130859 -337.94921875 6.59130859 C-287.45921875 6.59130859 -236.96921875 6.59130859 -184.94921875 6.59130859 C-184.61921875 27.38130859 -184.28921875 48.17130859 -183.94921875 69.59130859 C-180.97921875 65.30130859 -178.00921875 61.01130859 -174.94921875 56.59130859 C-172.93796225 54.06879745 -170.95401141 51.62515486 -168.82421875 49.21630859 C-168.31125244 48.62889893 -167.79828613 48.04148926 -167.26977539 47.4362793 C-159.3406124 38.41828329 -150.70107694 30.54322202 -140.82421875 23.65380859 C-137.91013256 21.90152953 -137.91013256 21.90152953 -136.94921875 19.59130859 C-135.27734375 18.62646484 -135.27734375 18.62646484 -133.19921875 17.65380859 C-130.84074695 16.52274752 -128.62374048 15.39284623 -126.38671875 14.02880859 C-123.3486969 12.23715468 -120.20714824 10.93941735 -116.94921875 9.59130859 C-115.93859375 9.13755859 -114.92796875 8.68380859 -113.88671875 8.21630859 C-98.36841256 1.57559198 -82.37332393 -3.46252715 -65.44921875 -4.03369141 C-64.47090088 -4.07091309 -63.49258301 -4.10813477 -62.48461914 -4.14648438 C-19.0444372 -5.63413836 -19.0444372 -5.63413836 0 0 Z " fill="#D7D7D7" transform="translate(1246.94921875,810.40869140625)"/>
<path d="M0 0 C51.15 0 102.3 0 155 0 C156.69139717 1.69139717 156.12539437 3.7938905 156.13486269 6.05134588 C156.13177971 7.14830437 156.13177971 7.14830437 156.12863445 8.26742363 C156.13038749 9.04095383 156.13214053 9.81448403 156.13394669 10.61145455 C156.13864616 13.23682647 156.13613114 15.86214396 156.13371277 18.48751831 C156.13557876 20.37540232 156.13787861 22.26328594 156.14057809 24.15116894 C156.14672874 29.36504294 156.14655869 34.57890098 156.14538372 39.79277778 C156.14518053 45.40568782 156.15069061 51.01859262 156.15544128 56.63150024 C156.16376631 67.63806516 156.16649696 78.64462473 156.16705366 89.65119253 C156.16752796 98.5932694 156.16957836 107.5353445 156.17275429 116.47742081 C156.18013077 137.67629685 156.18627856 158.87517161 156.18575573 180.074049 C156.18573236 181.09181149 156.18573236 181.09181149 156.18570852 182.13013484 C156.18562541 185.56937969 156.18552637 189.00862455 156.18542381 192.44786941 C156.18540387 193.13095984 156.18538392 193.81405028 156.18536337 194.51784042 C156.18532294 195.89921694 156.18528114 197.28059346 156.18523798 198.66196998 C156.18462511 220.1579542 156.1921326 241.65392264 156.20581055 263.14990234 C156.22115836 287.2803743 156.22976487 311.41083318 156.22884732 335.54131138 C156.22851465 348.32542901 156.23129262 361.10952886 156.24202538 373.89364243 C156.25110372 384.77736067 156.25332769 395.66105307 156.24651595 406.54477344 C156.24323717 412.10250144 156.24324265 417.66017978 156.2518692 423.21790314 C156.25967561 428.2993121 156.25836342 433.38063156 156.24958507 438.46203817 C156.24803704 440.30659897 156.24991461 442.15116626 156.25544515 443.99571942 C156.26243466 446.49088817 156.25726774 448.98573677 156.24888897 451.48089409 C156.25634124 452.57082907 156.25634124 452.57082907 156.26394406 453.68278295 C156.23765456 457.35156495 156.09456939 458.85814591 154 462 C103.18 462 52.36 462 0 462 C0 309.54 0 157.08 0 0 Z " fill="#D7D7D7" transform="translate(670,817)"/>
<path d="M0 0 C1.1891526 -0.01354271 1.1891526 -0.01354271 2.40232849 -0.02735901 C4.07034596 -0.04176203 5.73841864 -0.05072323 7.40649414 -0.05444336 C9.90417772 -0.066267 12.39932529 -0.1154858 14.89648438 -0.16601562 C30.13250037 -0.31820229 42.76386632 3.56748004 56.37109375 10.37109375 C56.37109375 11.03109375 56.37109375 11.69109375 56.37109375 12.37109375 C57.07234375 12.61859375 57.77359375 12.86609375 58.49609375 13.12109375 C71.97316097 18.9806882 81.44370902 31.38963134 87.37109375 44.37109375 C88.05751953 45.70720703 88.05751953 45.70720703 88.7578125 47.0703125 C97.71324222 65.06185149 99.64004173 87.6394402 94.5390625 107.109375 C90.62125671 118.05040455 85.22965129 127.75721473 77.37109375 136.37109375 C76.85417969 136.97953125 76.33726562 137.58796875 75.8046875 138.21484375 C62.54582106 152.8361501 41.54474497 160.31959197 22.37109375 162.37109375 C-7.4465972 163.7192058 -31.91519574 158.50940717 -54.6953125 138.13671875 C-69.40073802 124.50752923 -78.02793054 105.61068873 -78.96484375 85.6796875 C-79.34861777 71.15211787 -78.01674589 57.62847897 -71.62890625 44.37109375 C-70.99275391 43.00791016 -70.99275391 43.00791016 -70.34375 41.6171875 C-60.77074602 23.23016451 -43.49492712 10.4812399 -24.1081543 4.22045898 C-16.09521488 1.77400246 -8.39913124 0.06131845 0 0 Z " fill="#DDDDDE" transform="translate(739.62890625,594.62890625)"/>
<path d="M0 0 C17.64247959 0.16902974 17.64247959 0.16902974 21.4140625 3.78125 C21.85492187 4.2453125 22.29578125 4.709375 22.75 5.1875 C26.13976901 4.91791853 26.13976901 4.91791853 29.75 4.1875 C33.125 4.0625 33.125 4.0625 35.75 4.1875 C36.08 4.5175 36.41 4.8475 36.75 5.1875 C39.74181044 5.34915195 42.71260285 5.44766291 45.70703125 5.50390625 C46.62901306 5.52477798 47.55099487 5.54564972 48.50091553 5.56715393 C51.52135544 5.63361726 54.54188037 5.69232183 57.5625 5.75 C58.58697235 5.77084656 59.6114447 5.79169312 60.66696167 5.81317139 C92.33641947 6.55098837 92.33641947 6.55098837 123.98071289 5.45556641 C125.90189949 5.33177808 127.82598845 5.25429099 129.75 5.1875 C130.08 5.5175 130.41 5.8475 130.75 6.1875 C133.19324303 6.28782451 135.60823245 6.32368179 138.05200195 6.31689453 C138.81625488 6.31864685 139.58050781 6.32039917 140.36791992 6.32220459 C142.90806311 6.32662502 145.44813729 6.32368359 147.98828125 6.3203125 C149.74846917 6.32098569 151.508657 6.32195585 153.2688446 6.32321167 C156.96529014 6.32468907 160.66171156 6.32253351 164.3581543 6.31787109 C169.09623043 6.3121863 173.83424977 6.3154446 178.5723238 6.32144356 C182.21057055 6.32505872 185.84880386 6.32390596 189.48705101 6.32131577 C191.23375645 6.32064849 192.98046311 6.32146796 194.72716713 6.32379532 C197.17141569 6.32633609 199.6155727 6.32246053 202.05981445 6.31689453 C203.14394875 6.31993088 203.14394875 6.31993088 204.24998474 6.32302856 C207.59384197 6.30892945 210.52932223 6.05116063 213.75 5.1875 C215.60464037 5.41890225 217.45883815 5.6552945 219.30889893 5.9208374 C224.42025797 6.47919539 229.57511042 6.32914246 234.7109375 6.3203125 C236.55131088 6.32174759 236.55131088 6.32174759 238.42886353 6.32321167 C241.00905407 6.32388961 243.58924636 6.32206233 246.16943359 6.31787109 C250.13252541 6.31248978 254.09550531 6.31784328 258.05859375 6.32421875 C260.56770858 6.32355844 263.07682335 6.32227826 265.5859375 6.3203125 C267.37020645 6.32334885 267.37020645 6.32334885 269.19052124 6.32644653 C270.83330551 6.32171829 270.83330551 6.32171829 272.50927734 6.31689453 C273.47554047 6.31609894 274.44180359 6.31530334 275.43734741 6.31448364 C277.77684827 6.33970229 277.77684827 6.33970229 279.75 5.1875 C281.74551782 4.82830679 283.74548879 4.49253431 285.75 4.1875 C285.75 4.8475 285.75 5.5075 285.75 6.1875 C286.32218262 6.18226318 286.89436523 6.17702637 287.48388672 6.17163086 C298.39203392 6.08561133 309.23702536 6.05952796 320.11279297 7.00756836 C324.00640828 7.30016008 326.38202391 7.15918532 329.75 5.1875 C331.57844193 5.35999452 333.40659741 5.55247427 335.22216797 5.8293457 C349.13431667 7.80047977 363.30528213 7.27581392 377.3125 7.1875 C381.6054662 7.1608297 385.89838827 7.14091629 390.19140625 7.125 C391.16332413 7.11670166 392.135242 7.10840332 393.13661194 7.09985352 C397.80737978 7.08293857 402.14902769 7.27384763 406.75 8.1875 C409.33544317 8.21399795 411.89723573 8.12654625 414.48046875 8.02734375 C416.75 8.1875 416.75 8.1875 419.75 10.1875 C417.26245214 11.43127393 415.52344699 11.32056235 412.75 11.3125 C411.863125 11.31507813 410.97625 11.31765625 410.0625 11.3203125 C407.75 11.1875 407.75 11.1875 405.75 10.1875 C405.42 11.1775 405.09 12.1675 404.75 13.1875 C404.17894531 13.17589844 403.60789062 13.16429687 403.01953125 13.15234375 C398.26057442 13.09938239 393.5955622 13.25458235 388.85546875 13.69140625 C380.641946 14.34902395 372.46391647 14.2506007 364.23046875 14.16699219 C362.2682627 14.14889417 360.30600361 14.13686847 358.34375 14.125 C357.19583984 14.11339844 356.04792969 14.10179687 354.86523438 14.08984375 C351.82633395 14.09512618 351.82633395 14.09512618 349.20996094 14.71655273 C346.26141061 15.281038 343.78573355 15.06924988 340.796875 14.78515625 C331.82886891 14.05653499 322.86497365 13.87195216 313.87158203 13.68481445 C310.99112129 13.62481506 308.11080317 13.5599028 305.23046875 13.49414062 C303.36719376 13.45284148 301.50391268 13.41181632 299.640625 13.37109375 C298.37306366 13.34298866 298.37306366 13.34298866 297.07989502 13.3143158 C294.63664731 13.26396959 292.19350576 13.22307416 289.75 13.1875 C288.36210266 13.16455368 288.36210266 13.16455368 286.94616699 13.1411438 C286.03806274 13.13202972 285.1299585 13.12291565 284.19433594 13.11352539 C283.36705994 13.10358047 282.53978394 13.09363556 281.68743896 13.08338928 C279.7432961 12.97148872 279.7432961 12.97148872 278.75 14.1875 C276.97252978 14.28652268 275.19111447 14.31549182 273.41088867 14.31689453 C271.69726387 14.32162277 271.69726387 14.32162277 269.94902039 14.32644653 C268.70127335 14.3244223 267.45352631 14.32239807 266.16796875 14.3203125 C264.88827713 14.32126923 263.60858551 14.32222595 262.29011536 14.32321167 C259.56880497 14.32469027 256.84752729 14.32253279 254.1262207 14.31787109 C250.67135278 14.31223608 247.21656361 14.31541159 243.76169872 14.32144356 C240.43878287 14.32597917 237.11588683 14.32277652 233.79296875 14.3203125 C232.56748825 14.32233673 231.34200775 14.32436096 230.07939148 14.32644653 C228.31375603 14.32171829 228.31375603 14.32171829 226.51245117 14.31689453 C225.49398605 14.31609894 224.47552094 14.31530334 223.42619324 14.31448364 C220.28982659 14.20614677 217.21689467 13.97145108 214.09359741 13.68551636 C207.87922005 13.14699503 201.72447818 13.05967943 195.48999023 13.08984375 C193.74823769 13.09203415 193.74823769 13.09203415 191.97129822 13.0942688 C189.47021999 13.09804967 186.96914436 13.10413923 184.46807671 13.11233521 C180.49231327 13.12521472 176.51656574 13.13179034 172.54078674 13.13647461 C163.37608967 13.14844275 154.21142213 13.17042789 145.0467453 13.19270325 C136.65505252 13.21301566 128.26337033 13.2310634 119.87165791 13.24091816 C115.31296483 13.24660637 110.75433384 13.26013461 106.19566345 13.27514648 C93.01109665 13.30199753 79.90584873 13.08689355 66.75 12.1875 C66.42 12.8475 66.09 13.5075 65.75 14.1875 C65.42 13.8575 65.09 13.5275 64.75 13.1875 C63.10718261 13.02834674 61.45782516 12.93601289 59.80859375 12.87109375 C58.76356689 12.82903809 57.71854004 12.78698242 56.6418457 12.74365234 C55.50191162 12.70449707 54.36197754 12.6653418 53.1875 12.625 C52.00438232 12.5832666 50.82126465 12.5415332 49.60229492 12.49853516 C29.56371718 11.8430239 9.57454922 12.25249377 -10.4597168 12.83154297 C-19.39400847 13.08688022 -28.31110558 13.25949915 -37.25 13.1875 C-37.25 12.5275 -37.25 11.8675 -37.25 11.1875 C-37.91 11.5175 -38.57 11.8475 -39.25 12.1875 C-42.15086073 12.42750993 -45.03149143 12.61211545 -47.9375 12.75 C-48.78586426 12.79390869 -49.63422852 12.83781738 -50.50830078 12.88305664 C-57.06943446 13.19727776 -63.5811378 13.20936425 -70.1484375 13.02734375 C-73.3130225 13.19075431 -75.37137577 13.94242032 -78.25 15.1875 C-82.76282051 14.67467949 -82.76282051 14.67467949 -84.25 13.1875 C-85.66162618 13.08918754 -87.07811925 13.05951527 -88.49316406 13.05810547 C-89.4015654 13.05499359 -90.30996674 13.05188171 -91.24589539 13.04867554 C-92.24240616 13.05065948 -93.23891693 13.05264343 -94.265625 13.0546875 C-95.81096672 13.05270859 -95.81096672 13.05270859 -97.38752747 13.0506897 C-100.75838166 13.0487632 -104.12915416 13.05513119 -107.5 13.0625 C-109.21435745 13.06382935 -109.21435745 13.06382935 -110.96334839 13.06518555 C-125.21839416 13.07823123 -139.44234891 13.22323265 -153.68505859 13.83154297 C-161.33805696 14.1532322 -168.96566416 14.23280794 -176.625 14.1875 C-191.63322212 13.64190388 -191.63322212 13.64190388 -206.25 16.1875 C-208.58595238 15.87304487 -210.91905466 15.5371418 -213.25 15.1875 C-214.44625 15.1875 -215.6425 15.1875 -216.875 15.1875 C-220.25 15.1875 -220.25 15.1875 -222.4050293 14.69580078 C-226.3298631 13.99456471 -230.16539157 14.04487458 -234.14453125 14.0546875 C-235.00954758 14.05373077 -235.8745639 14.05277405 -236.76579285 14.05178833 C-238.59898959 14.05110875 -240.43218876 14.05294758 -242.26538086 14.05712891 C-245.01486931 14.06240854 -247.76418897 14.05721395 -250.51367188 14.05078125 C-267.70401694 13.56484246 -267.70401694 13.56484246 -284.62036133 15.78466797 C-285.15814209 15.91760254 -285.69592285 16.05053711 -286.25 16.1875 C-286.745 15.6925 -286.745 15.6925 -287.25 15.1875 C-289.08276588 15.18298162 -290.9157922 15.24863219 -292.74609375 15.34375 C-293.86177734 15.39660156 -294.97746094 15.44945312 -296.12695312 15.50390625 C-298.49675516 15.6261012 -300.86654688 15.74849637 -303.23632812 15.87109375 C-304.35330078 15.92394531 -305.47027344 15.97679687 -306.62109375 16.03125 C-307.65161865 16.08474609 -308.68214355 16.13824219 -309.74389648 16.19335938 C-312.25 16.1875 -312.25 16.1875 -314.25 15.1875 C-316.20357438 15.41928001 -318.15685723 15.65543335 -320.10546875 15.92578125 C-324.59917113 16.47419302 -328.91441766 16.26819258 -333.375 15.625 C-336.85285687 15.23233874 -338.92766199 15.37936373 -342.25 16.1875 C-345.89768468 16.45440376 -348.1120771 16.09266748 -351.25 14.1875 C-351.58 13.8575 -351.91 13.5275 -352.25 13.1875 C-353.93608966 13.11544489 -355.62500659 13.10363932 -357.3125 13.125 C-358.23160156 13.13402344 -359.15070312 13.14304687 -360.09765625 13.15234375 C-360.80792969 13.16394531 -361.51820313 13.17554688 -362.25 13.1875 C-362.25 12.1975 -362.25 11.2075 -362.25 10.1875 C-360.25133314 9.84626419 -358.25097458 9.5149322 -356.25 9.1875 C-354.703125 8.9090625 -354.703125 8.9090625 -353.125 8.625 C-348.84825104 8.14214125 -344.70813155 8.15744602 -340.41015625 8.25 C-337.34610745 8.18940077 -334.40483545 7.82044953 -331.37133789 7.41015625 C-327.72831817 7.02778383 -324.09549303 7.12292819 -320.4375 7.1875 C-314.76808856 7.34953586 -314.76808856 7.34953586 -309.25 6.1875 C-308.07630859 6.43693359 -308.07630859 6.43693359 -306.87890625 6.69140625 C-303.16246688 7.39272542 -300.25872082 6.40394656 -296.65234375 5.46484375 C-294.25 5.1875 -294.25 5.1875 -292.4453125 6.15625 C-289.08105391 7.73661346 -285.7900487 7.07796149 -282.1875 6.75 C-274.56102191 6.17174844 -267.15672836 6.2927061 -259.53295898 6.86938477 C-258.40869507 6.94950806 -258.40869507 6.94950806 -257.26171875 7.03125 C-256.60647217 7.08474609 -255.95122559 7.13824219 -255.27612305 7.19335938 C-253.18683817 7.25693245 -253.18683817 7.25693245 -250.94174194 6.69422913 C-248.27136048 6.19152118 -245.8695259 6.06700913 -243.15600586 6.07397461 C-241.6743821 6.07408791 -241.6743821 6.07408791 -240.16282654 6.07420349 C-238.57982506 6.08194542 -238.57982506 6.08194542 -236.96484375 6.08984375 C-235.32498253 6.09196617 -235.32498253 6.09196617 -233.6519928 6.09413147 C-230.16380048 6.0997193 -226.67567281 6.11225979 -223.1875 6.125 C-220.83528739 6.13001745 -218.48307377 6.13457993 -216.13085938 6.13867188 C-210.95240963 6.14849535 -205.77399308 6.16269898 -200.5955658 6.18077087 C-198.48038471 6.18683906 -196.36518979 6.1875 -194.25 6.1875 C-192.5221319 6.19868751 -190.79426754 6.21046103 -189.06640625 6.22265625 C-179.22905308 6.27237572 -169.51971914 6.28211726 -159.72265625 5.33984375 C-156.47861209 5.13997373 -153.45785924 5.71226159 -150.25 6.1875 C-147.61297626 5.99064597 -145.00725294 5.69690009 -142.38671875 5.34375 C-139.74625302 5.21221995 -137.5316665 5.33887566 -134.92578125 5.64453125 C-128.27534354 6.38009211 -121.62766424 6.37354998 -114.94580078 6.37280273 C-112.75403598 6.37499596 -110.56277051 6.39323674 -108.37109375 6.41210938 C-95.97533874 6.65445159 -95.97533874 6.65445159 -84.25 3.1875 C-82.87224188 3.60923594 -81.51418895 4.09578976 -80.16796875 4.609375 C-73.43599697 6.73360545 -66.7565094 6.56777012 -59.78100586 6.46875 C-57.55630706 6.43741277 -55.33232043 6.42774609 -53.10742188 6.421875 C-46.72931462 6.38114845 -40.56526835 6.17372931 -34.25 5.1875 C-30.39372054 4.9675109 -26.956317 4.952061 -23.25 6.1875 C-22.59 5.5275 -21.93 4.8675 -21.25 4.1875 C-19.9815625 4.2184375 -19.9815625 4.2184375 -18.6875 4.25 C-11.77827494 4.12437773 -6.61847837 0.04331465 0 0 Z " fill="#A6D0F9" transform="translate(970.25,322.8125)"/>
<path d="M0 0 C1.89419678 0.06453369 1.89419678 0.06453369 3.82666016 0.13037109 C13.04363021 0.48707063 13.04363021 0.48707063 17.42216492 0.86897278 C25.2480823 1.5473291 32.98648007 1.73641418 40.84004784 1.66987419 C43.07568387 1.65149684 45.31125903 1.64061291 47.54695129 1.63148499 C50.85038207 1.61794826 54.15379728 1.60272635 57.45721436 1.58618164 C100.89451928 1.38016477 144.30635482 2.08659154 187.73461914 2.91381836 C189.56777978 2.94850267 189.56777978 2.94850267 191.43797398 2.98388767 C197.18542943 3.09274645 202.93282293 3.20364277 208.68013 3.32008362 C219.29742185 3.52963315 229.90613174 3.64827141 240.52551365 3.62024021 C246.99001751 3.60872756 253.43584373 3.74114344 259.89453125 4.02734375 C260.91125412 4.06936417 261.92797699 4.11138458 262.97550964 4.15467834 C265.07629196 4.2425226 267.17698778 4.33246197 269.27758789 4.42456055 C272.47975897 4.56434473 275.68220377 4.69567823 278.88476562 4.82617188 C280.95054171 4.91357052 283.0162978 5.00144326 285.08203125 5.08984375 C286.02480423 5.12843002 286.96757721 5.1670163 287.93891907 5.20677185 C293.21156042 5.4428505 298.42032575 5.72040738 303.625 6.625 C303.955 7.285 304.285 7.945 304.625 8.625 C303.6652124 8.58741577 303.6652124 8.58741577 302.68603516 8.54907227 C289.05712549 8.01971264 275.42743302 7.53752735 261.79437256 7.12936401 C260.32043984 7.0852069 258.84652174 7.04055908 257.37261963 6.99539185 C245.49403244 6.43250808 245.49403244 6.43250808 233.625 6.625 C233.295 6.955 232.965 7.285 232.625 7.625 C230.84752978 7.72402268 229.06611447 7.75299182 227.28588867 7.75439453 C225.57226387 7.75912277 225.57226387 7.75912277 223.82402039 7.76394653 C222.57627335 7.7619223 221.32852631 7.75989807 220.04296875 7.7578125 C218.76327713 7.75876923 217.48358551 7.75972595 216.16511536 7.76071167 C213.44380497 7.76219027 210.72252729 7.76003279 208.0012207 7.75537109 C204.54635278 7.74973608 201.09156361 7.75291159 197.63669872 7.75894356 C194.31378287 7.76347917 190.99088683 7.76027652 187.66796875 7.7578125 C186.44248825 7.75983673 185.21700775 7.76186096 183.95439148 7.76394653 C182.18875603 7.75921829 182.18875603 7.75921829 180.38745117 7.75439453 C179.36898605 7.75359894 178.35052094 7.75280334 177.30119324 7.75198364 C174.16482659 7.64364677 171.09189467 7.40895108 167.96859741 7.12301636 C161.75422005 6.58449503 155.59947818 6.49717943 149.36499023 6.52734375 C147.62323769 6.52953415 147.62323769 6.52953415 145.84629822 6.5317688 C143.34521999 6.53554967 140.84414436 6.54163923 138.34307671 6.54983521 C134.36731327 6.56271472 130.39156574 6.56929034 126.41578674 6.57397461 C117.25108967 6.58594275 108.08642213 6.60792789 98.9217453 6.63020325 C90.53005252 6.65051566 82.13837033 6.6685634 73.74665791 6.67841816 C69.18796483 6.68410637 64.62933384 6.69763461 60.07066345 6.71264648 C46.88609665 6.73949753 33.78084873 6.52439355 20.625 5.625 C20.295 6.285 19.965 6.945 19.625 7.625 C19.295 7.295 18.965 6.965 18.625 6.625 C16.98218261 6.46584674 15.33282516 6.37351289 13.68359375 6.30859375 C12.63856689 6.26653809 11.59354004 6.22448242 10.5168457 6.18115234 C9.37691162 6.14199707 8.23697754 6.1028418 7.0625 6.0625 C5.87938232 6.0207666 4.69626465 5.9790332 3.47729492 5.93603516 C-16.56128282 5.2805239 -36.55045078 5.68999377 -56.5847168 6.26904297 C-65.51900847 6.52438022 -74.43610558 6.69699915 -83.375 6.625 C-83.375 5.965 -83.375 5.305 -83.375 4.625 C-84.035 4.955 -84.695 5.285 -85.375 5.625 C-88.27586073 5.86500993 -91.15649143 6.04961545 -94.0625 6.1875 C-94.91086426 6.23140869 -95.75922852 6.27531738 -96.63330078 6.32055664 C-103.19443446 6.63477776 -109.7061378 6.64686425 -116.2734375 6.46484375 C-119.4380225 6.62825431 -121.49637577 7.37992032 -124.375 8.625 C-128.88782051 8.11217949 -128.88782051 8.11217949 -130.375 6.625 C-131.78662618 6.52668754 -133.20311925 6.49701527 -134.61816406 6.49560547 C-135.5265654 6.49249359 -136.43496674 6.48938171 -137.37089539 6.48617554 C-138.36740616 6.48815948 -139.36391693 6.49014343 -140.390625 6.4921875 C-141.93596672 6.49020859 -141.93596672 6.49020859 -143.51252747 6.4881897 C-146.88338166 6.4862632 -150.25415416 6.49263119 -153.625 6.5 C-155.33935745 6.50132935 -155.33935745 6.50132935 -157.08834839 6.50268555 C-171.34339416 6.51573123 -185.56734891 6.66073265 -199.81005859 7.26904297 C-207.46305696 7.5907322 -215.09066416 7.67030794 -222.75 7.625 C-237.75822212 7.07940388 -237.75822212 7.07940388 -252.375 9.625 C-254.71095238 9.31054487 -257.04405466 8.9746418 -259.375 8.625 C-260.57125 8.625 -261.7675 8.625 -263 8.625 C-266.375 8.625 -266.375 8.625 -268.5300293 8.13330078 C-272.4548631 7.43206471 -276.29039157 7.48237458 -280.26953125 7.4921875 C-281.13454758 7.49123077 -281.9995639 7.49027405 -282.89079285 7.48928833 C-284.72398959 7.48860875 -286.55718876 7.49044758 -288.39038086 7.49462891 C-291.13986931 7.49990854 -293.88918897 7.49471395 -296.63867188 7.48828125 C-313.82901694 7.00234246 -313.82901694 7.00234246 -330.74536133 9.22216797 C-331.28314209 9.35510254 -331.82092285 9.48803711 -332.375 9.625 C-332.87 9.13 -332.87 9.13 -333.375 8.625 C-335.20776588 8.62048162 -337.0407922 8.68613219 -338.87109375 8.78125 C-339.98677734 8.83410156 -341.10246094 8.88695312 -342.25195312 8.94140625 C-344.62175516 9.0636012 -346.99154688 9.18599637 -349.36132812 9.30859375 C-350.47830078 9.36144531 -351.59527344 9.41429687 -352.74609375 9.46875 C-353.77661865 9.52224609 -354.80714355 9.57574219 -355.86889648 9.63085938 C-358.375 9.625 -358.375 9.625 -360.375 8.625 C-362.32857438 8.85678001 -364.28185723 9.09293335 -366.23046875 9.36328125 C-370.72417113 9.91169302 -375.03941766 9.70569258 -379.5 9.0625 C-382.97785687 8.66983874 -385.05266199 8.81686373 -388.375 9.625 C-390.0412553 9.6620279 -391.70901319 9.67259962 -393.375 9.625 C-392.715 8.635 -392.055 7.645 -391.375 6.625 C-389.04339059 6.53532272 -386.70703812 6.5472654 -384.375 6.625 C-382.37250904 6.30697317 -380.37256606 5.97262184 -378.375 5.625 C-369.76711652 4.67589187 -361.08470587 4.38384945 -352.4375 4 C-351.34719482 3.94779297 -350.25688965 3.89558594 -349.13354492 3.84179688 C-344.01796508 3.63001416 -339.4255547 3.66839413 -334.375 4.625 C-333.385 4.295 -332.395 3.965 -331.375 3.625 C-328.7629222 3.52815486 -326.17835834 3.48501891 -323.56640625 3.4921875 C-322.4217112 3.49075241 -322.4217112 3.49075241 -321.25389099 3.48928833 C-319.64085813 3.48860826 -318.02782252 3.49045049 -316.41479492 3.49462891 C-313.95029521 3.49997226 -311.48597836 3.49468189 -309.02148438 3.48828125 C-307.4531246 3.48894221 -305.88476494 3.49022373 -304.31640625 3.4921875 C-303.58088028 3.49016327 -302.84535431 3.48813904 -302.08753967 3.48605347 C-296.78895542 3.51023328 -296.78895542 3.51023328 -294.31616211 4.19580078 C-291.25991864 4.87154924 -288.44453269 4.10963097 -285.375 3.625 C-283.04085106 3.48544225 -280.70437597 3.3812417 -278.3671875 3.30859375 C-276.39105469 3.24575195 -276.39105469 3.24575195 -274.375 3.18164062 C-273.69566406 3.16206299 -273.01632812 3.14248535 -272.31640625 3.12231445 C-270.27587541 3.06324899 -268.23561913 2.99795799 -266.1953125 2.93164062 C-259.99465095 2.73768922 -253.80172738 2.60472728 -247.59765625 2.6328125 C-241.6931444 2.65599062 -235.83138604 2.38801666 -229.9375 2.0625 C-222.48993388 1.68784011 -215.33842096 1.72104338 -207.90625 2.43359375 C-201.07587373 2.80382432 -194.2539558 2.16865487 -187.43505859 1.74365234 C-181.5599706 1.40526733 -175.84235788 1.55763946 -169.98925781 2.12451172 C-162.98175962 2.72073877 -156.01368166 2.7690525 -148.984375 2.7578125 C-147.6273802 2.75848903 -146.27038551 2.75946194 -144.91339111 2.76071167 C-142.08629183 2.76217424 -139.25922444 2.76008232 -136.43212891 2.75537109 C-132.85742943 2.74969584 -129.2828048 2.75303292 -125.70810795 2.75882339 C-106.90820765 2.79096704 -106.90820765 2.79096704 -88.13720703 1.84326172 C-79.91662738 1.36635074 -71.66861664 1.56237761 -63.4375 1.625 C-59.84505581 1.65153815 -56.25266076 1.67146727 -52.66015625 1.6875 C-51.43076073 1.69994751 -51.43076073 1.69994751 -50.17652893 1.71264648 C-48.24248408 1.7211747 -46.3083246 1.67846214 -44.375 1.625 C-44.045 1.295 -43.715 0.965 -43.375 0.625 C-29.04372485 -0.88443214 -14.38756021 -0.49081015 0 0 Z " fill="#BCD7F9" transform="translate(1016.375,329.375)"/>
<path d="M0 0 C6.1055471 -0.02464513 12.21106551 -0.04283371 18.31665039 -0.05493164 C20.39543156 -0.05997288 22.47420916 -0.06680574 24.55297852 -0.07543945 C27.53402586 -0.08751422 30.51502649 -0.09323024 33.49609375 -0.09765625 C34.89921059 -0.10539818 34.89921059 -0.10539818 36.33067322 -0.11329651 C37.19149002 -0.11337204 38.05230682 -0.11344757 38.93920898 -0.11352539 C40.08171364 -0.11685631 40.08171364 -0.11685631 41.24729919 -0.12025452 C43 0 43 0 44 1 C44.10061074 3.43264102 44.13547035 5.8369761 44.12863445 8.27021694 C44.13038749 9.04404674 44.13214053 9.81787654 44.13394669 10.61515573 C44.13864615 13.24153696 44.13613114 15.86786378 44.13371277 18.49424744 C44.13557876 20.38284414 44.13787861 22.27144045 44.14057809 24.16003615 C44.14672871 29.37584075 44.14655869 34.59162941 44.14538372 39.80743682 C44.14518053 45.42237274 44.15069058 51.03730343 44.15544128 56.65223694 C44.16376616 67.66247686 44.16649695 78.67271144 44.16705366 89.68295424 C44.16752794 98.62742338 44.16957825 107.57189075 44.17275429 116.51635933 C44.18013058 137.71952659 44.18627857 158.92269257 44.18575573 180.12586117 C44.18574015 180.80449471 44.18572457 181.48312826 44.18570852 182.18232646 C44.18562541 185.62221928 44.18552637 189.0621121 44.18542381 192.50200491 C44.18540387 193.18522655 44.18538392 193.86844818 44.18536337 194.5723735 C44.18532294 195.95401495 44.18528114 197.33565641 44.18523798 198.71729786 C44.18462504 220.21998593 44.192134 241.72265824 44.20581055 263.2253418 C44.22115596 287.3620301 44.22976503 311.49870533 44.22884732 335.63539988 C44.22851458 348.42339802 44.23129555 361.21137839 44.24202538 373.99937248 C44.25110065 384.88568116 44.25333024 395.77196401 44.24651595 406.65827482 C44.24323567 412.21790417 44.24324798 417.77748389 44.2518692 423.33710861 C44.25966905 428.41908206 44.25837033 433.50096598 44.24958507 438.58293707 C44.24803557 440.42882596 44.24991997 442.27472133 44.25544515 444.1206026 C44.26242183 446.61516005 44.25727815 449.10939606 44.24888897 451.60394192 C44.25385715 452.33319225 44.25882533 453.06244259 44.26394406 453.81379142 C44.22829617 458.77170383 44.22829617 458.77170383 42 461 C41.67 309.2 41.34 157.4 41 1 C27.47 1 13.94 1 0 1 C0 0.67 0 0.34 0 0 Z " fill="#BFC6E5" transform="translate(782,817)"/>
<path d="M0 0 C4.35072317 1.36196552 6.31791374 3.14875361 9.0625 6.75 C9.74828125 7.64847656 10.4340625 8.54695312 11.140625 9.47265625 C25.23649595 28.63238 30.18733144 52.84729141 30.12025452 76.25660706 C30.12110894 77.35868891 30.12196337 78.46077077 30.12284368 79.59624904 C30.12448469 83.27194648 30.11899974 86.94759781 30.11352539 90.62329102 C30.1132432 93.26498009 30.1133579 95.90666637 30.1139679 98.5483551 C30.11449091 104.22693416 30.11136739 109.90550168 30.10573006 115.58407784 C30.09758487 123.79423059 30.09499675 132.0043778 30.09374207 140.21453416 C30.09155629 153.536662 30.08490906 166.8587837 30.07543945 180.1809082 C30.06625307 193.11808237 30.05917824 206.05525487 30.05493164 218.99243164 C30.05453756 220.1896571 30.05453756 220.1896571 30.05413551 221.41106892 C30.05283042 225.4153643 30.05156673 229.41965969 30.05032361 233.42395508 C30.03996575 266.61597453 30.02236034 299.80798644 30 333 C29.34 332.67 28.68 332.34 28 332 C27.99853479 331.17981553 27.99853479 331.17981553 27.99703997 330.34306169 C27.93863189 297.85850487 27.86473312 265.37402486 27.77101372 232.88955177 C27.759747 228.97975358 27.74860832 225.06995503 27.73754883 221.16015625 C27.73534514 220.38186139 27.73314146 219.60356653 27.730871 218.80168697 C27.69560189 206.23781464 27.67067934 193.67394235 27.64965298 181.11003903 C27.62780781 168.19612145 27.59467565 155.28226751 27.55129844 142.36840415 C27.52493096 134.41469816 27.50712624 126.4610713 27.50065396 118.50732383 C27.49472301 112.38459195 27.47300709 106.26200364 27.44572449 100.13933182 C27.43700217 97.64505638 27.43320948 95.15075749 27.43499184 92.65646744 C27.44900717 63.96736749 25.2703738 32.48411461 7 9 C6.2575 8.01 5.515 7.02 4.75 6 C2.97282198 3.79344702 2.97282198 3.79344702 0 2 C0 1.34 0 0.68 0 0 Z " fill="#C2C8E3" transform="translate(1193,944)"/>
<path d="M0 0 C0.495 0.99 0.495 0.99 1 2 C1.57218262 1.99476318 2.14436523 1.98952637 2.73388672 1.98413086 C13.64203392 1.89811133 24.48702536 1.87202796 35.36279297 2.82006836 C39.25640828 3.11266008 41.63202391 2.97168532 45 1 C46.82844193 1.17249452 48.65659741 1.36497427 50.47216797 1.6418457 C64.38431667 3.61297977 78.55528213 3.08831392 92.5625 3 C96.8554662 2.9733297 101.14838827 2.95341629 105.44140625 2.9375 C106.41332413 2.92920166 107.385242 2.92090332 108.38661194 2.91235352 C113.05737978 2.89543857 117.39902769 3.08634763 122 4 C124.58544317 4.02649795 127.14723573 3.93904625 129.73046875 3.83984375 C132 4 132 4 135 6 C132.51245214 7.24377393 130.77344699 7.13306235 128 7.125 C127.113125 7.12757813 126.22625 7.13015625 125.3125 7.1328125 C123 7 123 7 121 6 C120.67 6.99 120.34 7.98 120 9 C119.154375 8.855625 118.30875 8.71125 117.4375 8.5625 C116.303125 8.376875 115.16875 8.19125 114 8 C112.783125 7.79375 111.56625 7.5875 110.3125 7.375 C107.00339665 6.76501384 107.00339665 6.76501384 104 8 C101.93405158 7.79679196 99.86853345 7.58519465 97.80859375 7.328125 C94.45964941 6.93687142 91.11106604 6.64303884 87.75 6.375 C86.58984375 6.27960938 85.4296875 6.18421875 84.234375 6.0859375 C81.14638116 5.87505914 81.14638116 5.87505914 78.76855469 6.48632812 C75.32396532 7.12543007 71.95792521 7.14319388 68.46875 7.1328125 C67.39844543 7.13424759 67.39844543 7.13424759 66.30651855 7.13571167 C64.80379142 7.13638961 63.30106129 7.13456234 61.79833984 7.13037109 C59.50741962 7.12501734 57.21669543 7.13032916 54.92578125 7.13671875 C53.46093707 7.1360579 51.99609301 7.1347766 50.53125 7.1328125 C49.85090698 7.13483673 49.17056396 7.13686096 48.46960449 7.13894653 C45.7895478 7.125832 43.25682141 7.05284416 40.6268158 6.51168823 C35.63909027 5.5401087 30.54054178 5.60310342 25.47265625 5.4375 C24.19874527 5.3950415 22.92483429 5.35258301 21.61231995 5.30883789 C6.84042957 4.85126855 -7.93155934 4.92237226 -22.70861816 4.98168945 C-31.02055949 5.01458431 -39.33253081 5.02614651 -47.64453125 5.03125 C-48.47003353 5.03179886 -49.29553581 5.03234772 -50.14605331 5.03291321 C-73.10369555 5.04122291 -96.05032193 4.59054742 -119 4 C-119.33 3.34 -119.66 2.68 -120 2 C-119.44511902 2.00222061 -118.89023804 2.00444122 -118.31854248 2.00672913 C-112.54358565 2.02885186 -106.76864086 2.04393585 -100.99365234 2.05493164 C-98.83837393 2.05996052 -96.68309893 2.06678442 -94.52783203 2.07543945 C-91.43000446 2.08756821 -88.33222199 2.09324278 -85.234375 2.09765625 C-84.27070007 2.10281754 -83.30702515 2.10797882 -82.31414795 2.11329651 C-80.96320038 2.11340981 -80.96320038 2.11340981 -79.58496094 2.11352539 C-78.79442322 2.115746 -78.0038855 2.11796661 -77.18939209 2.12025452 C-74.99787638 2.07165514 -74.99787638 2.07165514 -72.92843628 1.46607971 C-70.33401936 0.83904054 -68.05068903 1.35877806 -65.44110107 1.7333374 C-60.32974203 2.29169539 -55.17488958 2.14164246 -50.0390625 2.1328125 C-48.19868912 2.13424759 -48.19868912 2.13424759 -46.32113647 2.13571167 C-43.74094593 2.13638961 -41.16075364 2.13456233 -38.58056641 2.13037109 C-34.61747459 2.12498978 -30.65449469 2.13034328 -26.69140625 2.13671875 C-24.18229142 2.13605844 -21.67317665 2.13477826 -19.1640625 2.1328125 C-17.37979355 2.13584885 -17.37979355 2.13584885 -15.55947876 2.13894653 C-13.91669449 2.13421829 -13.91669449 2.13421829 -12.24072266 2.12939453 C-11.27445953 2.12859894 -10.30819641 2.12780334 -9.31265259 2.12698364 C-6.97315173 2.15220229 -6.97315173 2.15220229 -5 1 C-3.33805547 0.64386903 -1.671549 0.30791692 0 0 Z " fill="#9ECDF8" transform="translate(1255,327)"/>
<path d="M0 0 C0.33 0 0.66 0 1 0 C5.64088593 20.55614856 1.81371943 42.18315624 -9 60 C-11.45070594 63.56423962 -14.08679744 66.80679638 -17 70 C-17.51691406 70.6084375 -18.03382813 71.216875 -18.56640625 71.84375 C-31.82527269 86.46505635 -52.82634878 93.94849822 -72 96 C-90.96401192 96.85739748 -108.52927498 96.23270557 -126 88 C-126.66 87.34 -127.32 86.68 -128 86 C-122.35678462 86.82332626 -117.07878127 88.40556096 -111.6328125 90.0625 C-88.23544934 96.1005292 -60.41331587 93.3923499 -39.20703125 81.9375 C-21.95927105 71.51741588 -8.33988594 56.79533474 -3 37 C-0.3748183 24.88620972 -0.39233987 12.34116213 0 0 Z " fill="#AEB6DB" transform="translate(834,661)"/>
<path d="M0 0 C7.87053673 -0.10619915 15.63789136 0.02206781 23.48095703 0.70092773 C34.84336168 1.66658235 46.033665 2.10887905 57.4375 2 C73.37921965 1.89608912 73.37921965 1.89608912 80.9375 2.5625 C86.32087108 2.92452215 91.60318532 3.00102409 96.99609375 2.7734375 C97.71479645 2.747621 98.43349915 2.7218045 99.17398071 2.69520569 C102.87101531 2.56225286 106.56622751 2.40617231 110.26147461 2.23071289 C111.63004393 2.17330072 112.99861483 2.11592606 114.3671875 2.05859375 C115.59550293 1.99986084 116.82381836 1.94112793 118.08935547 1.88061523 C121 2 121 2 123 4 C106.79592509 5.4898477 91.14805043 6.59999111 74.8984375 5.12109375 C71.93209609 4.82510541 71.93209609 4.82510541 69 6 C68.01 5.505 68.01 5.505 67 5 C65.33555539 4.9044069 63.66718037 4.87015355 62 4.875 C60.6696875 4.87113281 60.6696875 4.87113281 59.3125 4.8671875 C56.97323034 4.84872098 56.97323034 4.84872098 55 6 C54.01 5.67 53.02 5.34 52 5 C51.01 5.33 50.02 5.66 49 6 C47.36866047 5.78923262 45.73784435 5.57056922 44.11425781 5.30664062 C32.65126773 3.64410996 20.72061693 2.93121089 9.55859375 6.30859375 C6.9066504 7.02522577 4.73371416 7.19698116 2 7 C1.67 6.67 1.34 6.34 1 6 C-4.3654663 5.5142841 -8.97510856 5.93850608 -14 8 C-14.66 6.68 -15.32 5.36 -16 4 C-13.17283905 3.05761302 -11.36823877 2.86534353 -8.4375 2.875 C-7.65246094 2.87242187 -6.86742187 2.86984375 -6.05859375 2.8671875 C-4 3 -4 3 -2 4 C-1.34 2.68 -0.68 1.36 0 0 Z " fill="#A6C8F5" transform="translate(745,413)"/>
<path d="M0 0 C0.99 0.33 1.98 0.66 3 1 C2.56360594 3.9456599 1.85154873 5.18443946 -0.0625 7.5625 C-2.31112206 9.87245668 -2.31112206 9.87245668 -2 13 C-3.34521484 14.65405273 -3.34521484 14.65405273 -5.2109375 16.43359375 C-5.87867188 17.08263672 -6.54640625 17.73167969 -7.234375 18.40039062 C-7.94078125 19.07263672 -8.6471875 19.74488281 -9.375 20.4375 C-10.76240359 21.76474864 -12.14539541 23.09662791 -13.5234375 24.43359375 C-14.14138184 25.02197021 -14.75932617 25.61034668 -15.39599609 26.21655273 C-17.05175824 28.05754855 -17.95529032 29.76976213 -19 32 C-20.32810215 33.67083819 -21.66172696 35.33729713 -23 37 C-24.50455525 39.44288003 -25.9507187 41.91537973 -27.39453125 44.39453125 C-36.2790034 59.54463665 -36.2790034 59.54463665 -42 62 C-40.58242795 57.48954346 -38.30304996 55.30304996 -35 52 C-31.40474724 47.04882334 -28.43088381 42.00431711 -27.7644043 35.81054688 C-26.79026671 28.18646776 -23.53538429 24.47490826 -18 19.375 C-17.26265625 18.65699219 -16.5253125 17.93898438 -15.765625 17.19921875 C-10.33863095 12 -10.33863095 12 -8 12 C-8.495 10.515 -8.495 10.515 -9 9 C-8.071875 8.2575 -7.14375 7.515 -6.1875 6.75 C-3.72873042 4.70974439 -1.78352451 2.67528677 0 0 Z " fill="#8CBEF3" transform="translate(416,390)"/>
<path d="M0 0 C0.33 0 0.66 0 1 0 C5.64088593 20.55614856 1.81371943 42.18315624 -9 60 C-11.4503926 63.56378391 -14.07849833 66.81450722 -17 70 C-17.93199219 71.03447266 -17.93199219 71.03447266 -18.8828125 72.08984375 C-21.98511637 75.3734511 -24.51987414 77.77814749 -29 79 C-27.48897027 75.49824857 -25.4237042 73.134517 -22.8125 70.375 C-6.75162584 52.79311207 -1.3351382 34.26137778 -0.4375 10.9375 C-0.39431641 9.88111328 -0.35113281 8.82472656 -0.30664062 7.73632812 C-0.20162663 5.15765121 -0.09947123 2.57889565 0 0 Z " fill="#B6BFE1" transform="translate(834,661)"/>
<path d="M0 0 C17.64247959 0.16902974 17.64247959 0.16902974 21.4140625 3.78125 C21.85492187 4.2453125 22.29578125 4.709375 22.75 5.1875 C26.13976901 4.91791853 26.13976901 4.91791853 29.75 4.1875 C31.7496695 4.15114237 33.75059462 4.13873402 35.75 4.1875 C36.245 5.1775 36.245 5.1775 36.75 6.1875 C31.83917519 6.98537037 27.16261371 7.31593136 22.171875 7.3203125 C21.13199432 7.32174759 21.13199432 7.32174759 20.07110596 7.32321167 C18.61901762 7.32388717 17.16692615 7.32207721 15.71484375 7.31787109 C13.49211918 7.31248089 11.26959365 7.31785414 9.046875 7.32421875 C7.63020789 7.3235585 6.2135409 7.32227842 4.796875 7.3203125 C3.51651367 7.31918457 2.23615234 7.31805664 0.91699219 7.31689453 C-2.25 7.1875 -2.25 7.1875 -5.25 6.1875 C-7.24021521 6.28473451 -7.24021521 6.28473451 -9.375 6.625 C-14.03838108 7.22228033 -18.5511322 7.2620852 -23.25 7.1875 C-22.59 6.1975 -21.93 5.2075 -21.25 4.1875 C-19.25 4.1875 -17.25 4.1875 -15.25 4.1875 C-9.75559995 2.74112648 -5.57549193 0.03648882 0 0 Z " fill="#94CBF9" transform="translate(970.25,322.8125)"/>
<path d="M0 0 C1.0020195 -0.00095673 2.004039 -0.00191345 3.03642273 -0.00289917 C5.14496931 -0.003576 7.25351804 -0.00175663 9.36206055 0.00244141 C12.55457346 0.00777965 15.74694462 0.00248811 18.93945312 -0.00390625 C37.42598551 -0.00950872 37.42598551 -0.00950872 46.0300293 0.90625 C52.85141342 1.59876116 59.57054906 0.9740552 66.375 0.35546875 C70.02214012 0.07416024 73.60594935 0.06250924 77.26171875 0.1328125 C77.26171875 1.1228125 77.26171875 2.1128125 77.26171875 3.1328125 C76.54254776 3.13059189 75.82337677 3.12837128 75.08241272 3.12608337 C68.27164571 3.10596289 61.46088321 3.09077877 54.65009403 3.08100033 C51.14944747 3.07580399 47.64882567 3.06876606 44.14819336 3.05737305 C40.11441829 3.04432854 36.08066883 3.03955744 32.046875 3.03515625 C30.80277359 3.02999496 29.55867218 3.02483368 28.27687073 3.01951599 C23.20123857 3.01919125 18.21623632 3.05595636 13.17333984 3.66601562 C9.390613 4.11743079 6.37203325 3.89989658 2.64501953 3.39501953 C-1.82442452 2.90329827 -6.31005022 3.02968654 -10.80078125 3.0703125 C-12.24227539 3.07708008 -12.24227539 3.07708008 -13.71289062 3.08398438 C-16.05475547 3.09563544 -18.39648306 3.11199225 -20.73828125 3.1328125 C-20.40828125 2.4728125 -20.07828125 1.8128125 -19.73828125 1.1328125 C-13.15770856 0.08992859 -6.65083154 -0.01426189 0 0 Z " fill="#A8C9F5" transform="translate(1167.73828125,413.8671875)"/>
<path d="M0 0 C7.14216274 0.60432179 14.2439964 0.62402712 21.40771484 0.59545898 C22.78061877 0.59358822 24.15352338 0.59216744 25.52642822 0.59117126 C29.09702478 0.58739786 32.66757905 0.57761342 36.23815918 0.56646729 C39.89883859 0.55614025 43.55952499 0.55164973 47.22021484 0.54663086 C54.37127355 0.53598516 61.5223039 0.518973 68.67333984 0.49780273 C68.67333984 0.82780273 68.67333984 1.15780273 68.67333984 1.49780273 C55.83970817 2.28459086 43.06114995 2.66018587 30.20458984 2.66577148 C28.422892 2.66899648 26.6411944 2.67236141 24.85949707 2.67585754 C21.17227563 2.68177194 17.4850774 2.68370475 13.79785156 2.68310547 C9.07136359 2.68300254 4.34502148 2.69682118 -0.38143158 2.71387768 C-4.03933403 2.72496239 -7.69720027 2.72702602 -11.3551178 2.72649574 C-13.09986386 2.72767476 -14.8446109 2.73209217 -16.58934021 2.73982811 C-19.01035224 2.74958614 -21.43103385 2.74677027 -23.85205078 2.74072266 C-24.56882492 2.74634216 -25.28559906 2.75196167 -26.02409363 2.75775146 C-29.68922063 2.73439528 -31.18780382 2.59037363 -34.32666016 0.49780273 C-22.87250905 -0.49053696 -11.46889563 -1.10893461 0 0 Z " fill="#B5D4F9" transform="translate(846.32666015625,331.502197265625)"/>
<path d="M0 0 C4.35072317 1.36196552 6.31791374 3.14875361 9.0625 6.75 C9.74828125 7.64847656 10.4340625 8.54695312 11.140625 9.47265625 C16.62017143 16.9206952 19.89691843 24.54381833 23.125 33.125 C23.38925781 33.81464844 23.65351562 34.50429688 23.92578125 35.21484375 C26.41127096 41.81337735 27.14407843 47.29047971 27.0625 54.3125 C27.05798828 55.05306641 27.05347656 55.79363281 27.04882812 56.55664062 C27.03712175 58.37112899 27.01918898 60.18557534 27 62 C26.67 62 26.34 62 26 62 C25.84144531 60.88625 25.68289063 59.7725 25.51953125 58.625 C22.52194399 38.60721387 17.08211318 14.79260476 0 2 C0 1.34 0 0.68 0 0 Z " fill="#B8BEDC" transform="translate(1193,944)"/>
<path d="M0 0 C0.76054688 -0.00257813 1.52109375 -0.00515625 2.3046875 -0.0078125 C4.125 0.125 4.125 0.125 5.125 1.125 C7.42143908 1.15645807 9.70150129 1.0569221 11.99609375 0.96484375 C14.125 1.125 14.125 1.125 16.125 3.125 C9.85026617 4.17375155 3.6011727 4.48373629 -2.75 4.75 C-3.78769531 4.8015625 -4.82539062 4.853125 -5.89453125 4.90625 C-11.31861221 5.13880833 -16.44155298 5.04888279 -21.8203125 4.33398438 C-25.06004717 4.00446764 -28.20155567 4.27974758 -31.4375 4.5625 C-33.26474609 4.71525391 -33.26474609 4.71525391 -35.12890625 4.87109375 C-36.03511719 4.95488281 -36.94132812 5.03867187 -37.875 5.125 C-38.205 4.465 -38.535 3.805 -38.875 3.125 C-36.30299006 1.83899503 -34.33426244 1.93158299 -31.45703125 1.84375 C-29.82217773 1.78767578 -29.82217773 1.78767578 -28.15429688 1.73046875 C-27.01025391 1.69566406 -25.86621094 1.66085937 -24.6875 1.625 C-16.45874533 1.37035659 -8.18333994 -0.02831606 0 0 Z " fill="#A3C7F5" transform="translate(1300.875,412.875)"/>
<path d="M0 0 C2.93672774 0.29094526 2.93672774 0.29094526 5.31640625 -0.37109375 C9.55316198 -1.10554567 13.6102254 -0.41593246 17.85546875 0.09375 C19.18094727 0.24360352 19.18094727 0.24360352 20.53320312 0.39648438 C22.70400688 0.64289994 24.87374512 0.89635035 27.04296875 1.15625 C23.71993582 3.37160529 22.09930956 3.26985156 18.22265625 3.15625 C16.07511019 3.15625 14.09983298 3.38888786 11.98046875 3.71875 C8.04296875 4.15625 8.04296875 4.15625 4.78515625 3.68359375 C0.86724031 3.1314866 -2.81587214 3.09417096 -6.76953125 3.15625 C-20.33849273 3.2663749 -20.33849273 3.2663749 -24.95703125 2.15625 C-25.28703125 1.49625 -25.61703125 0.83625 -25.95703125 0.15625 C-24.36761719 0.17365234 -24.36761719 0.17365234 -22.74609375 0.19140625 C-21.35807467 0.20078476 -19.9700537 0.20988489 -18.58203125 0.21875 C-17.53402344 0.23131836 -17.53402344 0.23131836 -16.46484375 0.24414062 C-10.61495554 0.27226509 -6.00257747 -0.65618238 0 0 Z " fill="#9EC5F4" transform="translate(692.95703125,414.84375)"/>
<path d="M0 0 C0.99 0.33 1.98 0.66 3 1 C2.75 2.875 2.75 2.875 2 5 C1.08347656 5.45246094 1.08347656 5.45246094 0.1484375 5.9140625 C-2.28422546 7.14366305 -3.40997074 8.39715006 -5.125 10.5 C-8.75320172 14.81143452 -12.70512585 18.70259767 -16.765625 22.60546875 C-18.94769009 24.9439406 -20.39250336 27.2521425 -22 30 C-24.6875 32.3125 -24.6875 32.3125 -27 34 C-25.78956715 27.15571426 -22.44117917 23.76816503 -17.5 19.0625 C-16.81035156 18.37865234 -16.12070312 17.69480469 -15.41015625 16.99023438 C-10.29529065 12 -10.29529065 12 -8 12 C-8.33 11.01 -8.66 10.02 -9 9 C-8.071875 8.2575 -7.14375 7.515 -6.1875 6.75 C-3.72873042 4.70974439 -1.78352451 2.67528677 0 0 Z " fill="#78BAF3" transform="translate(416,390)"/>
<path d="M0 0 C0.33 0 0.66 0 1 0 C2.24354021 9.92369715 2.99434794 17.37145764 -3 26 C-4.5625 24.75 -4.5625 24.75 -6 23 C-5.6484375 21.15893555 -5.6484375 21.15893555 -5 19 C-4.6820821 17.57020433 -4.36984471 16.13913693 -4.0625 14.70703125 C-3.88976562 13.91232422 -3.71703125 13.11761719 -3.5390625 12.29882812 C-3.17726044 10.63008166 -2.81791704 8.96080037 -2.4609375 7.29101562 C-2.28820312 6.50017578 -2.11546875 5.70933594 -1.9375 4.89453125 C-1.78152344 4.17112549 -1.62554687 3.44771973 -1.46484375 2.70239258 C-1 1 -1 1 0 0 Z M-1 11 C0 13 0 13 0 13 Z " fill="#6AA2E8" transform="translate(483,559)"/>
<path d="M0 0 C0.33 0 0.66 0 1 0 C1.84367991 3.66586044 2.12855491 7.05786526 2.1328125 10.81640625 C2.13474609 12.45706055 2.13474609 12.45706055 2.13671875 14.13085938 C2.13285156 15.26330078 2.12898437 16.39574219 2.125 17.5625 C2.12886719 18.69880859 2.13273438 19.83511719 2.13671875 21.00585938 C2.13542969 22.09833984 2.13414062 23.19082031 2.1328125 24.31640625 C2.13168457 25.31099854 2.13055664 26.30559082 2.12939453 27.33032227 C2.01167916 29.75903463 1.8988141 31.74068764 1 34 C-0.485 34.495 -0.485 34.495 -2 35 C-1.34 23.45 -0.68 11.9 0 0 Z " fill="#C9D0EC" transform="translate(834,661)"/>
<path d="M0 0 C1.23363281 0.00257813 2.46726562 0.00515625 3.73828125 0.0078125 C5.56939453 0.00394531 5.56939453 0.00394531 7.4375 0 C11.05078125 0.1328125 11.05078125 0.1328125 14.078125 0.66796875 C17.48915869 1.20136298 20.4921636 1.01064473 23.92578125 0.6953125 C25.07820312 0.59347656 26.230625 0.49164063 27.41796875 0.38671875 C28.72121094 0.26103516 28.72121094 0.26103516 30.05078125 0.1328125 C30.05078125 0.7928125 30.05078125 1.4528125 30.05078125 2.1328125 C28.32270807 2.47176906 26.59326151 2.80372775 24.86328125 3.1328125 C23.41888672 3.41125 23.41888672 3.41125 21.9453125 3.6953125 C19.24468683 4.10350423 16.77548879 4.28768042 14.05078125 4.1328125 C13.72078125 3.8028125 13.39078125 3.4728125 13.05078125 3.1328125 C7.68531495 2.6470966 3.07567269 3.07131858 -1.94921875 5.1328125 C-2.60921875 3.8128125 -3.26921875 2.4928125 -3.94921875 1.1328125 C-2.94921875 0.1328125 -2.94921875 0.1328125 0 0 Z " fill="#9BC4F4" transform="translate(732.94921875,415.8671875)"/>
<path d="M0 0 C4.35072317 1.36196552 6.31791374 3.14875361 9.0625 6.75 C10.08923828 8.09578125 10.08923828 8.09578125 11.13671875 9.46875 C11.75160156 10.3040625 12.36648438 11.139375 13 12 C13.43957031 12.5878125 13.87914062 13.175625 14.33203125 13.78125 C16.624645 17.0097997 18.07926984 20.14967386 19 24 C18.54296875 26.1796875 18.54296875 26.1796875 18 28 C17.48953125 26.89205078 17.48953125 26.89205078 16.96875 25.76171875 C12.69034978 16.80666297 8.05255227 8.03046692 0 2 C0 1.34 0 0.68 0 0 Z " fill="#A4ACD3" transform="translate(1193,944)"/>
<path d="M0 0 C0.33 0 0.66 0 1 0 C1 7.59 1 15.18 1 23 C0.01 23 -0.98 23 -2 23 C-3.231394 19.30581799 -2.64432764 16.7943739 -2 13 C-2.33 13 -2.66 13 -3 13 C-3.38281159 7.76824163 -2.21854707 4.62197306 0 0 Z " fill="#7FAAE9" transform="translate(362,534)"/>
<path d="M0 0 C-1.49549177 5.8324179 -4.55971229 10.16566206 -8 15 C-8.52335937 15.75410156 -9.04671875 16.50820313 -9.5859375 17.28515625 C-12.14624012 20.86568098 -13.86805198 23.23549859 -18 25 C-16.58242795 20.48954346 -14.30304996 18.30304996 -11 15 C-7.75820981 10.5355918 -5.67009347 6.26721787 -4 1 C-2 0 -2 0 0 0 Z " fill="#82B7F1" transform="translate(392,427)"/>
<path d="M0 0 C0.66 0.33 1.32 0.66 2 1 C-5.92 8.92 -13.84 16.84 -22 25 C-22 20.89669076 -19.86603161 19.26267147 -17.1875 16.4375 C-16.69918701 15.91317383 -16.21087402 15.38884766 -15.70776367 14.84863281 C-10.7450013 9.59329027 -5.43973757 4.75582472 0 0 Z " fill="#BFCAE4" transform="translate(1099,839)"/>
<path d="M0 0 C1.29560612 3.88681835 0.43927615 5.73830766 -0.75 9.625 C-1.09546875 10.79289062 -1.4409375 11.96078125 -1.796875 13.1640625 C-2.39242188 14.56785156 -2.39242188 14.56785156 -3 16 C-3.99 16.33 -4.98 16.66 -6 17 C-6 15.68 -6 14.36 -6 13 C-6.99 13.495 -6.99 13.495 -8 14 C-7.42137365 10.09427217 -5.47900791 7.98939189 -3 5 C-1.9731657 3.3497306 -0.96432076 1.68756133 0 0 Z " fill="#78AAEB" transform="translate(365,496)"/>
<path d="M0 0 C0.33 0 0.66 0 1 0 C1.33 6.27 1.66 12.54 2 19 C0.68 19.33 -0.64 19.66 -2 20 C-2.23668569 12.96517526 -1.7879537 6.8165735 0 0 Z " fill="#6FA1E7" transform="translate(478,619)"/>
<path d="M0 0 C0.33 0 0.66 0 1 0 C1.9595707 7.59088966 2.65522668 15.35939061 2 23 C1.34 23.66 0.68 24.32 0 25 C-0.22786458 23.01432292 -0.45572917 21.02864583 -0.68359375 19.04296875 C-0.97170735 16.80603607 -0.97170735 16.80603607 -2 14 C-1.75653872 11.59616968 -1.43482615 9.19976765 -1.0625 6.8125 C-0.86785156 5.54019531 -0.67320313 4.26789062 -0.47265625 2.95703125 C-0.31667969 1.98121094 -0.16070313 1.00539063 0 0 Z " fill="#78A4E6" transform="translate(1636,672)"/>
<path d="M0 0 C0.33 1.32 0.66 2.64 1 4 C0.01 4.495 0.01 4.495 -1 5 C-1.25948781 7.68923726 -1.42127314 10.30476284 -1.5 13 C-1.57872686 15.69523716 -1.74051219 18.31076274 -2 21 C-2.66 21.33 -3.32 21.66 -4 22 C-4.05791844 18.87507749 -4.09356746 15.75029234 -4.125 12.625 C-4.14175781 11.73554687 -4.15851563 10.84609375 -4.17578125 9.9296875 C-4.18222656 9.07890625 -4.18867187 8.228125 -4.1953125 7.3515625 C-4.20578613 6.56604004 -4.21625977 5.78051758 -4.22705078 4.97119141 C-4 3 -4 3 -2 1 C-1.34 0.67 -0.68 0.34 0 0 Z " fill="#80A9E8" transform="translate(1639,593)"/>
<path d="M0 0 C0.66 0 1.32 0 2 0 C1.68991116 1.60463449 1.37683713 3.20869231 1.0625 4.8125 C0.88847656 5.70582031 0.71445312 6.59914063 0.53515625 7.51953125 C0 10 0 10 -1 13 C-2.32 13 -3.64 13 -5 13 C-4.54803755 11.39402675 -4.08817673 9.79027492 -3.625 8.1875 C-3.36976563 7.29417969 -3.11453125 6.40085937 -2.8515625 5.48046875 C-2 3 -2 3 0 0 Z " fill="#BDC6E7" transform="translate(833,695)"/>
<path d="M0 0 C5.20833333 0.52083333 10.41666667 1.04166667 15.625 1.5625 C16.46289062 1.64628906 17.30078125 1.73007812 18.1640625 1.81640625 C18.76992187 1.87699219 19.37578125 1.93757813 20 2 C20 2.33 20 2.66 20 3 C12.74 3 5.48 3 -2 3 C-1.34 2.01 -0.68 1.02 0 0 Z " fill="#97CCF8" transform="translate(1298,328)"/>
<path d="M0 0 C2.46530388 2.92459337 3.51048618 5.18209855 4.1875 8.9375 C4.34605469 9.77152344 4.50460937 10.60554687 4.66796875 11.46484375 C5.00106758 14.00815129 5.05957734 16.43817447 5 19 C3.45246253 16.0865925 2.33730669 13.21672747 1.375 10.0625 C1.11460938 9.22847656 0.85421875 8.39445313 0.5859375 7.53515625 C-0.01494131 4.93535395 -0.10462243 2.65836091 0 0 Z " fill="#AFB6D9" transform="translate(1212,969)"/>
<path d="M0 0 C5.01009707 1.43145631 7.10619424 3.82951522 10 8 C9.67 8.99 9.34 9.98 9 11 C8.60167969 10.51789062 8.20335937 10.03578125 7.79296875 9.5390625 C7.26316406 8.90742187 6.73335937 8.27578125 6.1875 7.625 C5.66542969 6.99851562 5.14335938 6.37203125 4.60546875 5.7265625 C2.91774261 3.7778952 2.91774261 3.7778952 0 2 C0 1.34 0 0.68 0 0 Z " fill="#919BCA" transform="translate(1193,944)"/>
<path d="M0 0 C0.33 0 0.66 0 1 0 C1.17942163 3.94727588 1.09350689 6.5980513 -1 10 C-1.66 10 -2.32 10 -3 10 C-2.69201674 8.51988629 -2.378482 7.04092675 -2.0625 5.5625 C-1.88847656 4.73878906 -1.71445312 3.91507813 -1.53515625 3.06640625 C-1 1 -1 1 0 0 Z " fill="#5E9EE7" transform="translate(484,569)"/>
<path d="M0 0 C0.99 0.495 0.99 0.495 2 1 C1.01 1.495 1.01 1.495 0 2 C0 1.34 0 0.68 0 0 Z M-1 2 C-1 5.19633438 -1.33810135 6.34096216 -3 9 C-5.125 10.75 -5.125 10.75 -7 12 C-6.35389319 8.51102321 -4.98128683 5.93230451 -3 3 C-2.34 2.67 -1.68 2.34 -1 2 Z " fill="#78B2EF" transform="translate(376,454)"/>
<path d="M0 0 C0.99 0.33 1.98 0.66 3 1 C1 3 1 3 -1.8203125 3.1953125 C-2.91085937 3.17210937 -4.00140625 3.14890625 -5.125 3.125 C-6.22070312 3.10695313 -7.31640625 3.08890625 -8.4453125 3.0703125 C-9.28835938 3.04710937 -10.13140625 3.02390625 -11 3 C-11 2.67 -11 2.34 -11 2 C-10.06027344 1.90912109 -10.06027344 1.90912109 -9.1015625 1.81640625 C-7.87566406 1.69072266 -7.87566406 1.69072266 -6.625 1.5625 C-5.81289062 1.48128906 -5.00078125 1.40007812 -4.1640625 1.31640625 C-1.95727195 1.10909886 -1.95727195 1.10909886 0 0 Z " fill="#9BC5F4" transform="translate(1330,414)"/>
<path d="M0 0 C2.64 0 5.28 0 8 0 C8.33 0.66 8.66 1.32 9 2 C7.35 2.66 5.7 3.32 4 4 C2.66666667 2.66666667 1.33333333 1.33333333 0 0 Z " fill="#A2C7F5" transform="translate(954,416)"/>
</svg>
