<?xml version="1.0" encoding="UTF-8"?>
<svg version="1.1" xmlns="http://www.w3.org/2000/svg" width="2000" height="2000">
<path d="M0 0 C8.968781 0.00445027 17.93756037 0.00691603 26.90634239 0.00799593 C109.27894036 0.01821956 191.64701243 0.26096366 274.01676941 0.97813725 C288.88456227 1.10471077 303.75012892 1.15421883 318.61837959 1.12608647 C332.39456736 1.10183051 346.15883985 1.29790556 359.93103027 1.63057256 C364.07550937 1.72673816 368.22004204 1.82020321 372.36462402 1.91182256 C373.84330963 1.94504109 373.84330963 1.94504109 375.35186768 1.97893071 C380.61343331 2.09105585 385.86717191 2.14167709 391.13024902 2.10713506 C402.39445997 2.06948391 413.65045985 2.50076874 424.90710449 2.87520146 C428.82506944 3.00414226 432.74324113 3.12419355 436.66149902 3.24385381 C451.20743431 3.71012033 465.68429825 4.48100385 480.18688965 5.70210576 C484.33219965 6.05041929 488.46175812 6.29144356 492.61853027 6.44307256 C521.04208449 8.45317503 551.11124423 18.47942264 576.49353027 31.13057256 C577.85793201 31.80021353 579.22252085 32.46947337 580.58728027 33.13838506 C601.02755402 43.20873683 619.55207299 55.09283634 637.49353027 69.13057256 C638.44228027 69.87049443 639.39103027 70.61041631 640.36853027 71.37276006 C644.67387371 74.76834342 648.64694773 78.21426344 652.49353027 82.13057256 C653.44779524 83.07606305 654.40357522 84.02002647 655.36071777 84.96260381 C668.34277208 97.80382715 668.34277208 97.80382715 671.49353027 102.13057256 C671.49353027 102.79057256 671.49353027 103.45057256 671.49353027 104.13057256 C672.15353027 104.13057256 672.81353027 104.13057256 673.49353027 104.13057256 C675.39459727 106.42527943 677.17417758 108.72836232 678.93103027 111.13057256 C679.7269458 112.20794683 679.7269458 112.20794683 680.53894043 113.30708623 C688.5259635 124.18351144 696.42542108 135.04315934 702.49353027 147.13057256 C702.95106689 148.03525273 702.95106689 148.03525273 703.41784668 148.95820928 C705.14470367 152.37403511 706.8563201 155.7968819 708.55212402 159.22822881 C709.707634 161.56352181 710.88460705 163.87925988 712.09118652 166.18916631 C722.5997296 186.39359179 729.09165783 208.55537079 733.96276855 230.71870732 C734.29894075 232.24632698 734.64971392 233.77086762 735.02038574 235.29048467 C736.86899871 243.39777159 737.32202215 251.67067256 737.92614746 259.9433167 C738.11787451 262.55912569 738.32059763 265.1739126 738.52478027 267.78877568 C739.10756693 275.42768554 739.62735087 283.00855373 739.51501465 290.67476201 C739.47464457 295.2893373 739.73363479 299.89617028 739.93103027 304.50557256 C740.61021177 321.64884121 740.95004672 338.79918176 741.30151367 355.95173955 C741.42753329 362.0785531 741.56293556 368.20506247 741.70669556 374.33148503 C741.80389952 378.50645513 741.89634078 382.68152462 741.98815918 386.85661626 C742.03140016 388.78319254 742.07630543 390.7097327 742.12341309 392.63621831 C742.46308565 406.62093701 742.50394116 420.59713844 742.47912288 434.58498669 C742.45255627 451.70570353 742.49880812 468.82308256 742.70788574 485.94258428 C742.71873691 486.83985588 742.72958808 487.73712749 742.74076807 488.66158915 C742.78605846 492.39037863 742.83185917 496.11916145 742.87824529 499.84793746 C743.43235759 544.61122498 743.60611844 589.37229804 743.62634277 634.13838506 C743.62668228 634.88964451 743.62702179 635.64090396 743.62737158 636.41492885 C743.63607944 656.67351797 743.63200476 676.9320994 743.62332767 697.19068766 C743.61916107 706.95039717 743.61681517 716.71010604 743.61524638 726.46981628 C743.60176634 808.05235642 743.57563265 889.63469992 742.52799225 1002.93130803 C742.49383794 1006.10201084 742.46064295 1009.27272217 742.42779541 1012.44343877 C742.03815245 1050.00939945 741.59275964 1087.57750529 740.49353027 1125.13057256 C740.47290527 1125.83905339 740.45228027 1126.54753423 740.43103027 1127.27748418 C739.57199816 1156.52568201 739.57199816 1156.52568201 738.6439209 1169.05781865 C738.53850376 1170.5107269 738.44156915 1171.96426385 738.35095215 1173.41817021 C736.77408721 1198.14401123 730.62322231 1221.80428432 722.49353027 1245.13057256 C722.09134277 1246.30547246 722.09134277 1246.30547246 721.68103027 1247.50410771 C718.34383995 1257.19195384 714.13965305 1266.2537167 709.41345215 1275.33760381 C708.13653626 1277.8263698 706.94884658 1280.35649841 705.74353027 1282.88057256 C697.19834824 1299.92436888 686.57249456 1315.09823127 674.41931152 1329.72822881 C672.36035517 1332.21043191 672.36035517 1332.21043191 670.36853027 1335.44307256 C668.32288359 1338.37516614 666.11649269 1340.24676399 663.36071777 1342.48213506 C660.65783003 1344.8683665 658.43821318 1347.60203705 656.16931152 1350.39619756 C654.39993755 1352.22743776 652.82069693 1353.1368369 650.49353027 1354.13057256 C650.49353027 1354.79057256 650.49353027 1355.45057256 650.49353027 1356.13057256 C648.80078743 1357.69490042 647.03783175 1359.18385828 645.24353027 1360.63057256 C644.26899902 1361.42463506 643.29446777 1362.21869756 642.29040527 1363.03682256 C640.04458266 1364.7180529 638.04694998 1366.01193154 635.49353027 1367.13057256 C635.49353027 1367.79057256 635.49353027 1368.45057256 635.49353027 1369.13057256 C630.42583704 1373.81073631 624.1550654 1377.41727826 618.41540527 1381.20088506 C616.70857277 1382.3281247 615.00756189 1383.46445731 613.32165527 1384.62276006 C611.07048243 1386.16716934 608.79081557 1387.65547358 606.49353027 1389.13057256 C605.39911621 1389.83568974 604.30470215 1390.54080693 603.17712402 1391.26729131 C576.62089009 1407.85767004 545.19723006 1420.22671574 514.49353027 1426.13057256 C513.74474609 1426.27688115 512.99596191 1426.42318974 512.2244873 1426.57393193 C481.67833694 1432.27998765 449.47939054 1432.59147441 418.49353027 1433.13057256 C417.46552307 1433.14906255 416.43751587 1433.16755254 415.37835693 1433.18660283 C380.31191526 1433.81560302 345.24201806 1434.23830217 310.17257309 1434.65922856 C307.4133118 1434.69253206 304.65405829 1434.72642307 301.89480591 1434.76045537 C297.46903033 1434.81485801 293.04323331 1434.86707514 288.61741447 1434.91783261 C287.00979821 1434.9365249 285.40218852 1434.95579692 283.79458809 1434.97580457 C273.05235598 1435.1087241 262.31199125 1435.13634852 251.56896973 1435.12617803 C240.04892719 1435.11583305 228.53010885 1435.15278062 217.01037598 1435.23823857 C216.25481686 1435.24384002 215.49925775 1435.24944147 214.7208029 1435.25521266 C211.55527359 1435.27887245 208.38974694 1435.30285761 205.22422296 1435.32722038 C115.28270799 1436.01813468 25.34845748 1436.20708037 -136.46228027 1435.5370667 C-137.15439996 1435.53386972 -137.84651964 1435.53067274 -138.55961265 1435.52737889 C-153.58682277 1435.457876 -168.61401754 1435.38591792 -183.64118958 1435.30855107 C-188.28443297 1435.28490635 -192.92767757 1435.26150911 -197.57092285 1435.23823857 C-199.23039304 1435.22983734 -199.23039304 1435.22983734 -200.92338789 1435.22126639 C-214.65572312 1435.15274711 -228.38727107 1435.12177891 -242.11975098 1435.1398499 C-256.88729612 1435.15802652 -271.64749939 1434.99401101 -286.41271973 1434.72822881 C-288.8949348 1434.68558844 -291.37715333 1434.64314888 -293.859375 1434.60089421 C-298.98787046 1434.512913 -304.11632244 1434.4228091 -309.24475098 1434.33101201 C-315.72925812 1434.21507862 -322.21384081 1434.1042665 -328.69846344 1433.9950068 C-333.79853724 1433.90855918 -338.89856409 1433.81955331 -343.99858093 1433.72981381 C-346.38692477 1433.68804219 -348.77528095 1433.64696827 -351.16365051 1433.60669446 C-367.27630979 1433.33296957 -383.37441294 1432.86373231 -399.47755432 1432.24562192 C-403.17673537 1432.1051134 -406.87622752 1431.97442166 -410.57584381 1431.84593606 C-433.72814448 1430.93853692 -456.15752081 1428.33502805 -478.50646973 1422.13057256 C-479.31922363 1421.91110967 -480.13197754 1421.69164678 -480.96936035 1421.46553349 C-491.39109861 1418.64132198 -501.47781599 1415.12066684 -511.50646973 1411.13057256 C-512.60813477 1410.69986455 -512.60813477 1410.69986455 -513.73205566 1410.26045537 C-535.40793792 1401.73933719 -554.98221134 1390.01853046 -573.78869629 1376.36934209 C-575.46446162 1375.16086664 -577.15116391 1373.96960369 -578.84240723 1372.78291631 C-579.84529785 1372.07264287 -580.84818848 1371.36236943 -581.88146973 1370.63057256 C-582.7760791 1370.00151006 -583.67068848 1369.37244756 -584.59240723 1368.72432256 C-585.53986816 1367.93541631 -585.53986816 1367.93541631 -586.50646973 1367.13057256 C-586.50646973 1366.47057256 -586.50646973 1365.81057256 -586.50646973 1365.13057256 C-587.07881348 1364.87533818 -587.65115723 1364.62010381 -588.24084473 1364.35713506 C-602.5033803 1356.63569338 -615.73199971 1339.82807456 -625.50646973 1327.13057256 C-626.25541504 1326.21018193 -627.00436035 1325.28979131 -627.77600098 1324.34151006 C-640.35534141 1308.61225401 -650.59947096 1291.1566415 -659.50646973 1273.13057256 C-660.05561035 1272.03100224 -660.60475098 1270.93143193 -661.17053223 1269.79854131 C-673.82449928 1243.44174897 -682.22227288 1215.15626756 -685.50646973 1186.13057256 C-685.66405762 1184.74805303 -685.66405762 1184.74805303 -685.8248291 1183.33760381 C-686.61906406 1175.94961952 -687.1021583 1168.54894007 -687.50646973 1161.13057256 C-687.54794128 1160.36970342 -687.58941284 1159.60883428 -687.63214111 1158.82490849 C-689.31272206 1127.42289894 -689.93161081 1096.00830961 -690.30570412 1064.56698346 C-690.39877805 1056.95229361 -690.51769603 1049.33885299 -690.67998987 1041.7253018 C-691.80580291 988.67790517 -691.65472709 935.62322984 -691.64176941 882.56662074 C-691.63942558 872.7754369 -691.63918488 862.9842547 -691.64028549 853.19307065 C-691.64036188 852.48788555 -691.64043826 851.78270045 -691.64051696 851.05614611 C-691.64082851 848.1906085 -691.64114693 845.32507089 -691.64147673 842.45953328 C-691.64451307 815.75485144 -691.64180023 789.05017299 -691.63637983 762.34549167 C-691.63164988 738.86491459 -691.63205052 715.38434295 -691.63684082 691.90376592 C-691.64225597 665.27394264 -691.64428462 638.64412237 -691.64122856 612.01429862 C-691.64090805 609.14735528 -691.6405952 606.28041194 -691.64028549 603.4134686 C-691.64020641 602.70800995 -691.64012734 602.00255129 -691.64004586 601.27571511 C-691.63900421 591.52831352 -691.63987651 581.78091392 -691.64227183 572.03351259 C-691.65792162 507.39248111 -691.47251874 442.76512199 -690.50646973 378.13057256 C-690.4953268 377.38319905 -690.48418387 376.63582554 -690.47270328 375.86580434 C-689.60465447 317.77981538 -689.60465447 317.77981538 -688.62268066 293.07442021 C-688.51461333 290.33686588 -688.41988269 287.59913638 -688.32678223 284.86104131 C-686.72617533 242.33965557 -678.33942597 201.42988043 -659.50646973 163.13057256 C-658.67502441 161.39227178 -658.67502441 161.39227178 -657.82678223 159.61885381 C-648.3021451 140.02092534 -636.00186199 122.18624656 -622.50646973 105.13057256 C-621.79361816 104.18568974 -621.0807666 103.24080693 -620.34631348 102.26729131 C-619.73916504 101.56217412 -619.1320166 100.85705693 -618.50646973 100.13057256 C-617.84646973 100.13057256 -617.18646973 100.13057256 -616.50646973 100.13057256 C-616.27959473 99.59432256 -616.05271973 99.05807256 -615.81896973 98.50557256 C-614.05076883 95.30597094 -611.9697677 92.84020033 -609.50646973 90.13057256 C-608.84646973 90.13057256 -608.18646973 90.13057256 -607.50646973 90.13057256 C-607.29893066 89.58787724 -607.0913916 89.04518193 -606.87756348 88.48604131 C-604.98167032 85.22899409 -602.3438719 82.93590284 -599.56896973 80.44307256 C-598.98268799 79.91125371 -598.39640625 79.37943486 -597.7923584 78.83150029 C-580.06215075 62.86013693 -560.17092012 47.88219172 -538.54016113 37.58784795 C-535.6558466 36.2023278 -532.80853111 34.75900948 -529.95959473 33.30244756 C-523.58942685 30.11442445 -517.10411515 27.31143531 -510.50646973 24.63057256 C-509.33455078 24.15426396 -508.16263184 23.67795537 -506.9552002 23.18721318 C-496.96466167 19.19372184 -486.90772277 15.86553387 -476.50646973 13.13057256 C-475.3798291 12.82764287 -474.25318848 12.52471318 -473.09240723 12.21260381 C-466.79085517 10.64120412 -460.41924962 9.56615842 -454.00646973 8.56807256 C-453.27879395 8.4531043 -452.55111816 8.33813603 -451.8013916 8.21968389 C-429.99414828 5.00398522 -408.01010097 4.39848607 -386.01690674 3.60255742 C-382.5222967 3.47395474 -379.02802948 3.3370966 -375.53372765 3.20041585 C-358.0818122 2.52121517 -340.66897117 2.00959749 -323.20129395 2.11348271 C-315.5435506 2.15211539 -307.88943457 2.03612334 -300.23303223 1.91182256 C-299.53464108 1.90071069 -298.83624992 1.88959882 -298.1166954 1.87815022 C-292.40527056 1.78709666 -286.69393408 1.69098075 -280.98260498 1.59413457 C-276.68935787 1.52148356 -272.39608497 1.4509141 -268.10276413 1.38275456 C-266.17338714 1.35140032 -264.24405505 1.31731621 -262.31472778 1.28303838 C-255.02712214 1.16650703 -247.74321357 1.12640266 -240.45465279 1.14092755 C-226.44637803 1.16803079 -212.4425393 1.06885845 -198.43518066 0.91621709 C-196.38448162 0.89409519 -194.33378238 0.87199123 -192.28308296 0.8499043 C-190.71890882 0.83303982 -190.71890882 0.83303982 -189.12313521 0.81583464 C-187.53135107 0.79867901 -187.53135107 0.79867901 -185.90740967 0.78117681 C-184.82781491 0.76952162 -183.74822015 0.75786644 -182.63591039 0.74585807 C-121.75697294 0.09257766 -60.88197505 -0.030366 0 0 Z " fill="#D4D4D5" transform="translate(974.5064697265625,281.86942744255066)"/>
<path d="M0 0 C1.19197998 0.12906738 2.38395996 0.25813477 3.61206055 0.39111328 C24.50390683 2.87147442 45.57525514 8.60212768 64.5 17.875 C65.38292725 18.29821533 65.38292725 18.29821533 66.28369141 18.72998047 C93.70385588 31.87968615 117.85524747 49.56262814 139.93554688 70.40771484 C142.59760894 72.9044366 145.30113306 75.3557102 148 77.8125 C153.68797082 82.99261628 159.04886394 88.4003753 164.25 94.0625 C165.03661011 94.91787354 165.03661011 94.91787354 165.83911133 95.79052734 C167.394332 97.48390033 168.94733728 99.17928182 170.5 100.875 C171.31339844 101.76058594 172.12679688 102.64617187 172.96484375 103.55859375 C179.22074317 110.43018801 185.05928569 117.6078396 190.890625 124.83984375 C191.66921875 125.80019531 192.4478125 126.76054688 193.25 127.75 C194.29414062 129.04550781 194.29414062 129.04550781 195.359375 130.3671875 C197.61649621 133.01147914 200.0122435 135.44813264 202.5 137.875 C203.23863281 136.87082031 203.97726562 135.86664062 204.73828125 134.83203125 C210.58003651 126.93886891 216.57326251 119.26878902 222.98046875 111.828125 C225.24000715 109.1797358 227.41392262 106.48846736 229.5625 103.75 C233.1519463 99.21905959 236.98676811 94.95420254 240.91015625 90.7109375 C242.86086813 88.57486386 244.75399367 86.41693747 246.63671875 84.22265625 C250.8361912 79.41030008 255.3077181 74.88120543 259.82324219 70.36645508 C261.23919947 68.94831716 262.64698289 67.52203335 264.0546875 66.09570312 C270.22545626 59.91204278 276.6795739 54.32477741 283.5 48.875 C285.29406393 47.31525313 287.08627067 45.75336176 288.875 44.1875 C314.54161291 22.76523584 345.78915691 6.10888452 379.09765625 1.41796875 C382.32671309 1.24389897 382.32671309 1.24389897 383.5 -0.125 C388.24194736 -0.41991946 392.99971907 -0.37042395 397.75 -0.375 C398.46274078 -0.37600708 399.17548157 -0.37701416 399.90982056 -0.37805176 C410.39395968 -0.36808626 420.74927349 0.08145269 431.1875 1.125 C432.33573242 1.23424805 433.48396484 1.34349609 434.66699219 1.45605469 C442.63590463 2.34252349 449.91980547 4.29934761 457.5 6.875 C458.91136098 7.33493426 460.32280294 7.79462021 461.734375 8.25390625 C462.89453125 8.64449219 464.0546875 9.03507813 465.25 9.4375 C466.42046875 9.83066406 467.5909375 10.22382812 468.796875 10.62890625 C470.62992188 11.24572266 470.62992188 11.24572266 472.5 11.875 C473.1180249 12.04837891 473.7360498 12.22175781 474.37280273 12.40039062 C482.7533293 14.87343129 490.37265169 19.18106699 498.0625 23.25 C498.82356049 23.65105957 499.58462097 24.05211914 500.3687439 24.46533203 C511.14977522 30.17858325 520.89361286 36.15651733 529.90576172 44.45507812 C532.59625741 46.85139098 535.4904088 48.97034088 538.375 51.125 C548.79398433 59.07542389 557.68017167 68.10365097 566.5703125 77.69140625 C569.16913533 80.49290743 571.83604878 83.19059919 574.578125 85.8515625 C578.57192017 89.81960065 581.86053437 94.11195179 585.125 98.6875 C586.34056027 100.37021482 587.55672361 102.05249413 588.7734375 103.734375 C589.38799805 104.58708984 590.00255859 105.43980469 590.63574219 106.31835938 C592.44845388 108.80430972 594.2973712 111.25752944 596.1640625 113.703125 C602.8830936 122.54170418 608.76687005 131.40589984 613.96484375 141.21484375 C615.67923475 144.43263421 617.50203739 147.54158141 619.44140625 150.62890625 C626.64593798 162.15884569 632.52074344 174.0177885 638 186.4375 C638.33920471 187.20568054 638.67840942 187.97386108 639.02789307 188.76531982 C645.69231947 203.9220578 651.39514136 219.27579413 656.5625 235 C657.59295705 238.12829933 658.6257931 241.2558027 659.66015625 244.3828125 C659.90629669 245.12949692 660.15243713 245.87618134 660.40603638 246.64549255 C661.78033439 250.7917185 663.23270059 254.89376211 664.77734375 258.98046875 C666.37886587 263.31725357 667.34509767 267.49609553 668 272.0625 C668.89144302 277.62010938 669.96717586 283.04327363 671.375 288.5 C675.55803742 304.73954868 678.88207696 320.9127566 680.82421875 337.578125 C681.37542849 342.20254328 682.1812363 346.75233749 683.03833008 351.32861328 C688.78701702 383.03607219 688.006869 416.76664458 687.5 448.875 C687.48598145 449.89674316 687.47196289 450.91848633 687.45751953 451.97119141 C686.89923631 483.11418646 681.36019173 515.41798535 671.20410156 544.82324219 C670.43622141 547.06085135 669.70564482 549.30933405 668.97265625 551.55859375 C667.8640847 554.88645611 666.61877807 558.0719621 665.125 561.25 C664.74601562 562.06210938 664.36703125 562.87421875 663.9765625 563.7109375 C663.48929688 564.75507812 663.00203125 565.79921875 662.5 566.875 C662.14848877 567.67993896 661.79697754 568.48487793 661.43481445 569.31420898 C658.52965745 575.90531664 655.24068638 582.07276508 651.4375 588.1875 C650.87385742 589.09540283 650.31021484 590.00330566 649.72949219 590.9387207 C645.03996495 598.32976649 639.82224398 604.94915275 633.88574219 611.36572266 C632.50323947 612.87147174 631.15808869 614.40368563 629.8203125 615.94921875 C625.31861512 621.10531623 625.31861512 621.10531623 623.5 622.875 C622.84 622.875 622.18 622.875 621.5 622.875 C621.5 623.535 621.5 624.195 621.5 624.875 C605.51601428 639.65953492 582.79774779 652.85308788 561.5 657.875 C560.49259766 658.11428223 560.49259766 658.11428223 559.46484375 658.35839844 C556.38260082 659.08930767 553.30039726 659.81868134 550.2109375 660.51855469 C546.24997917 661.38312924 546.24997917 661.38312924 542.5 662.875 C494.49335648 667.47027315 445.02716029 658.57797823 406.6875 627.90625 C403.55299959 625.30735011 400.52346537 622.60179055 397.5 619.875 C396.16731189 618.74923574 394.83405626 617.62414264 393.5 616.5 C388.04376355 611.70830517 382.99941206 606.46099618 377.90429688 601.29199219 C376.7342873 600.11140534 375.54870749 598.94627465 374.359375 597.78515625 C372.25677568 595.625133 370.3865835 593.35108322 368.5 591 C364.32766203 585.84512142 360.03424284 580.80928129 355.66210938 575.82275391 C352.6344317 572.33324422 350.03004482 568.75159674 347.5 564.875 C345.66174476 562.49871883 343.78086351 560.16312552 341.890625 557.828125 C340.5 555.875 340.5 555.875 340.5 553.875 C339.84 553.875 339.18 553.875 338.5 553.875 C337.33007812 552.44482422 337.33007812 552.44482422 336.03125 550.4296875 C335.54712646 549.6886377 335.06300293 548.94758789 334.56420898 548.18408203 C333.78992554 546.97921143 333.78992554 546.97921143 333 545.75 C331.91984588 544.09772966 330.83778771 542.44670262 329.75390625 540.796875 C329.21008301 539.96865234 328.66625977 539.14042969 328.10595703 538.28710938 C325.7881981 534.80589042 323.37958869 531.39476151 320.9375 528 C320.33035156 527.15477783 320.33035156 527.15477783 319.7109375 526.29248047 C318.1173999 524.08381034 316.51142731 521.88986634 314.8515625 519.73046875 C313.51592134 517.89685733 312.48113391 516.07437222 311.4375 514.0625 C309.2005034 509.96575179 306.68513605 506.10611089 304.0625 502.25 C298.89523896 494.63976168 294.13596311 486.79815162 289.41040039 478.90771484 C286.96535553 474.84229142 284.53033641 470.82133352 281.7421875 466.98046875 C279.89156288 464.41732142 278.37772092 461.98713738 276.9375 459.1875 C274.02325602 453.727048 270.8802501 448.4253141 267.6875 443.125 C267.17082764 442.26640381 266.65415527 441.40780762 266.12182617 440.52319336 C263.6661143 436.44900514 261.20046763 432.38109547 258.72265625 428.3203125 C258.09290894 427.28342285 258.09290894 427.28342285 257.45043945 426.22558594 C256.66769787 424.9374133 255.88124706 423.65148502 255.09057617 422.36816406 C252.5 418.09962171 252.5 418.09962171 252.5 415.875 C251.84 415.875 251.18 415.875 250.5 415.875 C250.17 414.225 249.84 412.575 249.5 410.875 C248.84 410.875 248.18 410.875 247.5 410.875 C247.19707031 410.2459375 246.89414063 409.616875 246.58203125 408.96875 C244.11725272 403.93301786 241.52686631 399.13687925 238.41796875 394.46875 C237.5 392.875 237.5 392.875 237.5 390.875 C236.84 390.875 236.18 390.875 235.5 390.875 C234.93732422 389.71484375 234.93732422 389.71484375 234.36328125 388.53125 C231.96155283 383.64309744 229.57613687 378.83314093 226.625 374.25 C224.5 370.875 224.5 370.875 224.5 368.875 C223.84 368.875 223.18 368.875 222.5 368.875 C219.5 363.125 219.5 363.125 219.5 360.875 C218.84 360.875 218.18 360.875 217.5 360.875 C215.96289063 358.65039063 215.96289063 358.65039063 214.15625 355.53125 C213.49133545 354.39365234 212.8264209 353.25605469 212.14135742 352.08398438 C211.79140717 351.47772217 211.44145691 350.87145996 211.0809021 350.24682617 C209.28388423 347.13488376 207.46219781 344.03740991 205.64453125 340.9375 C205.1078759 340.01982849 205.1078759 340.01982849 204.56037903 339.08361816 C201.66681119 334.14015737 198.71613558 329.23675712 195.6875 324.375 C195.10355469 323.42657227 195.10355469 323.42657227 194.5078125 322.45898438 C192.73717745 319.63168003 191.0102838 317.09228537 188.5 314.875 C185.43966125 320.20751601 182.42640216 325.56464589 179.4375 330.9375 C179.00373047 331.71416016 178.56996094 332.49082031 178.12304688 333.29101562 C176.31275275 336.54513643 174.54049038 339.79353022 172.8828125 343.12890625 C171.54130987 345.79296373 170.07670785 348.25974562 168.4375 350.75 C167.93089844 351.53117187 167.42429687 352.31234375 166.90234375 353.1171875 C166.20818359 353.98730469 166.20818359 353.98730469 165.5 354.875 C164.84 354.875 164.18 354.875 163.5 354.875 C163.355625 355.473125 163.21125 356.07125 163.0625 356.6875 C162.6127561 358.43650404 162.07107659 360.16177023 161.5 361.875 C160.84 361.875 160.18 361.875 159.5 361.875 C159.24347656 362.57496094 158.98695313 363.27492188 158.72265625 363.99609375 C156.91323526 368.25661537 154.45542341 372.08362628 152.05859375 376.03515625 C150.75330897 378.41345708 149.96266973 380.23207842 149.5 382.875 C148.84 382.875 148.18 382.875 147.5 382.875 C146.84 385.185 146.18 387.495 145.5 389.875 C144.84 389.875 144.18 389.875 143.5 389.875 C143.25765625 390.71417969 143.0153125 391.55335938 142.765625 392.41796875 C141.34211178 396.30626875 139.39925377 399.67344453 137.25 403.1875 C132.94374978 410.3627216 128.81486111 417.62301612 124.75 424.9375 C119.25191447 434.82128009 113.61394568 444.61405577 107.85449219 454.34790039 C107.29793945 455.29270264 106.74138672 456.23750488 106.16796875 457.2109375 C105.67578857 458.04157715 105.1836084 458.8722168 104.67651367 459.72802734 C103.37575244 461.95010443 103.37575244 461.95010443 102.5 464.875 C101.84 464.875 101.18 464.875 100.5 464.875 C100.17 466.525 99.84 468.175 99.5 469.875 C98.84 469.875 98.18 469.875 97.5 469.875 C97.14228516 470.87273437 97.14228516 470.87273437 96.77734375 471.890625 C95.16317242 475.66196106 93.15564754 479.10213993 91.0625 482.625 C90.39661865 483.74926392 90.39661865 483.74926392 89.71728516 484.89624023 C84.86166156 493.0323456 79.72707979 500.97388889 74.5 508.875 C73.8615918 509.84018555 73.22318359 510.80537109 72.56542969 511.79980469 C70.46356644 514.97289546 68.35787376 518.14339904 66.25 521.3125 C65.5885498 522.30709229 64.92709961 523.30168457 64.24560547 524.32641602 C61.13126871 528.99245877 57.98582631 533.62931852 54.75390625 538.21484375 C51.63231654 542.64746583 48.78746245 547.18267073 45.98046875 551.8203125 C45.49191406 552.49835937 45.00335937 553.17640625 44.5 553.875 C43.84 553.875 43.18 553.875 42.5 553.875 C42.0978125 554.7103125 42.0978125 554.7103125 41.6875 555.5625 C40.39100504 558.08725334 39.07523677 560.51214484 37.5 562.875 C36.84 562.875 36.18 562.875 35.5 562.875 C35.08041016 563.75865234 35.08041016 563.75865234 34.65234375 564.66015625 C31.07975768 571.52678778 25.48107809 577.30695608 20.46801758 583.15039062 C18.0773786 585.95182469 15.79779162 588.75101751 13.75 591.8125 C11.49782683 594.87795792 9.23122449 596.91324654 6.30859375 599.2890625 C4.39789982 600.96453061 2.82114623 602.74250002 1.1875 604.6875 C-5.12047622 612.07965963 -12.68607735 618.1056921 -20.30859375 624.08203125 C-22.1398457 625.5803283 -23.76120576 627.09013245 -25.375 628.8125 C-27.50169075 630.87664102 -28.59483196 631.55220355 -31.5 631.875 C-31.5 632.535 -31.5 633.195 -31.5 633.875 C-33.84381362 635.54002085 -36.17518694 637.06717041 -38.625 638.5625 C-39.35275635 639.00948242 -40.0805127 639.45646484 -40.83032227 639.91699219 C-72.32428636 659.01005801 -106.13067254 664.70183988 -142.5625 663.625 C-143.6673877 663.59881592 -144.77227539 663.57263184 -145.91064453 663.5456543 C-152.46609212 663.29594641 -158.42443458 662.37468944 -164.74389648 660.60253906 C-167.64798665 659.8359354 -170.53476209 659.34389404 -173.5 658.875 C-185.79312025 655.98921448 -198.19546547 651.52726726 -209.5 645.875 C-209.5 645.215 -209.5 644.555 -209.5 643.875 C-210.180625 643.7925 -210.86125 643.71 -211.5625 643.625 C-215.3746907 642.65167472 -218.14070329 640.91692545 -221.5 638.875 C-221.5 638.215 -221.5 637.555 -221.5 636.875 C-222.180625 636.83375 -222.86125 636.7925 -223.5625 636.75 C-226.9042965 635.75457125 -228.76044607 634.11609287 -231.30078125 631.78515625 C-233.45505525 629.91403727 -235.70975576 628.25662331 -238.02294922 626.58911133 C-245.49558717 621.13862313 -251.24688009 614.83027871 -257.03125 607.65087891 C-258.62469108 605.72423489 -260.28833171 603.87382003 -261.9609375 602.015625 C-265.62897568 597.8391657 -268.7341618 593.41327088 -271.75 588.75 C-272.30357178 587.89470703 -272.85714355 587.03941406 -273.42749023 586.15820312 C-281.16244477 573.95197863 -288.67520494 560.68284534 -292.62109375 546.703125 C-293.40862179 544.16903476 -294.34722224 541.82585432 -295.375 539.3828125 C-297.86339588 533.23333498 -299.48100387 526.93336188 -301.0625 520.5 C-301.36696045 519.2735376 -301.6714209 518.0470752 -301.98510742 516.78344727 C-304.3101055 507.17943123 -305.97364765 497.60881794 -307.22802734 487.81542969 C-307.57655365 485.32881652 -308.09381645 482.89088013 -308.625 480.4375 C-309.56359523 475.41507271 -309.81275215 470.41753741 -310.04296875 465.32421875 C-310.08537186 464.40030334 -310.12777496 463.47638794 -310.17146301 462.5244751 C-310.59181348 452.72471389 -310.69858043 442.93274586 -310.6875 433.125 C-310.68722809 432.20455902 -310.68695618 431.28411804 -310.68667603 430.33578491 C-310.6521924 404.67251836 -309.18178958 379.29422404 -305.5 353.875 C-305.32017578 352.59592773 -305.32017578 352.59592773 -305.13671875 351.29101562 C-303.73517418 341.33388858 -302.1231862 331.41271257 -300.4375 321.5 C-300.27515869 320.53054443 -300.11281738 319.56108887 -299.94555664 318.56225586 C-299.12364436 313.82071114 -298.07975282 309.43071871 -296.5 304.875 C-295.93938759 301.85002885 -295.50137423 298.82203369 -295.0625 295.77734375 C-294.5 292.875 -294.5 292.875 -293.53515625 290.51171875 C-292.44159431 287.7262308 -291.89342057 284.9915702 -291.36035156 282.05395508 C-289.03724453 269.39624084 -284.87856321 257.43878065 -280.67578125 245.30273438 C-279.16416581 240.89594851 -277.71642363 236.4694728 -276.26831055 232.04150391 C-272.29532728 219.93109652 -267.74199114 208.35225289 -262.27905273 196.8347168 C-260.7189274 193.5375447 -259.21109962 190.2314438 -257.80078125 186.8671875 C-252.22118057 173.64982272 -245.24856264 161.2713056 -238.16503906 148.81884766 C-236.82332962 146.44665815 -235.50529504 144.06612225 -234.2109375 141.66796875 C-229.26405425 132.62675022 -223.31213983 124.4605529 -217.19238281 116.19384766 C-215.53785516 113.9268679 -213.93058071 111.63361626 -212.3359375 109.32421875 C-205.12881615 98.94892262 -197.15973813 89.817313 -188.34228516 80.78222656 C-185.68796888 78.0343444 -183.12459627 75.20852809 -180.5625 72.375 C-173.69455262 64.88454922 -166.93945739 57.96752951 -158.76538086 51.87963867 C-155.73260713 49.61722997 -152.79965836 47.30281028 -149.953125 44.80859375 C-139.61621418 35.83649841 -128.42061461 29.5938253 -116.26953125 23.36352539 C-113.60771412 21.93289254 -111.08625336 20.37383417 -108.5390625 18.75 C-103.07018523 15.41684264 -97.36477022 13.61827986 -91.25 11.8125 C-89.16066824 11.17837866 -87.07212987 10.54163763 -84.984375 9.90234375 C-83.39326904 9.42196655 -83.39326904 9.42196655 -81.77001953 8.93188477 C-78.3849788 7.83782464 -75.10430938 6.56222487 -71.7890625 5.2734375 C-64.38666816 2.60029385 -57.15441549 1.57023054 -49.36914062 0.78881836 C-47.13149986 0.5631555 -44.89825706 0.31009282 -42.6640625 0.05273438 C-28.36279976 -1.53092692 -14.32884325 -1.55306441 0 0 Z " fill="#2784DE" transform="translate(808.5,660.125)"/>
<path d="M0 0 C2.07807958 0.76443642 4.16094684 1.51608264 6.25 2.25 C9.28801423 3.32557026 12.14300605 4.50597564 15 6 C15.33 5.01 15.66 4.02 16 3 C29.17436806 11.26293894 41.00187255 20.09233461 52.44140625 30.671875 C54.61870603 32.65305159 56.84540858 34.51521452 59.125 36.375 C63.35369832 40.04389101 66.46505099 44.40314984 69.73046875 48.92578125 C71.79509802 51.72244774 73.97047567 54.31625539 76.25 56.9375 C83.14771672 65.27274437 88.46129567 74.73603441 94 84 C94.72895579 85.19674306 95.45809163 86.39337648 96.1875 87.58984375 C107.48963584 106.63865187 116.13132812 126.94650524 122.94555664 147.97509766 C123.9557854 150.87316071 125.12383369 153.62899722 126.3671875 156.43359375 C129.29293315 163.3951647 131.2013499 170.50590071 133.0625 177.8125 C133.55073242 179.68905273 133.55073242 179.68905273 134.04882812 181.60351562 C134.70829773 184.1382295 135.36289438 186.67421603 136.01269531 189.21142578 C136.66253583 191.70505218 137.33325536 194.19334589 138.02636719 196.67529297 C140.6809089 206.21165183 142.50533925 215.74352309 144.125 225.5 C144.50258646 227.7529164 144.88230995 230.0054142 145.26657104 232.25720215 C145.61097194 234.27809299 145.94854035 236.30014483 146.28564453 238.32226562 C146.9372273 241.99078066 146.9372273 241.99078066 148.02294922 245.45483398 C149.10874824 249.39458601 149.61203191 253.26356275 150 257.31640625 C150.08066711 258.11300156 150.16133423 258.90959686 150.2444458 259.73033142 C150.5049119 262.34029421 150.7537479 264.9511597 151 267.5625 C151.08648804 268.46548828 151.17297607 269.36847656 151.26208496 270.29882812 C153.08848469 289.50597314 154.3725011 308.7162336 155 328 C155.02404907 328.72874329 155.04809814 329.45748657 155.07287598 330.20831299 C156.23096883 366.99061741 154.21368154 411.24541234 128 440 C119.51201614 448.04577342 110.32319137 453.97038358 99 457 C98.24976563 457.20625 97.49953125 457.4125 96.7265625 457.625 C81.24824729 461.14057948 65.6076368 459.95317118 51 454 C50.20464844 453.67773438 49.40929688 453.35546875 48.58984375 453.0234375 C37.92806634 448.14827089 29.38165843 439.98764885 21 432 C20.36320312 431.41605469 19.72640625 430.83210938 19.0703125 430.23046875 C12.98626301 424.48118754 8.06114585 417.63816956 3 411 C2.51337891 410.36352539 2.02675781 409.72705078 1.52539062 409.07128906 C-16.76395317 385.09219564 -33.25700384 359.93074748 -49.31689453 334.4230957 C-51.96762841 330.21362883 -54.62791209 326.01078538 -57.30859375 321.8203125 C-70.06720724 301.87277071 -82.45105836 281.70040924 -94.58642578 261.36816406 C-96.94930627 257.40962508 -99.31743048 253.4542382 -101.6875 249.5 C-102.17065674 248.69369141 -102.65381348 247.88738281 -103.15161133 247.05664062 C-106.11151062 242.12458425 -109.08815457 237.20294041 -112.078125 232.2890625 C-112.4325769 231.70652206 -112.78702881 231.12398163 -113.15222168 230.52378845 C-113.87979066 229.32813879 -114.60737051 228.13249574 -115.33496094 226.93685913 C-115.69879883 226.33894562 -116.06263672 225.7410321 -116.4375 225.125 C-116.80198242 224.52603912 -117.16646484 223.92707825 -117.54199219 223.30996704 C-122.31198109 215.46776622 -127.03477043 207.60001677 -131.6875 199.6875 C-144.37873138 178.11714957 -157.55303078 156.85589092 -171.19458008 135.87426758 C-173.79335257 131.87685182 -176.34840388 127.85614519 -178.875 123.8125 C-180.72694189 120.86278051 -182.60272921 118.20690531 -184.9375 115.625 C-187.31918036 112.59377045 -187.43638024 111.73161055 -187 108 C-185.85546875 105.88671875 -185.85546875 105.88671875 -184.1875 103.6875 C-181.39366149 99.90029669 -178.67325031 96.08683031 -176.03027344 92.19384766 C-170.89162083 84.62870828 -165.56178562 77.26122011 -160 70 C-159.16618945 68.89619366 -158.33287118 67.79201531 -157.5 66.6875 C-145.78314656 51.21034367 -145.78314656 51.21034367 -138.43359375 44.92578125 C-132.55159349 39.83710389 -127.19534868 34.20336025 -121.78979492 28.6184082 C-108.18375424 14.58799828 -91.67887403 3.16308027 -73 -3 C-71.91589844 -3.50144531 -70.83179688 -4.00289062 -69.71484375 -4.51953125 C-65.34088287 -6.26267654 -61.20069359 -7.01332254 -56.5625 -7.6875 C-55.75490234 -7.81705078 -54.94730469 -7.94660156 -54.11523438 -8.08007812 C-35.63687283 -10.89426856 -17.0008988 -7.29430455 0 0 Z " fill="#CCCDD5" transform="translate(1247,756)"/>
<path d="M0 0 C1.84336495 0.31943521 3.68684346 0.63827056 5.53149414 0.95019531 C12.79756628 2.20767065 19.2873091 3.8714608 26 7 C27.09183594 7.47050781 28.18367187 7.94101562 29.30859375 8.42578125 C43.37843955 14.58738376 56.87801305 22.13294946 67.8359375 33.00390625 C69.82850998 35.03329791 69.82850998 35.03329791 71.9765625 35.96484375 C74.89010463 37.45536241 76.74611904 39.63879137 79 42 C79.9765167 42.98180948 80.95577343 43.96089994 81.9375 44.9375 C88.0625 51.0625 88.0625 51.0625 89.56640625 52.56933594 C90.87066183 53.87092615 92.18480481 55.16258972 93.5 56.453125 C103.3437674 66.48146304 111.93196335 77.60645902 120.35742188 88.82519531 C122.02086649 91.02762763 123.70238424 93.21496653 125.390625 95.3984375 C130.47144089 101.9706335 135.52715557 108.56581962 140.375 115.3125 C141.46941406 116.82263672 141.46941406 116.82263672 142.5859375 118.36328125 C144 121 144 121 143.8203125 123.19140625 C142.73313213 125.5883801 141.40448505 127.776232 140 130 C139.67 130.66 139.34 131.32 139 132 C138.34 132 137.68 132 137 132 C135.72627683 134.5251979 134.50668735 137.05970865 133.3125 139.625 C131.29188271 143.65888688 128.80665988 147.18906167 126.1796875 150.84765625 C123.37263648 154.90731606 120.74881765 159.07032184 118.125 163.25 C117.60212402 164.08273437 117.07924805 164.91546875 116.54052734 165.7734375 C115.50345366 167.42553873 114.46650437 169.07771805 113.4296875 170.72998047 C111.51465948 173.77061068 109.57277322 176.79272472 107.625 179.8125 C104.41204177 184.79432513 101.2237348 189.79104173 98.04638672 194.7956543 C92.3799431 203.72041851 86.66752775 212.61210959 80.89111328 221.46606445 C76.33118435 228.46561729 71.84978812 235.51344908 67.37768555 242.56933594 C63.08099404 249.33512387 58.70889951 256.04868119 54.3125 262.75 C49.98430059 269.34966658 45.74846551 275.98276462 41.6875 282.75 C35.37878903 293.22484085 28.52080444 303.33716446 21.70100403 313.48245239 C18.72412602 317.9130799 15.76638271 322.35611129 12.81640625 326.8046875 C1.02521015 344.57891944 -10.83444103 362.20414728 -24 379 C-25.20852044 380.56235529 -26.41687146 382.12484165 -27.625 383.6875 C-28.74858376 385.12610724 -29.87360733 386.563591 -31 388 C-31.62390625 388.79921875 -32.2478125 389.5984375 -32.890625 390.421875 C-37.69346029 396.51050872 -42.68620442 402.35123737 -48 408 C-48.56750977 408.60682617 -49.13501953 409.21365234 -49.71972656 409.83886719 C-61.61083056 422.45812389 -73.72307652 432.58389446 -90 439 C-90.70511719 439.29390625 -91.41023437 439.5878125 -92.13671875 439.890625 C-108.72786804 446.54012295 -129.68485469 446.25047932 -146.12890625 439.3359375 C-154.60305157 435.49767715 -161.61189575 430.84679475 -168 424 C-168.76699219 423.19046875 -169.53398438 422.3809375 -170.32421875 421.546875 C-176.85678172 414.13812786 -180.99525029 405.93578362 -185 397 C-185.47308594 395.97519531 -185.94617188 394.95039062 -186.43359375 393.89453125 C-190.879035 383.41104519 -192.9282294 372.14828979 -195 361 C-195.20351074 359.91041992 -195.20351074 359.91041992 -195.41113281 358.79882812 C-198.05962358 343.74346373 -197.26796679 328.22518188 -197 313 C-196.9819632 311.97326172 -196.9819632 311.97326172 -196.96356201 310.92578125 C-196.87658583 306.22046717 -196.75836356 301.51673018 -196.625 296.8125 C-196.5789563 294.99842651 -196.5789563 294.99842651 -196.53198242 293.14770508 C-196.31164918 286.6020287 -195.66530157 280.34806763 -194.49072266 273.90698242 C-194.00772858 271.04578318 -193.68869822 268.21760505 -193.4296875 265.328125 C-192.15593234 251.14792256 -189.91074858 237.32485444 -187.125 223.375 C-186.87771149 222.11894958 -186.87771149 222.11894958 -186.62542725 220.83752441 C-184.47845204 210.00086704 -181.80792293 199.45971247 -178.57141113 188.89984131 C-177.72345953 186.08055168 -176.95543776 183.24145739 -176.19140625 180.3984375 C-173.44080356 170.20381538 -170.6193935 160.29599597 -166.4765625 150.5703125 C-164.46014304 145.69463157 -162.76421512 140.72144361 -161.09155273 135.71875 C-159.75889427 131.82019887 -158.17695021 128.48546745 -156 125 C-155.29788106 123.34795544 -154.63028587 121.68076231 -154 120 C-152.60464067 116.40589264 -150.98333735 113.30556226 -149 110 C-148.42771907 108.53260845 -147.8712079 107.0590371 -147.32421875 105.58203125 C-144.89288142 99.43661272 -141.67884577 93.86178309 -138.3125 88.1875 C-137.69109131 87.13232178 -137.06968262 86.07714355 -136.42944336 84.98999023 C-130.41134586 74.85732782 -123.94992952 65.26976272 -116.60546875 56.04296875 C-115.05207505 54.06626582 -113.58982937 52.04273466 -112.125 50 C-108.55635864 45.20343903 -104.28689097 41.14659272 -100 37 C-98.66437375 35.66896353 -97.33032016 34.33633971 -96 33 C-95.34 33.33 -94.68 33.66 -94 34 C-94.66 35.32 -95.32 36.64 -96 38 C-95.35417969 37.28457031 -94.70835937 36.56914063 -94.04296875 35.83203125 C-87.99179618 29.35459597 -81.58347838 23.98991487 -74.25 19 C-73.45875732 18.46093018 -72.66751465 17.92186035 -71.85229492 17.36645508 C-67.06163587 14.18052416 -62.21337287 11.42748085 -57 9 C-56.05374756 8.54729736 -56.05374756 8.54729736 -55.08837891 8.08544922 C-39.09394977 0.57420828 -17.58822266 -4.97132999 0 0 Z " fill="#CBCDD5" transform="translate(802,771)"/>
<path d="M0 0 C10.7358956 6.06891693 20.47173053 12.34079863 29.4621582 20.81152344 C32.74391361 23.89589981 36.13135607 26.72859174 39.6875 29.5 C45.3291556 34.04736895 49.59754929 39.27925536 54 45 C55.33218789 46.62593918 56.66549728 48.2509602 58 49.875 C62.63602541 55.72002812 66.92051068 61.7584403 71 68 C71.50273438 68.76876465 72.00546875 69.5375293 72.5234375 70.32958984 C80.18558637 82.1825492 86.90995106 94.37500131 93.0625 107.0625 C93.37592346 107.70459412 93.68934692 108.34668823 94.01226807 109.00823975 C99.24338038 119.77501188 103.28564571 130.74697923 107 142.125 C108.27169114 146.00491346 109.71709171 149.70976401 111.37109375 153.44140625 C114.29508298 160.40022184 116.20214259 167.5090127 118.0625 174.8125 C118.38798828 176.06353516 118.71347656 177.31457031 119.04882812 178.60351562 C119.70829773 181.1382295 120.36289438 183.67421603 121.01269531 186.21142578 C121.66253583 188.70505218 122.33325536 191.19334589 123.02636719 193.67529297 C125.6809089 203.21165183 127.50533925 212.74352309 129.125 222.5 C129.50258646 224.7529164 129.88230995 227.0054142 130.26657104 229.25720215 C130.61097194 231.27809299 130.94854035 233.30014483 131.28564453 235.32226562 C131.9372273 238.99078066 131.9372273 238.99078066 133.02294922 242.45483398 C134.10874824 246.39458601 134.61203191 250.26356275 135 254.31640625 C135.12100067 255.51129921 135.12100067 255.51129921 135.2444458 256.73033142 C135.5049119 259.34029421 135.7537479 261.9511597 136 264.5625 C136.08648804 265.46548828 136.17297607 266.36847656 136.26208496 267.29882812 C138.08848469 286.50597314 139.3725011 305.7162336 140 325 C140.03607361 326.09311493 140.03607361 326.09311493 140.07287598 327.20831299 C141.23096883 363.99061741 139.21368154 408.24541234 113 437 C104.51201614 445.04577342 95.32319137 450.97038358 84 454 C82.87464844 454.309375 82.87464844 454.309375 81.7265625 454.625 C66.50493399 458.0822784 50.32210179 457.24345256 36 451 C35.34 450.34 34.68 449.68 34 449 C36.663966 449.40984092 39.30696126 449.82412017 41.92114258 450.48754883 C48.06646992 452.04550907 53.92712382 452.3482017 60.25 452.3125 C61.77016724 452.30621582 61.77016724 452.30621582 63.32104492 452.29980469 C70.94183624 452.18512376 77.73429836 451.43583954 85 449 C85.88558594 448.70996094 86.77117187 448.41992188 87.68359375 448.12109375 C105.11352122 441.78052653 113.63254998 428.55511322 121.66015625 412.7265625 C154.32363477 342.38730697 130.97523765 231.88050426 102.97998047 144.51293945 C98.28196584 131.70920987 93.21081945 119.1009664 86.98681641 106.953125 C86.0186532 105.03691875 85.10284939 103.10360134 84.19921875 101.15625 C74.15668646 79.80399748 60.37635776 60.90356577 45.45361328 42.76757812 C44.31704413 41.38552225 43.18661949 39.99841273 42.05859375 38.609375 C36.73343727 32.25655674 29.45335265 23.72667632 22 20 C22 19.34 22 18.68 22 18 C21.42403076 17.72003174 20.84806152 17.44006348 20.25463867 17.15161133 C16.47038269 15.2187109 12.90882302 12.94607484 9.3125 10.6875 C8.52810547 10.21376953 7.74371094 9.74003906 6.93554688 9.25195312 C1.23137203 5.64801897 1.23137203 5.64801897 -0.01953125 2.14453125 C-0.01308594 1.43683594 -0.00664063 0.72914063 0 0 Z " fill="#89A4E3" transform="translate(1262,759)"/>
<path d="M0 0 C0.99 0.495 0.99 0.495 2 1 C1.34 1.66 0.68 2.32 0 3 C-0.10183594 3.76054688 -0.20367188 4.52109375 -0.30859375 5.3046875 C-1.26763077 9.04330639 -3.24310017 10.52665353 -6.0625 13.125 C-10.60639452 17.45321963 -14.40773588 21.9157049 -17.97949219 27.10205078 C-19.86594439 29.80772835 -21.81663531 32.45046675 -23.7890625 35.09375 C-27.98154195 40.85327199 -31.64853929 46.82172542 -35.1875 53 C-36.15079224 54.68125977 -36.15079224 54.68125977 -37.13354492 56.39648438 C-48.69618488 76.76750787 -58.11985594 97.95283985 -66 120 C-66.35400879 120.98500488 -66.70801758 121.97000977 -67.07275391 122.98486328 C-84.0530858 170.72262413 -94.31025531 222.26065637 -95 273 C-95.02580613 274.47493904 -95.05186649 275.94987364 -95.078125 277.42480469 C-95.63318481 305.36567249 -95.63318481 305.36567249 -92 333 C-91.85546387 333.73718262 -91.71092773 334.47436523 -91.56201172 335.23388672 C-88.36857766 351.3920265 -82.87115103 366.10404572 -74 380 C-73.32195313 381.06347656 -72.64390625 382.12695312 -71.9453125 383.22265625 C-63.12278564 396.00400926 -50.61111621 403.32810529 -35.4296875 406.4296875 C-29.87433281 407.2756939 -24.29682997 407.29409191 -18.6875 407.3125 C-17.67373291 407.31789795 -16.65996582 407.3232959 -15.61547852 407.32885742 C-10.14875237 407.27733103 -5.21660987 406.82738178 0.05151367 405.32885742 C2.31404674 404.9469965 3.83206959 405.30903461 6 406 C-11.58868069 413.03547228 -32.46194076 413.7647011 -50.12890625 406.3359375 C-58.60305157 402.49767715 -65.61189575 397.84679475 -72 391 C-72.76699219 390.19046875 -73.53398438 389.3809375 -74.32421875 388.546875 C-80.85678172 381.13812786 -84.99525029 372.93578362 -89 364 C-89.47308594 362.97519531 -89.94617188 361.95039062 -90.43359375 360.89453125 C-94.879035 350.41104519 -96.9282294 339.14828979 -99 328 C-99.20351074 326.91041992 -99.20351074 326.91041992 -99.41113281 325.79882812 C-102.05962358 310.74346373 -101.26796679 295.22518188 -101 280 C-100.9819632 278.97326172 -100.9819632 278.97326172 -100.96356201 277.92578125 C-100.87658583 273.22046717 -100.75836356 268.51673018 -100.625 263.8125 C-100.5789563 261.99842651 -100.5789563 261.99842651 -100.53198242 260.14770508 C-100.31164918 253.6020287 -99.66530157 247.34806763 -98.49072266 240.90698242 C-98.00772858 238.04578318 -97.68869822 235.21760505 -97.4296875 232.328125 C-96.15593234 218.14792256 -93.91074858 204.32485444 -91.125 190.375 C-90.87771149 189.11894958 -90.87771149 189.11894958 -90.62542725 187.83752441 C-88.47845204 177.00086704 -85.80792293 166.45971247 -82.57141113 155.89984131 C-81.72345953 153.08055168 -80.95543776 150.24145739 -80.19140625 147.3984375 C-77.44080356 137.20381538 -74.6193935 127.29599597 -70.4765625 117.5703125 C-68.46014304 112.69463157 -66.76421512 107.72144361 -65.09155273 102.71875 C-63.75889427 98.82019887 -62.17695021 95.48546745 -60 92 C-59.29788106 90.34795544 -58.63028587 88.68076231 -58 87 C-56.60464067 83.40589264 -54.98333735 80.30556226 -53 77 C-52.42771907 75.53260845 -51.8712079 74.0590371 -51.32421875 72.58203125 C-48.89288142 66.43661272 -45.67884577 60.86178309 -42.3125 55.1875 C-41.69109131 54.13232178 -41.06968262 53.07714355 -40.42944336 51.98999023 C-34.41134586 41.85732782 -27.94992952 32.26976272 -20.60546875 23.04296875 C-19.05207505 21.06626582 -17.58982937 19.04273466 -16.125 17 C-12.55635864 12.20343903 -8.28689097 8.14659272 -4 4 C-2.66437375 2.66896353 -1.33032016 1.33633971 0 0 Z " fill="#8CA7E4" transform="translate(706,804)"/>
<path d="M0 0 C1.48886719 0.67675781 1.48886719 0.67675781 3.0078125 1.3671875 C10.29524952 4.81520757 16.63667616 9.06466615 23 14 C19.05991841 14 16.64796822 12.22063759 13.375 10.25 C8.03404763 7.11883763 2.72783182 4.36433818 -3 2 C-3.92167969 1.57847656 -4.84335937 1.15695312 -5.79296875 0.72265625 C-12.81678352 -2.41216405 -19.38054025 -4.06678087 -27 -5 C-33.91485149 -5.91485149 -33.91485149 -5.91485149 -35 -7 C-60.36641601 -8.63654297 -86.20843519 -2.56028892 -106 14 C-107.84875024 15.29940731 -109.70309736 16.59088216 -111.5625 17.875 C-117.29363792 22.02057815 -122.15227536 26.86835223 -127 32 C-127.495 30.515 -127.495 30.515 -128 29 C-127.34 28.01 -126.68 27.02 -126 26 C-125.69320312 25.34128906 -125.38640625 24.68257812 -125.0703125 24.00390625 C-118.48560263 11.67559909 -98.11357526 2.52853734 -86 -3 C-85.07574219 -3.47179687 -84.15148437 -3.94359375 -83.19921875 -4.4296875 C-57.55874771 -16.68779105 -24.81802031 -11.74110309 0 0 Z " fill="#4F6BC2" transform="translate(833,778)"/>
<path d="M0 0 C1.8359375 1.37109375 1.8359375 1.37109375 2.609375 4.0234375 C2.72152344 5.18552734 2.72152344 5.18552734 2.8359375 6.37109375 C-0.46735445 5.06086381 -3.7458969 3.70408647 -7.015625 2.3125 C-19.38122484 -2.83597048 -30.83845244 -6.33865353 -44.1640625 -7.62890625 C-45.51958412 -7.79253135 -46.87505459 -7.95658089 -48.23046875 -8.12109375 C-61.10818363 -9.3743371 -74.35300744 -8.10520998 -86.1640625 -2.62890625 C-87.0921875 -2.34015625 -88.0203125 -2.05140625 -88.9765625 -1.75390625 C-93.58986672 -0.12568123 -97.83390345 2.10675557 -102.1640625 4.37109375 C-103.60652344 5.12326172 -103.60652344 5.12326172 -105.078125 5.890625 C-109.82761513 8.41899239 -113.97521766 10.98499057 -118.1640625 14.37109375 C-118.8947998 14.92667969 -119.62553711 15.48226562 -120.37841797 16.0546875 C-127.96638377 21.89733984 -134.58423694 28.56356422 -141.2890625 35.37109375 C-142.44744263 36.53953264 -143.60629393 37.70750463 -144.765625 38.875 C-147.57055217 41.70169064 -150.36907262 44.5345783 -153.1640625 47.37109375 C-153.1640625 44.37109375 -153.1640625 44.37109375 -151.87890625 42.828125 C-151.29238281 42.28542969 -150.70585938 41.74273438 -150.1015625 41.18359375 C-147.58502212 38.7821238 -145.26216849 36.35800697 -143.0390625 33.68359375 C-105.17174323 -10.14038249 -52.89376479 -22.21538121 0 0 Z " fill="#5367BC" transform="translate(1260.1640625,756.62890625)"/>
<path d="M0 0 C-3.02763945 2.49798149 -5.89177236 3.83358315 -9.5625 5.1875 C-16.19351109 7.87531275 -21.36820486 11.65477875 -27 16 C-28.85294524 17.29341824 -30.70711196 18.58508837 -32.5625 19.875 C-38.29363792 24.02057815 -43.15227536 28.86835223 -48 34 C-48.495 32.515 -48.495 32.515 -49 31 C-48.01 29.515 -48.01 29.515 -47 28 C-46.69320312 27.34128906 -46.38640625 26.68257812 -46.0703125 26.00390625 C-40.94417638 16.40643243 -26.85782429 9.90521619 -18 4 C-17.278125 4.04125 -16.55625 4.0825 -15.8125 4.125 C-12.8257419 3.9922552 -11.58545626 3.3925433 -9 2 C-5.83933558 0.29994565 -3.65991276 -0.4574891 0 0 Z " fill="#7789CB" transform="translate(754,776)"/>
<path d="M0 0 C-1 3 -1 3 -3.875 4.5625 C-20.26823503 10.79192931 -40.02989988 9.96186663 -56 3 C-56.66 2.34 -57.32 1.68 -58 1 C-55.336034 1.40984092 -52.69303874 1.82412017 -50.07885742 2.48754883 C-43.93324708 4.04558082 -38.0730668 4.34716997 -31.75 4.3125 C-30.23635864 4.30839111 -30.23635864 4.30839111 -28.69213867 4.30419922 C-20.57869913 4.19081568 -12.14325406 3.79178453 -4.85546875 -0.1640625 C-3 -1 -3 -1 0 0 Z " fill="#A6C2F2" transform="translate(1354,1207)"/>
<path d="M0 0 C-0.33 0.66 -0.66 1.32 -1 2 C-2.89801839 2.44061141 -4.79620999 2.88049126 -6.6953125 3.31640625 C-10.8209943 4.54012543 -14.33056571 6.79711219 -18 9 C-18.77085938 9.43183594 -19.54171875 9.86367188 -20.3359375 10.30859375 C-33.56292219 17.86381316 -44.24271158 27.81713304 -54.8125 38.625 C-56.00514062 39.83274144 -57.19849699 41.03977651 -58.39257812 42.24609375 C-61.26999416 45.15602599 -64.13769836 48.07520269 -67 51 C-67 48 -67 48 -65.71484375 46.45703125 C-65.12832031 45.91433594 -64.54179688 45.37164063 -63.9375 44.8125 C-61.42095962 42.41103005 -59.09810599 39.98691322 -56.875 37.3125 C-44.9116721 23.4673003 -19.54125399 -2.66471645 0 0 Z " fill="#6E82C3" transform="translate(1174,753)"/>
<path d="M0 0 C0.5878125 0.144375 1.175625 0.28875 1.78125 0.4375 C9.26348306 1.98554822 16.5633997 2.22207289 24.1875 2.25 C25.2084375 2.25902344 26.229375 2.26804687 27.28125 2.27734375 C32.79342505 2.2558956 37.74456222 1.8487613 43.0559082 0.33105469 C45.3171177 -0.05400121 46.8329686 0.30921148 49 1 C40.01686405 4.59325438 31.82239095 6.35579312 22.125 6.25 C20.81716553 6.24311157 20.81716553 6.24311157 19.48291016 6.23608398 C5.06703161 6.0335158 5.06703161 6.0335158 -1 3 C-0.67 2.01 -0.34 1.02 0 0 Z " fill="#A6C1F1" transform="translate(663,1209)"/>
<path d="M0 0 C0.92151855 -0.00193359 1.84303711 -0.00386719 2.79248047 -0.00585938 C3.75557129 -0.00134766 4.71866211 0.00316406 5.7109375 0.0078125 C6.69336426 0.00974609 7.67579102 0.01167969 8.68798828 0.01367188 C15.19314946 0.05250222 21.6304035 0.26795627 28.0859375 1.1328125 C24.35213012 3.62201742 22.91756209 3.19191921 18.5234375 2.7578125 C6.46347046 1.71344422 -3.75500487 2.15757722 -15.3671875 5.9296875 C-20.021555 7.4068221 -23.96371584 8.52362934 -28.9140625 8.1328125 C-26.01473425 5.23348425 -22.45130146 4.65415714 -18.6015625 3.5703125 C-17.84166016 3.34923828 -17.08175781 3.12816406 -16.29882812 2.90039062 C-10.84729611 1.33266074 -5.70977556 0.00780176 0 0 Z " fill="#4A68C4" transform="translate(1197.9140625,744.8671875)"/>
<path d="M0 0 C7.02838744 1.73410681 13.49204618 3.83715588 20 7 C20.93714844 7.43183594 21.87429688 7.86367188 22.83984375 8.30859375 C30.18510656 11.79688458 36.58031986 16.02095674 43 21 C39.05991841 21 36.64796822 19.22063759 33.375 17.25 C28.03611782 14.12005128 22.73326842 11.34809628 17 9 C15.49566406 8.3503125 15.49566406 8.3503125 13.9609375 7.6875 C7.16173549 4.76481783 7.16173549 4.76481783 0 3 C0 2.01 0 1.02 0 0 Z " fill="#5B72C0" transform="translate(813,771)"/>
<path d="M0 0 C-3.08591139 2.5482705 -6.085036 3.94908951 -9.8125 5.375 C-13.51840149 6.86096293 -16.71562093 8.3044851 -19.875 10.75 C-23.10133228 13.07295924 -25.08452211 13.71350162 -29 14 C-29.33 13.34 -29.66 12.68 -30 12 C-28.11417306 10.65255109 -26.21590092 9.32250775 -24.3125 8 C-22.72888672 6.88625 -22.72888672 6.88625 -21.11328125 5.75 C-17.86748136 3.92551022 -16.5914857 3.80940706 -13 4 C-10.91666667 3.16666667 -10.91666667 3.16666667 -9 2 C-5.83933558 0.29994565 -3.65991276 -0.4574891 0 0 Z " fill="#6A7FC9" transform="translate(754,776)"/>
<path d="M0 0 C0.99 0.33 1.98 0.66 3 1 C2.40719238 1.52134521 1.81438477 2.04269043 1.20361328 2.57983398 C-5.47688214 8.51581244 -11.83574271 14.71582674 -18.125 21.0625 C-19.09090681 22.03344096 -20.05705162 23.00414523 -21.0234375 23.97460938 C-23.35129387 26.31410502 -25.67676105 28.65592052 -28 31 C-28 28 -28 28 -26.71484375 26.45703125 C-26.12832031 25.91433594 -25.54179688 25.37164063 -24.9375 24.8125 C-22.42095962 22.41103005 -20.09810599 19.98691322 -17.875 17.3125 C-12.76923443 11.36358048 -6.80026023 6.25385891 -1 1 C-0.67 0.67 -0.34 0.34 0 0 Z " fill="#98A5D2" transform="translate(1135,773)"/>
<path d="M0 0 C1.41791408 0.45445964 2.83428046 0.91374944 4.25 1.375 C5.43335938 1.75785156 5.43335938 1.75785156 6.640625 2.1484375 C8.89626115 2.96255783 10.94895262 3.75472124 13 5 C13.75 7.625 13.75 7.625 14 10 C13.29488281 9.71382812 12.58976562 9.42765625 11.86328125 9.1328125 C8.98794768 7.99523169 6.09547814 6.92607644 3.1875 5.875 C1.72376953 5.34519531 1.72376953 5.34519531 0.23046875 4.8046875 C-0.50558594 4.53914062 -1.24164062 4.27359375 -2 4 C-1.01 3.67 -0.02 3.34 1 3 C0.67 2.01 0.34 1.02 0 0 Z " fill="#6579C5" transform="translate(1249,753)"/>
<path d="M0 0 C0 0.33 0 0.66 0 1 C-2.5395837 1.67561372 -5.08118835 2.34065828 -7.625 3 C-8.33785156 3.19078125 -9.05070312 3.3815625 -9.78515625 3.578125 C-13.95848544 4.65017287 -17.65178751 5.21946814 -22 5 C-16.25615265 -0.74384735 -7.58711501 -0.38290113 0 0 Z " fill="#576EBD" transform="translate(1191,748)"/>
<path d="M0 0 C1.258125 0.12375 2.51625 0.2475 3.8125 0.375 C4.87404297 0.47941406 4.87404297 0.47941406 5.95703125 0.5859375 C8 1 8 1 11 3 C11 3.66 11 4.32 11 5 C9.3745692 4.85904936 7.74965949 4.71207913 6.125 4.5625 C5.22007812 4.48128906 4.31515625 4.40007812 3.3828125 4.31640625 C1 4 1 4 -1 3 C-0.67 2.01 -0.34 1.02 0 0 Z " fill="#A1C0F2" transform="translate(663,1209)"/>
<path d="M0 0 C6.54034512 -0.60427102 10.91733264 3.31182758 16 7 C17.83960791 8.59143811 19.39186662 10.17005511 21 12 C17.42892597 10.66959987 14.29773358 9.07110473 11.0625 7.0625 C7.44088932 4.84839123 3.83455628 2.81636876 0 1 C0 0.67 0 0.34 0 0 Z " fill="#7A8CC9" transform="translate(835,781)"/>
<path d="M0 0 C-2.45837682 1.72960899 -4.91947523 3.45492477 -7.38671875 5.171875 C-8.89961764 6.23022579 -10.40612185 7.29810181 -11.89453125 8.390625 C-13.4375 9.5 -13.4375 9.5 -16 11 C-16.99 10.67 -17.98 10.34 -19 10 C-14.98470643 6.89241907 -10.92534339 3.86152086 -6.6875 1.0625 C-6.05199219 0.64097656 -5.41648437 0.21945312 -4.76171875 -0.21484375 C-3 -1 -3 -1 0 0 Z " fill="#7B91CF" transform="translate(1155,762)"/>
<path d="M0 0 C0 4.09455608 -1.64051458 5.33557943 -4.25 8.4375 C-5.03890625 9.38496094 -5.8278125 10.33242187 -6.640625 11.30859375 C-8.68309909 13.6385021 -10.77721881 15.8434944 -13 18 C-13 14.65580848 -12.52480606 13.93159679 -10.625 11.3125 C-9.96371094 10.37857422 -9.96371094 10.37857422 -9.2890625 9.42578125 C-8.86367187 8.95527344 -8.43828125 8.48476562 -8 8 C-7.34 8 -6.68 8 -6 8 C-5.7525 7.4225 -5.505 6.845 -5.25 6.25 C-3.83316683 3.6997003 -2.12372463 1.98214299 0 0 Z " fill="#898989" transform="translate(1653,1604)"/>
<path d="M0 0 C0.99 0.33 1.98 0.66 3 1 C-0.63 4.63 -4.26 8.26 -8 12 C-8.33 11.01 -8.66 10.02 -9 9 C-6.03 6.03 -3.06 3.06 0 0 Z " fill="#8090D0" transform="translate(714,798)"/>
<path d="M0 0 C-3.07150755 2.55227651 -5.98525624 3.88776704 -9.75 5.1875 C-10.73484375 5.53167969 -11.7196875 5.87585938 -12.734375 6.23046875 C-13.48203125 6.48441406 -14.2296875 6.73835937 -15 7 C-15 6.34 -15 5.68 -15 5 C-10.18831324 1.70055765 -5.88735194 -0.33642011 0 0 Z " fill="#6876BC" transform="translate(754,776)"/>
<path d="M0 0 C1.93742341 -0.02703381 3.87495479 -0.04641125 5.8125 -0.0625 C6.89144531 -0.07410156 7.97039063 -0.08570313 9.08203125 -0.09765625 C12 0 12 0 15 1 C15 1.66 15 2.32 15 3 C10.22432131 3.09746283 5.69356305 2.93871261 1 2 C0.67 1.34 0.34 0.68 0 0 Z " fill="#5A6AB7" transform="translate(798,770)"/>
<path d="M0 0 C3.4375 0.8125 3.4375 0.8125 7 2 C7.33 2.99 7.66 3.98 8 5 C0.25 4.25 0.25 4.25 -2 2 C-1.34 2 -0.68 2 0 2 C0 1.34 0 0.68 0 0 Z " fill="#5C70C1" transform="translate(1242,751)"/>
<path d="M0 0 C0 0.99 0 1.98 0 3 C-1.86328125 4.75390625 -1.86328125 4.75390625 -4.3125 6.5625 C-5.11300781 7.16191406 -5.91351562 7.76132812 -6.73828125 8.37890625 C-8.46878798 9.61925218 -10.22847297 10.81898198 -12 12 C-10.56394807 8.61181498 -8.79533421 6.6813402 -6 4.3125 C-5.29875 3.71050781 -4.5975 3.10851562 -3.875 2.48828125 C-2 1 -2 1 0 0 Z " fill="#6089D8" transform="translate(719,792)"/>
<path d="M0 0 C0.66 0.33 1.32 0.66 2 1 C-1.7559214 4.42931954 -6.23466745 5.56429083 -11 7 C-11.33 6.34 -11.66 5.68 -12 5 C-10.04578965 4.13644222 -8.08648653 3.28440066 -6.125 2.4375 C-5.03445313 1.96183594 -3.94390625 1.48617187 -2.8203125 0.99609375 C-1.88960937 0.66738281 -0.95890625 0.33867188 0 0 Z " fill="#5777CC" transform="translate(750,774)"/>
<path d="M0 0 C5.71241466 0.38728235 8.73688282 0.87010523 13 5 C7.28758534 4.61271765 4.26311718 4.12989477 0 0 Z " fill="#6B7DBF" transform="translate(824,776)"/>
<path d="M0 0 C-4.24265104 2.12132552 -6.32385165 3.11647866 -11.125 2.5625 C-12.03507812 2.46066406 -12.94515625 2.35882812 -13.8828125 2.25390625 C-14.58148437 2.17011719 -15.28015625 2.08632812 -16 2 C-16 1.67 -16 1.34 -16 1 C-10.63904667 -0.12862175 -5.44693314 -0.09688221 0 0 Z " fill="#6581BE" transform="translate(1357,1320)"/>
<path d="M0 0 C-8.42857143 3.42857143 -8.42857143 3.42857143 -13 3 C-13 2.34 -13 1.68 -13 1 C-11.58622218 0.63447197 -10.16879424 0.28304505 -8.75 -0.0625 C-7.96109375 -0.25972656 -7.1721875 -0.45695312 -6.359375 -0.66015625 C-3.89605178 -1.01497267 -2.34395868 -0.76877544 0 0 Z " fill="#AFC5F1" transform="translate(712,1210)"/>
<path d="M0 0 C2.64 0.33 5.28 0.66 8 1 C4.5647952 3.29013653 3.014669 3.17842973 -1 3 C-0.67 2.01 -0.34 1.02 0 0 Z " fill="#B0C8F4" transform="translate(663,1209)"/>
<path d="M0 0 C0.66 0.33 1.32 0.66 2 1 C0.35 2.65 -1.3 4.3 -3 6 C-3.99 5.67 -4.98 5.34 -6 5 C-5.195625 4.360625 -4.39125 3.72125 -3.5625 3.0625 C-1.7249496 1.59396498 -1.7249496 1.59396498 0 0 Z " fill="#6584D1" transform="translate(730,784)"/>
</svg>
