<?xml version="1.0" encoding="UTF-8"?>
<svg version="1.1" xmlns="http://www.w3.org/2000/svg" width="540" height="242">
<path d="M0 0 C4.29 0 8.58 0 13 0 C14.53175867 3.73462231 16.06229866 7.46971011 17.58984375 11.20605469 C18.10900286 12.47489505 18.6288482 13.74345488 19.14941406 15.01171875 C19.90092874 16.8429959 20.64970775 18.67539495 21.3984375 20.5078125 C22.07398682 22.15740967 22.07398682 22.15740967 22.76318359 23.84033203 C23.94757931 26.866082 25.00203441 29.90834333 26 33 C28.55739578 30.44260422 29.50306348 27.58651967 30.78515625 24.27734375 C31.04630722 23.61666397 31.30745819 22.95598419 31.57652283 22.27528381 C32.41011056 20.16459123 33.23673251 18.05126307 34.0625 15.9375 C34.89273253 13.82053899 35.7244497 11.70419271 36.55918884 9.58900452 C37.07843923 8.27244408 37.59492086 6.95478776 38.1084137 5.63597107 C39.88826809 1.11173191 39.88826809 1.11173191 41 0 C45.29 0 49.58 0 54 0 C54 16.5 54 33 54 50 C50.7 50 47.4 50 44 50 C43.67 39.44 43.34 28.88 43 18 C38.71 28.56 34.42 39.12 30 50 C27.69 50 25.38 50 23 50 C18.71 39.44 14.42 28.88 10 18 C9.67 28.56 9.34 39.12 9 50 C6.03 50 3.06 50 0 50 C0 33.5 0 17 0 0 Z " fill="#737373" transform="translate(185,96)"/>
<path d="M0 0 C13.2 0 26.4 0 40 0 C40 13.2 40 26.4 40 40 C26.8 40 13.6 40 0 40 C0 26.8 0 13.6 0 0 Z " fill="#00A4EF" transform="translate(80,122)"/>
<path d="M0 0 C13.2 0 26.4 0 40 0 C40 13.2 40 26.4 40 40 C26.8 40 13.6 40 0 40 C0 26.8 0 13.6 0 0 Z " fill="#FFB900" transform="translate(122,122)"/>
<path d="M0 0 C13.2 0 26.4 0 40 0 C40 13.2 40 26.4 40 40 C26.8 40 13.6 40 0 40 C0 26.8 0 13.6 0 0 Z " fill="#7EBA00" transform="translate(122,80)"/>
<path d="M0 0 C13.2 0 26.4 0 40 0 C40 13.2 40 26.4 40 40 C26.8 40 13.6 40 0 40 C0 26.8 0 13.6 0 0 Z " fill="#F24F21" transform="translate(80,80)"/>
<path d="M0 0 C0.91007812 0.00902344 1.82015625 0.01804687 2.7578125 0.02734375 C3.80582031 0.04474609 3.80582031 0.04474609 4.875 0.0625 C4.875 2.7025 4.875 5.3425 4.875 8.0625 C3.1734375 8.2790625 3.1734375 8.2790625 1.4375 8.5 C-1.93277201 8.67421478 -1.93277201 8.67421478 -3.125 10.0625 C-3.49260731 12.39067964 -3.82741581 14.7243385 -4.125 17.0625 C-0.495 17.0625 3.135 17.0625 6.875 17.0625 C6.875 14.4225 6.875 11.7825 6.875 9.0625 C11.825 7.5775 11.825 7.5775 16.875 6.0625 C16.545 9.6925 16.215 13.3225 15.875 17.0625 C18.845 17.0625 21.815 17.0625 24.875 17.0625 C24.875 19.7025 24.875 22.3425 24.875 25.0625 C21.905 25.0625 18.935 25.0625 15.875 25.0625 C16.205 31.6625 16.535 38.2625 16.875 45.0625 C19.515 45.0625 22.155 45.0625 24.875 45.0625 C24.875 47.7025 24.875 50.3425 24.875 53.0625 C14.99897541 54.65471311 14.99897541 54.65471311 10.875 52.0625 C8.31070594 49.79099827 7.00085577 48.02920994 6.5534668 44.59277344 C6.48130134 41.63577452 6.52664986 38.70617823 6.625 35.75 C6.64304687 34.72326172 6.66109375 33.69652344 6.6796875 32.63867188 C6.72667899 30.11287929 6.79841831 27.58756863 6.875 25.0625 C3.245 25.0625 -0.385 25.0625 -4.125 25.0625 C-4.125 34.3025 -4.125 43.5425 -4.125 53.0625 C-7.095 53.0625 -10.065 53.0625 -13.125 53.0625 C-14.125 52.0625 -14.125 52.0625 -14.23852539 49.56225586 C-14.23328857 48.47823486 -14.22805176 47.39421387 -14.22265625 46.27734375 C-14.21943359 45.10751953 -14.21621094 43.93769531 -14.21289062 42.73242188 C-14.20451172 41.50072266 -14.19613281 40.26902344 -14.1875 39 C-14.18298828 37.76443359 -14.17847656 36.52886719 -14.17382812 35.25585938 C-14.16199608 32.19135883 -14.14551173 29.12695279 -14.125 26.0625 C-15.775 25.7325 -17.425 25.4025 -19.125 25.0625 C-19.125 22.4225 -19.125 19.7825 -19.125 17.0625 C-17.145 17.0625 -15.165 17.0625 -13.125 17.0625 C-13.33125 16.36125 -13.5375 15.66 -13.75 14.9375 C-14.22343012 11.30786908 -13.64802851 9.38547129 -12.125 6.0625 C-8.05509066 1.483852 -6.04709941 -0.07752692 0 0 Z " fill="#737373" transform="translate(435.125,92.9375)"/>
<path d="M0 0 C3.58008518 2.7036671 5.30303801 6.11223903 6.69140625 10.27734375 C7.39838126 17.45140159 6.99385041 23.32984741 2.69140625 29.27734375 C-1.42007332 33.49994439 -5.857063 35.22803617 -11.76953125 35.3125 C-17.3001942 34.97202375 -21.03744958 34.04001837 -25.30859375 30.27734375 C-29.81941197 24.42547146 -31.08148332 19.64739785 -30.30859375 12.27734375 C-28.23918289 6.1725817 -25.83405484 1.74211118 -20.18359375 -1.53515625 C-13.32779105 -4.08956668 -6.34225704 -3.60035198 0 0 Z M-19.30859375 9.27734375 C-21.16387182 12.98789989 -20.75434652 17.22736146 -20.30859375 21.27734375 C-18.95881073 24.44555608 -18.95881073 24.44555608 -16.30859375 26.27734375 C-12.30055778 27.44331785 -10.25576664 27.70974876 -6.43359375 25.96484375 C-4.21900065 24.45009212 -4.21900065 24.45009212 -3.30859375 22.27734375 C-3.16043935 20.32284531 -3.08734526 18.36223845 -3.05859375 16.40234375 C-3.0328125 15.35304688 -3.00703125 14.30375 -2.98046875 13.22265625 C-3.34997362 9.90591017 -3.93216912 8.58925007 -6.30859375 6.27734375 C-11.64566083 4.13358459 -15.36521307 5.0949703 -19.30859375 9.27734375 Z " fill="#737373" transform="translate(409.30859375,111.72265625)"/>
<path d="M0 0 C5.17227332 3.48827736 8.37349053 6.60081888 9.6875 12.8125 C10.44166458 20.17907187 9.21534572 25.63463681 4.5 31.5625 C-0.52047658 35.57888126 -4.97891257 37.14819862 -11.4375 36.75 C-17.2268363 35.92422044 -20.67011087 33.58805582 -24.625 29.3125 C-27.98211535 24.33899577 -27.94337001 18.64804761 -27.3125 12.8125 C-25.31314052 6.44497471 -21.89361306 2.85885032 -16.125 -0.4375 C-10.64403903 -1.89908959 -5.34710019 -1.91688497 0 0 Z M-15.3125 8.8125 C-18.22691787 13.45049833 -17.95594696 18.52014877 -17.3125 23.8125 C-15.28941961 27.08055294 -14.02372568 27.60064554 -10.375 28.6875 C-7.00309462 28.82512879 -5.22046106 28.50881062 -2.3125 26.8125 C-0.38294235 23.77746661 -0.04077137 21.37599533 -0.0625 17.8125 C-0.05734375 16.966875 -0.0521875 16.12125 -0.046875 15.25 C-0.33104694 12.64230458 -0.93377286 11.03023903 -2.3125 8.8125 C-6.5318236 5.90262165 -11.0931764 5.90262165 -15.3125 8.8125 Z " fill="#737373" transform="translate(340.3125,110.1875)"/>
<path d="M0 0 C0 2.97 0 5.94 0 9 C-0.680625 8.835 -1.36125 8.67 -2.0625 8.5 C-5.4164822 7.92910941 -8.60389805 7.93340977 -12 8 C-12.33 9.32 -12.66 10.64 -13 12 C-12.13375 12.2475 -11.2675 12.495 -10.375 12.75 C-5.96803434 14.3822095 -2.59490171 16.61089206 0.9375 19.6875 C2.6813663 23.48297371 2.1837084 27.056726 1 31 C-2.12281544 34.47970864 -5.45027631 36.05571773 -10 37 C-18.46982055 36.76508972 -18.46982055 36.76508972 -22 35 C-22.4140625 32.71484375 -22.4140625 32.71484375 -22.625 29.9375 C-22.69976562 29.01839844 -22.77453125 28.09929687 -22.8515625 27.15234375 C-22.90054687 26.44207031 -22.94953125 25.73179687 -23 25 C-21.80375 25.495 -20.6075 25.99 -19.375 26.5 C-15.78898524 27.85911235 -12.86595201 28.2899464 -9 28 C-9 26.68 -9 25.36 -9 24 C-9.77085937 23.60167969 -10.54171875 23.20335937 -11.3359375 22.79296875 C-12.33882813 22.26316406 -13.34171875 21.73335937 -14.375 21.1875 C-15.37273437 20.66542969 -16.37046875 20.14335937 -17.3984375 19.60546875 C-20 18 -20 18 -22 15 C-22.72022276 10.52791917 -22.58211165 7.01330547 -20.3125 3.0625 C-14.39232168 -2.21765905 -7.36088615 -1.84022154 0 0 Z " fill="#737373" transform="translate(375,110)"/>
<path d="M0 0 C1.7421875 1.26953125 1.7421875 1.26953125 2.3515625 3.43359375 C2.39796875 4.24570313 2.444375 5.0578125 2.4921875 5.89453125 C2.54890625 6.71179688 2.605625 7.5290625 2.6640625 8.37109375 C2.68984375 8.99757813 2.715625 9.6240625 2.7421875 10.26953125 C1.9378125 9.91890625 1.1334375 9.56828125 0.3046875 9.20703125 C-3.99716417 8.07496502 -7.98799675 7.85439231 -12.2578125 9.26953125 C-15.10021274 12.11193149 -15.68926825 14.304502 -15.6953125 18.26953125 C-15.58260008 21.59699781 -15.44403503 22.97587265 -13.6328125 25.83203125 C-10.6198767 27.65565029 -8.80156316 28.2013822 -5.2578125 28.26953125 C-2.45831004 27.47111719 0.05705265 26.42691696 2.7421875 25.26953125 C2.4121875 28.56953125 2.0821875 31.86953125 1.7421875 35.26953125 C-4.13156256 37.44026497 -9.12311055 37.65871169 -15.2578125 36.26953125 C-20.99850549 33.39918476 -24.23201691 29.34691802 -26.2578125 23.26953125 C-26.86274846 17.26670516 -26.2458855 12.62745526 -23.2578125 7.26953125 C-17.14049897 -0.00511187 -9.23994373 -2.98939356 0 0 Z " fill="#737373" transform="translate(285.2578125,109.73046875)"/>
<path d="M0 0 C0 2.97 0 5.94 0 9 C-1.98567708 8.90234375 -3.97135417 8.8046875 -5.95703125 8.70703125 C-8.66263515 9.09502416 -9.34361564 9.84370547 -11 12 C-11.50479657 14.6068023 -11.50479657 14.6068023 -11.51171875 17.54296875 C-11.54716797 18.61611328 -11.58261719 19.68925781 -11.61914062 20.79492188 C-11.64169922 21.91447266 -11.66425781 23.03402344 -11.6875 24.1875 C-11.72166016 25.31865234 -11.75582031 26.44980469 -11.79101562 27.61523438 C-11.87356314 30.4100574 -11.94269182 33.20456398 -12 36 C-15.3 36 -18.6 36 -22 36 C-22 24.12 -22 12.24 -22 0 C-18.7 0 -15.4 0 -12 0 C-11.67 0.66 -11.34 1.32 -11 2 C-10.29875 1.484375 -9.5975 0.96875 -8.875 0.4375 C-5.39112465 -1.30443767 -3.7016431 -0.94693195 0 0 Z " fill="#737373" transform="translate(314,110)"/>
<path d="M0 0 C3.3 0 6.6 0 10 0 C10 11.88 10 23.76 10 36 C6.7 36 3.4 36 0 36 C0 24.12 0 12.24 0 0 Z " fill="#737373" transform="translate(245,110)"/>
<path d="M0 0 C2.9375 0.9375 2.9375 0.9375 4.375 3.3125 C4.9375 5.9375 4.9375 5.9375 3.9375 8.9375 C0.9375 10.9375 0.9375 10.9375 -2.125 10.75 C-5.0625 9.9375 -5.0625 9.9375 -7.0625 6.9375 C-6.875 4.375 -6.875 4.375 -6.0625 1.9375 C-3.0625 -0.0625 -3.0625 -0.0625 0 0 Z " fill="#737373" transform="translate(251.0625,95.0625)"/>
</svg>
