<?xml version="1.0" encoding="UTF-8"?>
<svg version="1.1" xmlns="http://www.w3.org/2000/svg" width="180" height="218">
<path d="M0 0 C59.4 0 118.8 0 180 0 C180 71.94 180 143.88 180 218 C120.6 218 61.2 218 0 218 C0 146.06 0 74.12 0 0 Z " fill="#FEFEFE" transform="translate(0,0)"/>
<path d="M0 0 C6.79502173 5.05702546 10.75502923 14.08624386 14.8293457 21.28295898 C15.8185539 23.01324252 16.8077697 24.74352175 17.79743958 26.47354126 C18.81955037 28.26190904 19.83936644 30.05156806 20.85864258 31.84155273 C24.08149458 37.49867837 27.32948481 43.1413182 30.5793457 48.78295898 C31.19567871 49.85570068 31.81201172 50.92844238 32.44702148 52.03369141 C35.38782237 57.13666258 38.36176632 62.21300659 41.4309082 67.23999023 C41.98431885 68.14765137 42.53772949 69.0553125 43.10791016 69.99047852 C44.1352075 71.66676887 45.16965059 73.33871181 46.21289062 75.00512695 C50.72878407 82.36324116 53.21424888 89.71009065 51.8918457 98.40795898 C49.33778324 104.6999412 44.81845421 109.00077724 39.0949707 112.50952148 C33.6280833 114.73892592 26.77429775 114.46673072 21.28637695 112.45092773 C11.10556351 106.37047633 5.94106359 93.16763974 0.2668457 83.22045898 C-3.7425458 76.20402386 -7.76419374 69.2234833 -12.1081543 62.40795898 C-13.52676904 64.80265599 -14.94327204 67.19855677 -16.3581543 69.59545898 C-16.80199463 70.34633789 -17.24583496 71.0972168 -17.703125 71.87084961 C-20.24577429 76.18863908 -22.74761874 80.5253559 -25.19799805 84.89624023 C-25.71394531 85.8131665 -26.22989258 86.73009277 -26.76147461 87.67480469 C-27.7578494 89.44985495 -28.74843091 91.22817413 -29.73217773 93.01025391 C-39.90709517 111.09996861 -39.90709517 111.09996861 -48.1081543 113.40795898 C-54.90605978 114.20553043 -61.18495254 114.12447773 -67.1081543 110.40795898 C-71.88733086 105.88341068 -75.5822727 101.4988286 -76.4440918 94.79467773 C-76.45698242 93.90393555 -76.46987305 93.01319336 -76.4831543 92.09545898 C-76.51151367 91.21245117 -76.53987305 90.32944336 -76.5690918 89.41967773 C-75.3668811 81.5645553 -69.83209442 74.38829877 -65.8581543 67.65795898 C-60.43580906 58.42473143 -55.09149891 49.15155593 -49.7956543 39.84545898 C-44.93004602 31.29934746 -40.02050166 22.78803336 -34.9050293 14.38842773 C-33.95124705 12.80639326 -33.00575821 11.21788241 -32.12963867 9.59155273 C-30.18601517 5.99867978 -28.45226382 3.39734892 -25.1081543 1.03295898 C-24.4481543 0.55084961 -23.7881543 0.06874023 -23.1081543 -0.42797852 C-16.43335121 -4.3129225 -6.53370881 -3.97352542 0 0 Z " fill="#5086EB" transform="translate(106.108154296875,58.592041015625)"/>
<path d="M0 0 C0.33 0 0.66 0 1 0 C0.99460205 0.79776855 0.9892041 1.59553711 0.98364258 2.41748047 C1.25575934 11.61273135 3.77413267 17.46195003 8.6875 25.125 C9.92201938 27.12671281 11.15510179 29.12931258 12.38671875 31.1328125 C13.28463135 32.5873584 13.28463135 32.5873584 14.20068359 34.07128906 C14.79445801 35.03776367 15.38823242 36.00423828 16 37 C16.61568848 37.99483398 17.23137695 38.98966797 17.86572266 40.01464844 C18.43210449 40.97661133 18.99848633 41.93857422 19.58203125 42.9296875 C20.09612549 43.78546387 20.61021973 44.64124023 21.13989258 45.52294922 C22 48 22 48 21.36889648 50.42553711 C19.78915975 53.39652406 18.19070607 56.34291821 16.515625 59.26171875 C16.17754822 59.85241653 15.83947144 60.44311432 15.4911499 61.05171204 C14.77653814 62.29893371 14.06038238 63.54527187 13.34277344 64.79077148 C12.2642953 66.66268763 11.19030475 68.53711587 10.1171875 70.41210938 C-5.93108171 98.40798813 -5.93108171 98.40798813 -14 101 C-20.78453631 101.82152889 -27.09169928 101.70716908 -33 98 C-37.77917657 93.47545169 -41.47411841 89.09086962 -42.3359375 82.38671875 C-42.34882812 81.49597656 -42.36171875 80.60523438 -42.375 79.6875 C-42.40335938 78.80449219 -42.43171875 77.92148438 -42.4609375 77.01171875 C-41.25871057 69.15649025 -35.7238161 61.98051806 -31.75 55.25 C-26.31549956 45.99148992 -20.94357577 36.70043503 -15.625 27.375 C-14.98401367 26.25125977 -14.34302734 25.12751953 -13.68261719 23.96972656 C-12.4329657 21.77784172 -11.1836105 19.58578793 -9.93457031 17.39355469 C-6.62782263 11.59297508 -3.31373944 5.79658737 0 0 Z " fill="#F0BE44" transform="translate(72,71)"/>
<path d="M0 0 C4.45679049 3.43140572 7.91003851 6.65832479 9 12.3125 C9.76841737 19.32430851 10.30475604 25.5656412 5.9375 31.4375 C1.74727768 35.9198693 -1.6527092 38.91977557 -7.86328125 39.6484375 C-13.85684384 39.84250055 -18.81233917 39.56750287 -24 36.3125 C-28.77917657 31.78795169 -32.47411841 27.40336962 -33.3359375 20.69921875 C-33.42711361 14.39894954 -32.98404802 9.38109442 -29 4.3125 C-21.09540705 -3.10615486 -9.7303236 -6.29324412 0 0 Z " fill="#5AA55C" transform="translate(63,132.6875)"/>
</svg>
