<?xml version="1.0" encoding="UTF-8"?>
<svg version="1.1" xmlns="http://www.w3.org/2000/svg" width="2000" height="2000">
<path d="M0 0 C8.968781 0.00445027 17.93756037 0.00691603 26.90634239 0.00799593 C109.27894036 0.01821956 191.64701243 0.26096366 274.01676941 0.97813725 C288.88456227 1.10471077 303.75012892 1.15421883 318.61837959 1.12608647 C332.39456736 1.10183051 346.15883985 1.29790556 359.93103027 1.63057256 C364.07550937 1.72673816 368.22004204 1.82020321 372.36462402 1.91182256 C373.84330963 1.94504109 373.84330963 1.94504109 375.35186768 1.97893071 C380.61343331 2.09105585 385.86717191 2.14167709 391.13024902 2.10713506 C402.39445997 2.06948391 413.65045985 2.50076874 424.90710449 2.87520146 C428.82506944 3.00414226 432.74324113 3.12419355 436.66149902 3.24385381 C451.20743431 3.71012033 465.68429825 4.48100385 480.18688965 5.70210576 C484.33219965 6.05041929 488.46175812 6.29144356 492.61853027 6.44307256 C521.04208449 8.45317503 551.11124423 18.47942264 576.49353027 31.13057256 C577.85793201 31.80021353 579.22252085 32.46947337 580.58728027 33.13838506 C601.02755402 43.20873683 619.55207299 55.09283634 637.49353027 69.13057256 C638.44228027 69.87049443 639.39103027 70.61041631 640.36853027 71.37276006 C644.67387371 74.76834342 648.64694773 78.21426344 652.49353027 82.13057256 C653.44779524 83.07606305 654.40357522 84.02002647 655.36071777 84.96260381 C668.34277208 97.80382715 668.34277208 97.80382715 671.49353027 102.13057256 C671.49353027 102.79057256 671.49353027 103.45057256 671.49353027 104.13057256 C672.15353027 104.13057256 672.81353027 104.13057256 673.49353027 104.13057256 C675.39459727 106.42527943 677.17417758 108.72836232 678.93103027 111.13057256 C679.7269458 112.20794683 679.7269458 112.20794683 680.53894043 113.30708623 C688.5259635 124.18351144 696.42542108 135.04315934 702.49353027 147.13057256 C702.95106689 148.03525273 702.95106689 148.03525273 703.41784668 148.95820928 C705.14470367 152.37403511 706.8563201 155.7968819 708.55212402 159.22822881 C709.707634 161.56352181 710.88460705 163.87925988 712.09118652 166.18916631 C722.5997296 186.39359179 729.09165783 208.55537079 733.96276855 230.71870732 C734.29894075 232.24632698 734.64971392 233.77086762 735.02038574 235.29048467 C736.86899871 243.39777159 737.32202215 251.67067256 737.92614746 259.9433167 C738.11787451 262.55912569 738.32059763 265.1739126 738.52478027 267.78877568 C739.10756693 275.42768554 739.62735087 283.00855373 739.51501465 290.67476201 C739.47464457 295.2893373 739.73363479 299.89617028 739.93103027 304.50557256 C740.61021177 321.64884121 740.95004672 338.79918176 741.30151367 355.95173955 C741.42753329 362.0785531 741.56293556 368.20506247 741.70669556 374.33148503 C741.80389952 378.50645513 741.89634078 382.68152462 741.98815918 386.85661626 C742.03140016 388.78319254 742.07630543 390.7097327 742.12341309 392.63621831 C742.46308565 406.62093701 742.50394116 420.59713844 742.47912288 434.58498669 C742.45255627 451.70570353 742.49880812 468.82308256 742.70788574 485.94258428 C742.71873691 486.83985588 742.72958808 487.73712749 742.74076807 488.66158915 C742.78605846 492.39037863 742.83185917 496.11916145 742.87824529 499.84793746 C743.43235759 544.61122498 743.60611844 589.37229804 743.62634277 634.13838506 C743.62668228 634.88964451 743.62702179 635.64090396 743.62737158 636.41492885 C743.63607944 656.67351797 743.63200476 676.9320994 743.62332767 697.19068766 C743.61916107 706.95039717 743.61681517 716.71010604 743.61524638 726.46981628 C743.60176634 808.05235642 743.57563265 889.63469992 742.52799225 1002.93130803 C742.49383794 1006.10201084 742.46064295 1009.27272217 742.42779541 1012.44343877 C742.03815245 1050.00939945 741.59275964 1087.57750529 740.49353027 1125.13057256 C740.47290527 1125.83905339 740.45228027 1126.54753423 740.43103027 1127.27748418 C739.57199816 1156.52568201 739.57199816 1156.52568201 738.6439209 1169.05781865 C738.53850376 1170.5107269 738.44156915 1171.96426385 738.35095215 1173.41817021 C736.77408721 1198.14401123 730.62322231 1221.80428432 722.49353027 1245.13057256 C722.09134277 1246.30547246 722.09134277 1246.30547246 721.68103027 1247.50410771 C718.34383995 1257.19195384 714.13965305 1266.2537167 709.41345215 1275.33760381 C708.13653626 1277.8263698 706.94884658 1280.35649841 705.74353027 1282.88057256 C697.19834824 1299.92436888 686.57249456 1315.09823127 674.41931152 1329.72822881 C672.36035517 1332.21043191 672.36035517 1332.21043191 670.36853027 1335.44307256 C668.32288359 1338.37516614 666.11649269 1340.24676399 663.36071777 1342.48213506 C660.65783003 1344.8683665 658.43821318 1347.60203705 656.16931152 1350.39619756 C654.39993755 1352.22743776 652.82069693 1353.1368369 650.49353027 1354.13057256 C650.49353027 1354.79057256 650.49353027 1355.45057256 650.49353027 1356.13057256 C648.80078743 1357.69490042 647.03783175 1359.18385828 645.24353027 1360.63057256 C644.26899902 1361.42463506 643.29446777 1362.21869756 642.29040527 1363.03682256 C640.04458266 1364.7180529 638.04694998 1366.01193154 635.49353027 1367.13057256 C635.49353027 1367.79057256 635.49353027 1368.45057256 635.49353027 1369.13057256 C630.42583704 1373.81073631 624.1550654 1377.41727826 618.41540527 1381.20088506 C616.70857277 1382.3281247 615.00756189 1383.46445731 613.32165527 1384.62276006 C611.07048243 1386.16716934 608.79081557 1387.65547358 606.49353027 1389.13057256 C605.39911621 1389.83568974 604.30470215 1390.54080693 603.17712402 1391.26729131 C576.62089009 1407.85767004 545.19723006 1420.22671574 514.49353027 1426.13057256 C513.74474609 1426.27688115 512.99596191 1426.42318974 512.2244873 1426.57393193 C481.67833694 1432.27998765 449.47939054 1432.59147441 418.49353027 1433.13057256 C417.46552307 1433.14906255 416.43751587 1433.16755254 415.37835693 1433.18660283 C380.31191526 1433.81560302 345.24201806 1434.23830217 310.17257309 1434.65922856 C307.4133118 1434.69253206 304.65405829 1434.72642307 301.89480591 1434.76045537 C297.46903033 1434.81485801 293.04323331 1434.86707514 288.61741447 1434.91783261 C287.00979821 1434.9365249 285.40218852 1434.95579692 283.79458809 1434.97580457 C273.05235598 1435.1087241 262.31199125 1435.13634852 251.56896973 1435.12617803 C240.04892719 1435.11583305 228.53010885 1435.15278062 217.01037598 1435.23823857 C216.25481686 1435.24384002 215.49925775 1435.24944147 214.7208029 1435.25521266 C211.55527359 1435.27887245 208.38974694 1435.30285761 205.22422296 1435.32722038 C115.28270799 1436.01813468 25.34845748 1436.20708037 -136.46228027 1435.5370667 C-137.15439996 1435.53386972 -137.84651964 1435.53067274 -138.55961265 1435.52737889 C-153.58682277 1435.457876 -168.61401754 1435.38591792 -183.64118958 1435.30855107 C-188.28443297 1435.28490635 -192.92767757 1435.26150911 -197.57092285 1435.23823857 C-199.23039304 1435.22983734 -199.23039304 1435.22983734 -200.92338789 1435.22126639 C-214.65572312 1435.15274711 -228.38727107 1435.12177891 -242.11975098 1435.1398499 C-256.88729612 1435.15802652 -271.64749939 1434.99401101 -286.41271973 1434.72822881 C-288.8949348 1434.68558844 -291.37715333 1434.64314888 -293.859375 1434.60089421 C-298.98787046 1434.512913 -304.11632244 1434.4228091 -309.24475098 1434.33101201 C-315.72925812 1434.21507862 -322.21384081 1434.1042665 -328.69846344 1433.9950068 C-333.79853724 1433.90855918 -338.89856409 1433.81955331 -343.99858093 1433.72981381 C-346.38692477 1433.68804219 -348.77528095 1433.64696827 -351.16365051 1433.60669446 C-367.27630979 1433.33296957 -383.37441294 1432.86373231 -399.47755432 1432.24562192 C-403.17673537 1432.1051134 -406.87622752 1431.97442166 -410.57584381 1431.84593606 C-433.72814448 1430.93853692 -456.15752081 1428.33502805 -478.50646973 1422.13057256 C-479.31922363 1421.91110967 -480.13197754 1421.69164678 -480.96936035 1421.46553349 C-491.39109861 1418.64132198 -501.47781599 1415.12066684 -511.50646973 1411.13057256 C-512.60813477 1410.69986455 -512.60813477 1410.69986455 -513.73205566 1410.26045537 C-535.40793792 1401.73933719 -554.98221134 1390.01853046 -573.78869629 1376.36934209 C-575.46446162 1375.16086664 -577.15116391 1373.96960369 -578.84240723 1372.78291631 C-579.84529785 1372.07264287 -580.84818848 1371.36236943 -581.88146973 1370.63057256 C-582.7760791 1370.00151006 -583.67068848 1369.37244756 -584.59240723 1368.72432256 C-585.53986816 1367.93541631 -585.53986816 1367.93541631 -586.50646973 1367.13057256 C-586.50646973 1366.47057256 -586.50646973 1365.81057256 -586.50646973 1365.13057256 C-587.07881348 1364.87533818 -587.65115723 1364.62010381 -588.24084473 1364.35713506 C-602.5033803 1356.63569338 -615.73199971 1339.82807456 -625.50646973 1327.13057256 C-626.25541504 1326.21018193 -627.00436035 1325.28979131 -627.77600098 1324.34151006 C-640.35534141 1308.61225401 -650.59947096 1291.1566415 -659.50646973 1273.13057256 C-660.05561035 1272.03100224 -660.60475098 1270.93143193 -661.17053223 1269.79854131 C-673.82449928 1243.44174897 -682.22227288 1215.15626756 -685.50646973 1186.13057256 C-685.66405762 1184.74805303 -685.66405762 1184.74805303 -685.8248291 1183.33760381 C-686.61906406 1175.94961952 -687.1021583 1168.54894007 -687.50646973 1161.13057256 C-687.54794128 1160.36970342 -687.58941284 1159.60883428 -687.63214111 1158.82490849 C-689.31272206 1127.42289894 -689.93161081 1096.00830961 -690.30570412 1064.56698346 C-690.39877805 1056.95229361 -690.51769603 1049.33885299 -690.67998987 1041.7253018 C-691.80580291 988.67790517 -691.65472709 935.62322984 -691.64176941 882.56662074 C-691.63942558 872.7754369 -691.63918488 862.9842547 -691.64028549 853.19307065 C-691.64036188 852.48788555 -691.64043826 851.78270045 -691.64051696 851.05614611 C-691.64082851 848.1906085 -691.64114693 845.32507089 -691.64147673 842.45953328 C-691.64451307 815.75485144 -691.64180023 789.05017299 -691.63637983 762.34549167 C-691.63164988 738.86491459 -691.63205052 715.38434295 -691.63684082 691.90376592 C-691.64225597 665.27394264 -691.64428462 638.64412237 -691.64122856 612.01429862 C-691.64090805 609.14735528 -691.6405952 606.28041194 -691.64028549 603.4134686 C-691.64020641 602.70800995 -691.64012734 602.00255129 -691.64004586 601.27571511 C-691.63900421 591.52831352 -691.63987651 581.78091392 -691.64227183 572.03351259 C-691.65792162 507.39248111 -691.47251874 442.76512199 -690.50646973 378.13057256 C-690.4953268 377.38319905 -690.48418387 376.63582554 -690.47270328 375.86580434 C-689.60465447 317.77981538 -689.60465447 317.77981538 -688.62268066 293.07442021 C-688.51461333 290.33686588 -688.41988269 287.59913638 -688.32678223 284.86104131 C-686.72617533 242.33965557 -678.33942597 201.42988043 -659.50646973 163.13057256 C-658.67502441 161.39227178 -658.67502441 161.39227178 -657.82678223 159.61885381 C-648.3021451 140.02092534 -636.00186199 122.18624656 -622.50646973 105.13057256 C-621.79361816 104.18568974 -621.0807666 103.24080693 -620.34631348 102.26729131 C-619.73916504 101.56217412 -619.1320166 100.85705693 -618.50646973 100.13057256 C-617.84646973 100.13057256 -617.18646973 100.13057256 -616.50646973 100.13057256 C-616.27959473 99.59432256 -616.05271973 99.05807256 -615.81896973 98.50557256 C-614.05076883 95.30597094 -611.9697677 92.84020033 -609.50646973 90.13057256 C-608.84646973 90.13057256 -608.18646973 90.13057256 -607.50646973 90.13057256 C-607.29893066 89.58787724 -607.0913916 89.04518193 -606.87756348 88.48604131 C-604.98167032 85.22899409 -602.3438719 82.93590284 -599.56896973 80.44307256 C-598.98268799 79.91125371 -598.39640625 79.37943486 -597.7923584 78.83150029 C-580.06215075 62.86013693 -560.17092012 47.88219172 -538.54016113 37.58784795 C-535.6558466 36.2023278 -532.80853111 34.75900948 -529.95959473 33.30244756 C-523.58942685 30.11442445 -517.10411515 27.31143531 -510.50646973 24.63057256 C-509.33455078 24.15426396 -508.16263184 23.67795537 -506.9552002 23.18721318 C-496.96466167 19.19372184 -486.90772277 15.86553387 -476.50646973 13.13057256 C-475.3798291 12.82764287 -474.25318848 12.52471318 -473.09240723 12.21260381 C-466.79085517 10.64120412 -460.41924962 9.56615842 -454.00646973 8.56807256 C-453.27879395 8.4531043 -452.55111816 8.33813603 -451.8013916 8.21968389 C-429.99414828 5.00398522 -408.01010097 4.39848607 -386.01690674 3.60255742 C-382.5222967 3.47395474 -379.02802948 3.3370966 -375.53372765 3.20041585 C-358.0818122 2.52121517 -340.66897117 2.00959749 -323.20129395 2.11348271 C-315.5435506 2.15211539 -307.88943457 2.03612334 -300.23303223 1.91182256 C-299.53464108 1.90071069 -298.83624992 1.88959882 -298.1166954 1.87815022 C-292.40527056 1.78709666 -286.69393408 1.69098075 -280.98260498 1.59413457 C-276.68935787 1.52148356 -272.39608497 1.4509141 -268.10276413 1.38275456 C-266.17338714 1.35140032 -264.24405505 1.31731621 -262.31472778 1.28303838 C-255.02712214 1.16650703 -247.74321357 1.12640266 -240.45465279 1.14092755 C-226.44637803 1.16803079 -212.4425393 1.06885845 -198.43518066 0.91621709 C-196.38448162 0.89409519 -194.33378238 0.87199123 -192.28308296 0.8499043 C-190.71890882 0.83303982 -190.71890882 0.83303982 -189.12313521 0.81583464 C-187.53135107 0.79867901 -187.53135107 0.79867901 -185.90740967 0.78117681 C-184.82781491 0.76952162 -183.74822015 0.75786644 -182.63591039 0.74585807 C-121.75697294 0.09257766 -60.88197505 -0.030366 0 0 Z " fill="#CB4943" transform="translate(974.5064697265625,281.86942744255066)"/>
<path d="M0 0 C0.97032166 0.05302277 1.94064331 0.10604553 2.94036865 0.16067505 C36.17097484 2.14857081 72.40030563 8.49021171 103.29296875 21.31640625 C105.73262445 22.26759338 108.17167883 23.02616343 110.6875 23.75 C114.88396732 24.96390812 118.88017281 26.45030434 122.91137695 28.12939453 C124.66072538 28.83553377 126.42298022 29.51121194 128.20068359 30.14257812 C138.95777705 34.00553021 149.08818896 39.17121685 159.29711914 44.27685547 C162.47622986 45.86313939 165.664443 47.42995447 168.85351562 48.99609375 C180.83483201 54.93809149 191.89281317 61.36655288 202.6875 69.25 C204.61796201 70.55216183 206.55415269 71.84594281 208.5 73.125 C209.44746094 73.75792969 210.39492187 74.39085937 211.37109375 75.04296875 C213.18508235 76.25015787 215.00081614 77.45479723 216.82470703 78.64697266 C227.51964191 85.6479848 237.17202546 92.95398566 246.30224609 101.90478516 C250.3082881 105.79503744 254.62373166 109.3559328 258.89453125 112.94921875 C269.24405762 121.68559154 278.77860815 130.66822009 287.2421875 141.30078125 C290.09820282 144.74533647 293.12040484 147.99421479 296.1875 151.25 C305.22903333 160.90944716 313.02949205 170.94443533 320.234375 182.03125 C322.59267913 185.64420488 325.04688654 189.1624976 327.578125 192.65625 C371.17057901 253.77885569 395.38311643 330.45861099 398.58850098 405.15032959 C398.69306979 407.36812969 398.82324422 409.58327331 398.95996094 411.79931641 C399.87398317 426.62098672 399.71372368 441.12593807 398.515625 455.92504883 C398.31420666 458.41639034 398.1212565 460.90827441 397.9296875 463.40039062 C397.54360351 468.35279744 397.12634846 473.30199886 396.6875 478.25 C396.61460754 479.07309662 396.54171509 479.89619324 396.46661377 480.74423218 C395.52910424 491.06582959 394.15143537 501.07338542 391.8125 511.1875 C391.27197898 513.59993409 390.73292414 516.01269714 390.1953125 518.42578125 C389.93524414 519.5854541 389.67517578 520.74512695 389.40722656 521.93994141 C388.57789247 525.75409054 387.85250168 529.58066812 387.14404297 533.41870117 C384.73088015 546.4020333 380.69072508 558.65134806 375.6171875 570.83203125 C374.11374156 574.7422541 372.97377843 578.75824973 371.8125 582.78125 C368.08818449 594.26455615 362.61968226 605.00739114 357.34277344 615.83398438 C356.20843608 618.17493545 355.08278815 620.51817639 353.96972656 622.86914062 C346.09308727 639.49752552 337.5433908 654.65306826 326.62646484 669.54296875 C324.03669358 673.15860508 321.6178008 676.87403771 319.1965332 680.60375977 C312.997949 690.14897721 306.37435848 698.86629295 298.6875 707.25 C297.77928733 708.25461153 296.87172195 709.25980866 295.96484375 710.265625 C294.28926149 712.11558912 292.60859543 713.96096676 290.921875 715.80078125 C288.96187117 717.94924699 287.03405509 720.11883807 285.125 722.3125 C275.99591501 732.79483759 266.6939683 742.55632939 256.12646484 751.58349609 C254.96475614 752.57587886 253.80330734 753.56856594 252.64208984 754.56152344 C251.41312679 755.61173419 250.18296444 756.66054298 248.95166016 757.70800781 C245.54399282 760.61697005 242.2475548 763.59919482 239 766.6875 C232.40566048 772.63616583 224.98151703 777.37526222 217.60107422 782.27734375 C214.51989286 784.36347962 211.49688768 786.51972498 208.47265625 788.6875 C192.86275838 799.7420328 176.57353753 808.75241657 159.4375 817.25 C158.38358063 817.77268463 157.32966125 818.29536926 156.24380493 818.83389282 C153.20312828 820.33539824 150.15799164 821.8271881 147.109375 823.3125 C146.20622055 823.7533342 145.3030661 824.1941684 144.37254333 824.64836121 C135.3648283 828.98712704 126.12514406 832.53144406 116.6875 835.8125 C115.8625 836.10318359 115.0375 836.39386719 114.1875 836.69335938 C109.12729196 838.4604789 104.04263458 840.07785576 98.89575195 841.57421875 C96.84764737 842.20099083 94.87068121 842.91193458 92.875 843.6875 C82.02858262 847.82304909 71.02026791 850.31849619 59.625 852.3125 C56.8831534 852.79813954 54.14229128 853.28891412 51.40234375 853.78515625 C50.74342133 853.90436432 50.0844989 854.02357239 49.40560913 854.14639282 C44.29247163 855.09202384 39.26730305 856.27460001 34.24047852 857.59936523 C28.89963653 858.96049595 23.64675278 859.58547707 18.15625 860.00390625 C17.30905899 860.06935135 16.46186798 860.13479645 15.58900452 860.20222473 C-19.97972787 862.88345264 -55.90519106 864.48712708 -91.3125 859.25 C-93.04814209 859.00056641 -93.04814209 859.00056641 -94.81884766 858.74609375 C-109.18230614 856.62776313 -123.29677274 853.70125701 -137.375 850.1875 C-138.04036774 850.02182526 -138.70573547 849.85615051 -139.39126587 849.68545532 C-147.83208798 847.56682065 -156.10023007 845.13064392 -164.3125 842.25 C-164.01548078 835.15124073 -160.72154387 830.09035537 -157.1875 824.0625 C-155.90143629 821.81636784 -154.61766305 819.568923 -153.3359375 817.3203125 C-153.00418518 816.74067245 -152.67243286 816.16103241 -152.33062744 815.56382751 C-135.86365431 786.74463685 -120.69603157 757.05845277 -108.3125 726.25 C-108.06523163 725.63848083 -107.81796326 725.02696167 -107.5632019 724.39691162 C-103.71598343 714.80560867 -100.79997425 705.19735949 -98.41455078 695.14691162 C-97.47528713 691.19191038 -96.50219269 687.24515856 -95.53515625 683.296875 C-95.34438507 682.51396088 -95.15361389 681.73104675 -94.95706177 680.92440796 C-93.09115622 673.28541377 -91.06239114 665.69461383 -88.98779297 658.10986328 C-87.26525415 651.80519168 -85.58849746 645.49077949 -83.94921875 639.1640625 C-83.33494411 636.80381355 -82.72023226 634.44367878 -82.10546875 632.08355713 C-81.70413804 630.53677515 -81.30518337 628.98937459 -80.90869141 627.44134521 C-80.35541421 625.2821704 -79.79379022 623.12532244 -79.23046875 620.96875 C-78.90844482 619.72029297 -78.5864209 618.47183594 -78.25463867 617.18554688 C-77.3125 614.25 -77.3125 614.25 -75.3125 612.25 C-74.79042969 613.00023437 -74.26835938 613.75046875 -73.73046875 614.5234375 C-58.32300847 635.94817211 -33.76446261 650.59801378 -7.61328125 654.94921875 C-6.85402344 655.04847656 -6.09476563 655.14773438 -5.3125 655.25 C-4.48105469 655.35957031 -3.64960937 655.46914062 -2.79296875 655.58203125 C5.02301655 656.44030196 12.83573251 656.51687873 20.6875 656.25 C21.56680176 656.22099609 22.44610352 656.19199219 23.35205078 656.16210938 C55.22690092 654.88256105 86.95314419 645.89534069 113.6875 628.25 C114.62980469 627.69054688 115.57210937 627.13109375 116.54296875 626.5546875 C124.11111092 622.03345971 130.57792325 616.43417203 137.15136719 610.60693359 C139.08119935 608.90222807 141.042526 607.2353214 143 605.5625 C152.81761004 596.91964671 161.44373047 587.30385643 169.0625 576.6875 C169.62485352 575.9052002 170.18720703 575.12290039 170.76660156 574.31689453 C175.40715078 567.78540764 179.6419379 561.0906313 183.609375 554.1328125 C184.74393384 552.15144525 185.90224078 550.18516336 187.0625 548.21875 C191.14283362 541.22984524 194.72498157 534.36572698 197.421875 526.703125 C198.5251566 523.69293694 199.7539218 520.80387711 201.03515625 517.8671875 C203.85808625 511.13630608 205.87572148 504.24707249 207.80004883 497.22216797 C208.37685364 495.11823875 208.96580914 493.01799732 209.55664062 490.91796875 C211.55957648 483.74317299 213.34842307 476.58131097 214.6875 469.25 C215.03111492 467.54267888 215.37621302 465.83565571 215.72265625 464.12890625 C218.08199419 452.11425866 219.5103072 440.48648652 219.6875 428.25 C219.70796387 427.06019531 219.72842773 425.87039063 219.74951172 424.64453125 C220.25739838 390.6287173 217.33521836 358.21391555 204.48339844 326.29833984 C203.6875 324.25 203.6875 324.25 202.8125 321.32421875 C201.02998261 316.45324241 198.44720174 312.02970559 195.9375 307.5 C195.42445313 306.5615625 194.91140625 305.623125 194.3828125 304.65625 C189.31860102 295.4439658 184.13758108 286.48887224 177.75 278.125 C177.22494873 277.43269287 176.69989746 276.74038574 176.15893555 276.02709961 C170.5022978 268.61974339 164.45017412 261.93985974 157.8046875 255.40625 C155.99595374 253.56414477 154.36598492 251.69606883 152.75 249.6875 C149.73151079 246.09327715 146.24724514 243.31747302 142.5390625 240.45703125 C140.5893751 238.94802662 138.66827061 237.40155302 136.7734375 235.82421875 C89.68518756 196.80739858 27.07988325 180.26369253 -33.3125 182.25 C-34.5308252 182.2819043 -35.74915039 182.31380859 -37.00439453 182.34667969 C-87.8870875 183.8471901 -139.09690416 196.23415198 -181.6875 225.0625 C-182.33323975 225.49844482 -182.97897949 225.93438965 -183.64428711 226.38354492 C-185.53726669 227.66720336 -187.42499831 228.95830713 -189.3125 230.25 C-190.27542969 230.8996875 -191.23835938 231.549375 -192.23046875 232.21875 C-199.07107133 236.98797366 -205.05588054 242.48428741 -211.0859375 248.21484375 C-213.52667637 250.53220616 -216.03021353 252.7299076 -218.625 254.875 C-222.6371411 258.33108743 -225.81860052 262.36945861 -229.09765625 266.51171875 C-231.05890299 268.93647001 -233.10356823 271.17878005 -235.25 273.4375 C-240.39993506 279.16078767 -244.18241017 285.74994913 -248.13378906 292.32324219 C-249.15410434 293.9910815 -250.22503861 295.62775437 -251.3046875 297.2578125 C-274.32230361 332.30953495 -284.79904206 375.97104498 -284.57324219 417.59204102 C-284.56245334 419.94768697 -284.57326106 422.30257886 -284.5859375 424.65820312 C-284.5998484 438.18038658 -283.06742308 451.13014429 -279.9375 464.3125 C-279.60878906 465.71991455 -279.60878906 465.71991455 -279.2734375 467.15576172 C-275.21461135 484.31433128 -269.32254459 499.75801242 -261.25732422 515.41357422 C-260.43489291 517.01210866 -259.62457713 518.61686503 -258.81640625 520.22265625 C-252.15970368 533.02690851 -243.28226775 543.90926415 -233.3125 554.25 C-232.69761719 554.91644531 -232.08273437 555.58289062 -231.44921875 556.26953125 C-222.5732259 565.65393419 -209.37181598 575.70786852 -196.3125 577.25 C-196.22758301 576.69086914 -196.14266602 576.13173828 -196.05517578 575.55566406 C-194.99392948 569.17346377 -193.53223598 562.93493113 -191.9296875 556.671875 C-191.70968079 555.81074097 -191.48967407 554.94960693 -191.26300049 554.06237793 C-190.33974886 550.46122489 -189.41175552 546.86136253 -188.47509766 543.26367188 C-187.78590252 540.60991288 -187.10715142 537.95364922 -186.4296875 535.296875 C-186.21722382 534.49256042 -186.00476013 533.68824585 -185.78585815 532.85955811 C-183.71792716 524.85459353 -183.71792716 524.85459353 -185.37890625 516.984375 C-185.87261719 516.32953125 -186.36632812 515.6746875 -186.875 515 C-187.42542969 514.23171875 -187.97585938 513.4634375 -188.54296875 512.671875 C-189.12691406 511.87265625 -189.71085937 511.0734375 -190.3125 510.25 C-214.79510912 474.86720826 -220.88331388 431.51655043 -213.88696289 389.70703125 C-208.38168276 359.93199505 -195.31651039 332.00456182 -175.3125 309.25 C-174.549375 308.37730469 -173.78625 307.50460937 -173 306.60546875 C-140.74110287 270.2597181 -96.19467624 250.53250383 -47.97558594 247.38623047 C-40.08435598 246.98255369 -32.20842882 247.05809071 -24.3125 247.25 C-22.99378906 247.26804687 -21.67507813 247.28609375 -20.31640625 247.3046875 C22.96083005 248.83582801 63.40792745 267.92118179 93.359375 298.7421875 C120.0159726 327.4561735 133.96688975 365.3220337 134.6875 404.25 C134.71328125 405.18875977 134.7390625 406.12751953 134.765625 407.09472656 C136.26718893 465.48679406 121.37826024 523.26889038 80.8125 566.5625 C67.85722195 578.84020075 51.79714497 588.16135559 34.6875 593.25 C33.7284375 593.54777344 32.769375 593.84554687 31.78125 594.15234375 C13.36538275 599.00215345 -6.9871921 598.05285393 -24.0625 589.5625 C-36.00803673 582.57084762 -44.57401313 572.69990596 -50.1875 560.1875 C-50.48615967 559.5267749 -50.78481934 558.8660498 -51.0925293 558.18530273 C-53.084335 553.49709514 -53.88378521 549.32822875 -54.3125 544.25 C-54.40273438 543.23679687 -54.49296875 542.22359375 -54.5859375 541.1796875 C-55.32094429 519.07294475 -46.02635318 496.83153757 -39.6590271 475.95820618 C-37.22145271 467.96531584 -34.81625976 459.96322576 -32.44613647 451.95007324 C-31.83826673 449.8994241 -31.22460178 447.85057615 -30.6105957 445.80175781 C-22.26847724 417.73533792 -12.86469644 384.74329598 -27.25 357.125 C-28.24022867 355.48117127 -29.2576098 353.85310086 -30.3125 352.25 C-30.69019531 351.65832031 -31.06789063 351.06664062 -31.45703125 350.45703125 C-34.54557195 346.21165198 -38.78552525 343.99895563 -43.30078125 341.546875 C-43.96464844 341.11890625 -44.62851562 340.6909375 -45.3125 340.25 C-45.3125 339.59 -45.3125 338.93 -45.3125 338.25 C-46.3025 338.12625 -47.2925 338.0025 -48.3125 337.875 C-50.98605134 337.50825041 -53.25563846 336.96871309 -55.875 336.1875 C-69.06016651 332.84049619 -85.20067314 335.26806226 -97.0390625 341.796875 C-101.02676195 344.34571383 -104.67047496 347.2361537 -108.3125 350.25 C-109.3025 350.971875 -110.2925 351.69375 -111.3125 352.4375 C-128.07424696 366.74517903 -136.94228386 392.01719509 -139.3125 413.25 C-139.63031678 418.89885708 -139.70253347 424.53073952 -139.6875 430.1875 C-139.68695618 430.9583493 -139.68641235 431.72919861 -139.68585205 432.52340698 C-139.63099336 449.47276669 -137.57229287 465.144084 -131.15576172 480.95532227 C-127.65797309 490.14839911 -130.43466177 499.77718259 -132.7890625 508.98828125 C-133.03495117 509.97856827 -133.28083984 510.96885529 -133.53417969 511.989151 C-134.05779225 514.09453385 -134.58498929 516.19902806 -135.11553955 518.30267334 C-136.23134394 522.72786057 -137.32901066 527.15748387 -138.42758179 531.5869751 C-138.97393563 533.78946086 -139.52115045 535.99173324 -140.06924438 538.19378662 C-142.09114785 546.32289693 -144.05092384 554.4632788 -145.9375 562.625 C-146.20014648 563.75977783 -146.46279297 564.89455566 -146.73339844 566.0637207 C-147.28471099 568.45081139 -147.83513927 570.83810644 -148.38476562 573.22558594 C-150.0928994 580.642286 -151.81801472 588.05506555 -153.54101562 595.46832275 C-153.9715053 597.32062325 -154.40184419 599.17295879 -154.83203125 601.02532959 C-157.64966837 613.15637804 -160.49676411 625.27997327 -163.37817383 637.39602661 C-164.66510759 642.81220055 -165.9449971 648.23004172 -167.22460938 653.64794922 C-167.95771514 656.75175518 -168.69374627 659.8548487 -169.43164062 662.95751953 C-177.59625651 697.34013374 -181.69295252 730.60449017 -181.57324219 766.0456543 C-181.56249629 769.81380247 -181.57323126 773.5814752 -181.5859375 777.34960938 C-181.59277922 791.3581389 -181.04542142 805.18392674 -179.74121094 819.13256836 C-178.66264389 831.10959983 -178.66264389 831.10959983 -181.3125 835.25 C-186.32684662 834.64612696 -190.65060792 833.05801275 -195.25390625 831.07421875 C-196.01020325 830.75299042 -196.76650024 830.43176208 -197.54571533 830.10079956 C-199.99297833 829.05577023 -202.43451318 827.99825036 -204.875 826.9375 C-205.70752289 826.57751923 -206.54004578 826.21753845 -207.39779663 825.84664917 C-219.80217808 820.4646761 -231.65995989 814.61543264 -243.19091797 807.52587891 C-245.20565067 806.31425715 -247.24245661 805.18077024 -249.31640625 804.07421875 C-260.72603093 797.98374306 -271.16843137 790.60444459 -281.69384766 783.109375 C-283.96695784 781.49535233 -286.25043644 779.89873296 -288.54296875 778.3125 C-294.88358664 773.90228882 -300.79426139 769.26635392 -306.421875 763.96484375 C-308.2080419 762.18987267 -308.2080419 762.18987267 -310.3125 761.25 C-310.3125 760.59 -310.3125 759.93 -310.3125 759.25 C-310.85519531 759.01410156 -311.39789062 758.77820312 -311.95703125 758.53515625 C-321.10614512 753.54335117 -328.87513569 744.86686303 -336.1875 737.5625 C-336.88834717 736.8624585 -337.58919434 736.16241699 -338.3112793 735.44116211 C-342.27326393 731.4368335 -346.06105433 727.33293302 -349.71289062 723.04345703 C-351.36723946 721.18862697 -353.11617249 719.50232556 -354.9375 717.8125 C-359.54519294 713.27583123 -363.31905916 708.1614992 -367.18652344 702.99853516 C-369.88399631 699.4042181 -372.59950255 695.85735486 -375.51171875 692.43359375 C-384.27045963 682.13236525 -391.34400407 671.06274662 -398.32446289 659.49633789 C-399.75693309 657.15720536 -401.20749567 654.84034886 -402.68920898 652.53295898 C-408.31515079 643.74512365 -413.33454892 634.81036817 -417.94555664 625.45043945 C-419.00067438 623.31113267 -420.07064719 621.17975163 -421.14257812 619.04882812 C-427.61793917 606.07964476 -433.29831152 592.80254547 -437.9375 579.0625 C-438.47075132 577.50630371 -439.00462164 575.95031942 -439.5390625 574.39453125 C-439.81419678 573.5862085 -440.08933105 572.77788574 -440.37280273 571.94506836 C-441.05783441 569.98038543 -441.76631822 568.02383348 -442.48852539 566.07250977 C-445.4675736 557.98766427 -447.89553745 549.89782705 -449.99780273 541.5534668 C-450.50288068 539.55107953 -451.01923625 537.55184649 -451.53710938 535.55273438 C-453.18742373 529.12631224 -454.69967669 522.70960318 -455.8137207 516.16723633 C-456.29875771 513.33037522 -456.8287034 510.50387789 -457.36579895 507.67648315 C-460.53580221 490.84659729 -462.86989547 474.18002131 -463.6875 457.0625 C-463.74357422 455.90226822 -463.74357422 455.90226822 -463.80078125 454.71859741 C-464.03839033 449.56359414 -464.20319579 444.40926242 -464.3125 439.25 C-464.32725372 438.57889191 -464.34200745 437.90778381 -464.35720825 437.21633911 C-465.35662295 383.87227538 -456.83316189 329.8761956 -437.09924316 280.26031494 C-436.2945586 278.20415547 -435.52423463 276.13769961 -434.76074219 274.06591797 C-430.00442074 261.2717022 -424.16335299 249.07682606 -418.0625 236.875 C-417.53804291 235.82228912 -417.01358582 234.76957825 -416.47323608 233.68496704 C-408.22870751 217.21355611 -399.25760253 201.896744 -388.35351562 187.06738281 C-385.79031166 183.52918021 -383.39105843 179.89612836 -380.98754883 176.24853516 C-375.15415715 167.43618359 -368.66788891 159.81181785 -361.3125 152.25 C-360.07126416 150.8648881 -358.84022646 149.47048652 -357.625 148.0625 C-354.30562692 144.22624157 -350.90869989 140.46325174 -347.5078125 136.69921875 C-345.5428643 134.50700786 -343.61040958 132.29152299 -341.6875 130.0625 C-335.09573996 122.51607127 -327.73087173 116.00930981 -320.11328125 109.52734375 C-318.92960703 108.51832356 -317.74601594 107.50920584 -316.5625 106.5 C-315.65346924 105.72740845 -315.65346924 105.72740845 -314.72607422 104.93920898 C-311.84730337 102.47884191 -309.00973597 99.99726996 -306.26953125 97.3828125 C-299.56344795 90.99348077 -292.51856706 85.83503705 -284.73583984 80.83300781 C-279.58386122 77.46756056 -274.51931821 73.97012365 -269.4375 70.5 C-266.33212123 68.38244905 -263.22592657 66.26624553 -260.11474609 64.15722656 C-258.38109466 62.97729234 -256.65352523 61.78829793 -254.93603516 60.58496094 C-249.36862361 56.73506313 -243.58076785 53.82265314 -237.4375 51 C-229.14519066 47.12156559 -220.98498736 43.08526542 -212.95556641 38.68652344 C-148.99118338 4.12310653 -71.44158785 -3.9045331 0 0 Z " fill="#D3D3D3" transform="translate(1033.3125,552.75)"/>
<path d="M0 0 C5.43750777 -0.17777523 10.83922309 -0.10237631 16.27490234 0.10058594 C17.76666992 0.14626709 17.76666992 0.14626709 19.28857422 0.19287109 C51.41068326 1.31552065 83.75208521 7.10375954 113.27490234 20.10058594 C114.63942295 20.68797125 116.00401004 21.27520215 117.36865234 21.86230469 C136.39990329 30.14059759 153.98955777 39.82786981 170.27880859 52.74902344 C172.17083819 54.23403233 174.09262952 55.68254086 176.05224609 57.07714844 C182.05234081 61.3805339 182.05234081 61.3805339 183.33740234 65.53808594 C183.31677734 66.38371094 183.29615234 67.22933594 183.27490234 68.10058594 C179.40614532 66.47552332 176.56105111 63.84985179 173.46240234 61.10058594 C167.06002323 55.56292479 160.30846642 50.85819695 153.17236328 46.32128906 C151.34474463 45.14551793 149.54714449 43.93378722 147.75146484 42.70996094 C105.18641973 14.21395352 50.80714614 3.43857878 0.27490234 5.10058594 C-0.94342285 5.13249023 -2.16174805 5.16439453 -3.41699219 5.19726562 C-54.29968515 6.69777604 -105.50950181 19.08473792 -148.10009766 47.91308594 C-149.06870728 48.56700317 -149.06870728 48.56700317 -150.05688477 49.23413086 C-151.94986434 50.5177893 -153.83759597 51.80889306 -155.72509766 53.10058594 C-156.68802734 53.75027344 -157.65095703 54.39996094 -158.64306641 55.06933594 C-165.48366899 59.8385596 -171.4684782 65.33487335 -177.49853516 71.06542969 C-179.93927403 73.3827921 -182.44281119 75.58049354 -185.03759766 77.72558594 C-189.04973876 81.18167337 -192.23119818 85.22004455 -195.51025391 89.36230469 C-197.47150064 91.78705594 -199.51616589 94.02936599 -201.66259766 96.28808594 C-206.81253272 102.01137361 -210.59500783 108.60053506 -214.54638672 115.17382812 C-215.566702 116.84166743 -216.63763627 118.47834031 -217.71728516 120.10839844 C-242.90350612 158.46251917 -251.20795718 204.15554178 -250.85009766 249.22558594 C-250.84003736 251.45605062 -250.83091696 253.68651975 -250.82275391 255.91699219 C-250.80100611 261.31162257 -250.76777523 266.70608257 -250.72509766 272.10058594 C-251.05509766 272.10058594 -251.38509766 272.10058594 -251.72509766 272.10058594 C-252.05509766 269.46058594 -252.38509766 266.82058594 -252.72509766 264.10058594 C-253.05509766 264.10058594 -253.38509766 264.10058594 -253.72509766 264.10058594 C-253.75001652 258.32055975 -253.7680603 252.54056559 -253.7800293 246.76049805 C-253.78502474 244.79857843 -253.79182337 242.83666248 -253.80053711 240.87475586 C-253.88672553 220.95509072 -253.88672553 220.95509072 -252.84399414 213.13500977 C-252.6188817 211.09433327 -252.6188817 211.09433327 -253.23828125 209.15576172 C-258.37972318 187.45031629 -240.64284399 153.09803439 -230.72509766 134.10058594 C-230.17595703 133.0190625 -229.62681641 131.93753906 -229.06103516 130.82324219 C-225.67484383 124.33170479 -221.95416483 118.04849129 -218.16259766 111.78808594 C-217.71553467 111.04695557 -217.26847168 110.3058252 -216.80786133 109.54223633 C-212.44193417 102.42198727 -207.63226275 95.88716496 -201.91259766 89.78808594 C-198.58030229 86.19336612 -195.47387984 82.53860704 -192.47509766 78.66308594 C-187.45545623 72.44829179 -181.56868721 67.54104431 -175.41259766 62.50439453 C-173.92395967 61.26601658 -172.47711629 59.97776549 -171.03759766 58.68261719 C-156.92842561 46.14812952 -139.85051756 35.77076713 -122.67480469 27.98486328 C-120.54503191 27.01891825 -118.43070848 26.02258861 -116.31494141 25.02636719 C-107.34213955 20.85925917 -98.3717652 17.42615133 -88.859375 14.72021484 C-86.62253534 14.07080978 -84.40327665 13.37589975 -82.18212891 12.67480469 C-55.16754761 4.31787373 -28.14838917 1.03898373 0 0 Z " fill="#DBA7A7" transform="translate(999.72509765625,729.8994140625)"/>
<path d="M0 0 C0.99 0.495 0.99 0.495 2 1 C2.33 9.58 2.66 18.16 3 27 C3.99 26.505 3.99 26.505 5 26 C5.7301775 61.49473944 -0.20356437 96.84330216 -13 130 C-13.31275879 130.82790039 -13.62551758 131.65580078 -13.94775391 132.50878906 C-21.69569816 152.89259209 -31.57318478 171.66998988 -44.62890625 189.15722656 C-45.91867166 190.89069332 -47.18177998 192.64022225 -48.4375 194.3984375 C-52.54000729 200.05362985 -56.84825157 205.08355419 -61.88671875 209.921875 C-63.86557629 211.86781255 -65.65287749 213.87684254 -67.4375 216 C-78.41136795 228.70658394 -92.58310286 238.60514389 -107 247 C-107.62277832 247.37012207 -108.24555664 247.74024414 -108.88720703 248.12158203 C-132.41715752 262.08717905 -132.41715752 262.08717905 -145 262 C-147.657815 262.85124843 -147.657815 262.85124843 -150.0625 264.0625 C-154.11706541 265.82670022 -156.64206655 266.37618951 -161 265 C-157.47871595 263.04568735 -153.85622278 262.00499971 -150 260.875 C-134.25605929 256.06338514 -119.82889551 249.93659757 -106 241 C-105.05125 240.43796875 -104.1025 239.8759375 -103.125 239.296875 C-95.56785725 234.77137672 -89.10452528 229.17969398 -82.53613281 223.35693359 C-80.60630065 221.65222807 -78.644974 219.9853214 -76.6875 218.3125 C-66.86988996 209.66964671 -58.24376953 200.05385643 -50.625 189.4375 C-50.06264648 188.6552002 -49.50029297 187.87290039 -48.92089844 187.06689453 C-44.28034922 180.53540764 -40.0455621 173.8406313 -36.078125 166.8828125 C-34.94356616 164.90144525 -33.78525922 162.93516336 -32.625 160.96875 C-28.54466638 153.97984524 -24.96251843 147.11572698 -22.265625 139.453125 C-21.1623434 136.44293694 -19.9335782 133.55387711 -18.65234375 130.6171875 C-15.82941375 123.88630608 -13.81177852 116.99707249 -11.88745117 109.97216797 C-11.31064636 107.86823875 -10.72169086 105.76799732 -10.13085938 103.66796875 C-8.12792352 96.49317299 -6.33907693 89.33131097 -5 82 C-4.65638508 80.29267888 -4.31128698 78.58565571 -3.96484375 76.87890625 C-3.6214229 75.10695912 -3.27898038 73.33482211 -2.9375 71.5625 C-2.76412109 70.71751953 -2.59074219 69.87253906 -2.41210938 69.00195312 C0.68156894 52.70383942 0.14058791 35.83030374 0.0625 19.3125 C0.05746528 17.42382934 0.05290592 15.53515735 0.04882812 13.64648438 C0.03800096 9.09762234 0.02084999 4.54882668 0 0 Z " fill="#E4D4D4" transform="translate(1253,940)"/>
<path d="M0 0 C0 3.82851447 -1.50812907 5.28562956 -3.98828125 8.06640625 C-6.19198357 10.18452789 -8.49464916 11.87458501 -11 13.625 C-17.10769434 17.89955279 -22.38194324 22.84527092 -27.7734375 27.96484375 C-30.21417637 30.28220616 -32.71771353 32.4799076 -35.3125 34.625 C-39.3246411 38.08108743 -42.50610052 42.11945861 -45.78515625 46.26171875 C-47.74640299 48.68647001 -49.79106823 50.92878005 -51.9375 53.1875 C-57.08743506 58.91078767 -60.86991017 65.49994913 -64.82128906 72.07324219 C-65.84160434 73.7410815 -66.91253861 75.37775437 -67.9921875 77.0078125 C-93.17840847 115.36193323 -101.48285953 161.05495584 -101.125 206.125 C-101.11493971 208.35546468 -101.1058193 210.58593381 -101.09765625 212.81640625 C-101.07590845 218.21103664 -101.04267757 223.60549663 -101 229 C-101.33 229 -101.66 229 -102 229 C-102.33 226.36 -102.66 223.72 -103 221 C-103.33 221 -103.66 221 -104 221 C-104.02491886 215.21997381 -104.04296264 209.43997965 -104.05493164 203.65991211 C-104.05992708 201.6979925 -104.06672571 199.73607654 -104.07543945 197.77416992 C-104.16162787 177.85450478 -104.16162787 177.85450478 -103.11889648 170.03442383 C-102.89378404 167.99374733 -102.89378404 167.99374733 -103.51318359 166.05517578 C-108.65462552 144.34973036 -90.91774634 109.99744845 -81 91 C-80.45085938 89.91847656 -79.90171875 88.83695313 -79.3359375 87.72265625 C-75.94974617 81.23111885 -72.22906718 74.94790535 -68.4375 68.6875 C-67.99043701 67.94636963 -67.54337402 67.20523926 -67.08276367 66.44165039 C-62.71683652 59.32140133 -57.90716509 52.78657903 -52.1875 46.6875 C-48.85520464 43.09278019 -45.74878218 39.43802111 -42.75 35.5625 C-37.74676173 29.36801453 -31.87905629 24.46226318 -25.74462891 19.43896484 C-24.0964734 18.07957098 -22.47254556 16.69690381 -20.85546875 15.30078125 C-14.21162097 9.61476212 -7.3714531 4.67904293 0 0 Z " fill="#DEBAB9" transform="translate(850,773)"/>
<path d="M0 0 C0.33 0 0.66 0 1 0 C1 3.3 1 6.6 1 10 C1.66 10 2.32 10 3 10 C3.16081055 10.71430176 3.32162109 11.42860352 3.48730469 12.16455078 C8.61136623 34.8500358 14.37539158 55.43282987 25.05517578 76.16357422 C25.87760709 77.76210866 26.68792287 79.36686503 27.49609375 80.97265625 C34.15279632 93.77690851 43.03023225 104.65926415 53 115 C53.92232422 115.99966797 53.92232422 115.99966797 54.86328125 117.01953125 C60.41516466 122.8894223 67.00940976 128.03811891 74.265625 131.60546875 C77.31206561 133.15915346 77.72585299 133.96164944 79 137 C80.485 137.99 80.485 137.99 82 139 C62.05353668 135.82993708 44.57444209 115.07453962 33.26220703 99.76269531 C29.86607689 95.01993716 26.8951378 90.05899855 24 85 C23.36707031 83.93265625 22.73414063 82.8653125 22.08203125 81.765625 C17.50673045 73.69263915 13.98641385 65.33399912 10.625 56.6875 C10.19590332 55.59026611 9.76680664 54.49303223 9.32470703 53.36254883 C6.41297614 45.68336714 4 38.26869646 4 30 C3.34 30 2.68 30 2 30 C1.26551124 26.3172176 0.56719198 22.62844625 -0.125 18.9375 C-0.33253906 17.89916016 -0.54007813 16.86082031 -0.75390625 15.79101562 C-1.85063532 9.83464224 -2.29608462 5.65992886 0 0 Z " fill="#E3D0D0" transform="translate(747,992)"/>
<path d="M0 0 C0.66 0.33 1.32 0.66 2 1 C2.33 9.58 2.66 18.16 3 27 C3.66 26.67 4.32 26.34 5 26 C5.61082106 55.69269027 1.17308648 84.474438 -7 113 C-7.19625977 113.7027002 -7.39251953 114.40540039 -7.59472656 115.12939453 C-10.25105194 124.53741443 -10.25105194 124.53741443 -12.9921875 126.23046875 C-13.65476562 126.48441406 -14.31734375 126.73835938 -15 127 C-15.99 127.495 -15.99 127.495 -17 128 C-16.82476807 127.42894531 -16.64953613 126.85789062 -16.46899414 126.26953125 C-14.32596267 119.21442207 -12.35756304 112.11868532 -10.4375 105 C-10.13392578 103.88882812 -9.83035156 102.77765625 -9.51757812 101.6328125 C-7.7595159 95.12147091 -6.24416448 88.62706652 -5 82 C-4.65563455 80.2928301 -4.31056651 78.58580179 -3.96484375 76.87890625 C-3.6214229 75.10695912 -3.27898038 73.33482211 -2.9375 71.5625 C-2.76412109 70.71751953 -2.59074219 69.87253906 -2.41210938 69.00195312 C0.68156894 52.70383942 0.14058791 35.83030374 0.0625 19.3125 C0.05746528 17.42382934 0.05290592 15.53515735 0.04882812 13.64648438 C0.03800096 9.09762234 0.02084999 4.54882668 0 0 Z " fill="#E0C3C3" transform="translate(1253,940)"/>
<path d="M0 0 C2.90811449 0.39656107 5.75568824 0.94764748 8.625 1.5625 C11.25314214 2.12077495 11.25314214 2.12077495 15 2 C15.7321875 2.02320313 16.464375 2.04640625 17.21875 2.0703125 C17.9715625 2.08835937 18.724375 2.10640625 19.5 2.125 C20.2528125 2.14820313 21.005625 2.17140625 21.78125 2.1953125 C24.03770712 2.13975196 24.03770712 2.13975196 25.95703125 0.9765625 C28.58790982 -0.28102764 30.31086437 -0.07293103 33.1875 0.25 C34.50814453 0.38148438 34.50814453 0.38148438 35.85546875 0.515625 C36.56316406 0.67546875 37.27085937 0.8353125 38 1 C38.495 1.99 38.495 1.99 39 3 C34.84981605 5.49011037 31.89260142 6.22963521 27.05859375 6.046875 C20.0257952 5.88673537 12.87497457 7.69830445 6 9 C6 8.34 6 7.68 6 7 C5.00419922 7.05220703 5.00419922 7.05220703 3.98828125 7.10546875 C-1.39432121 7.27048284 -4.4581702 7.11439758 -9 4 C-12.20294123 3.57856036 -14.25197175 4.0746583 -17.375 5 C-21 6 -21 6 -24.75 5.9375 C-27.97466865 5.66212625 -27.97466865 5.66212625 -29.8125 7.5 C-30.204375 7.995 -30.59625 8.49 -31 9 C-31.66 9 -32.32 9 -33 9 C-33.66 8.01 -34.32 7.02 -35 6 C-35.68191406 6.165 -36.36382813 6.33 -37.06640625 6.5 C-41.5541035 7.26488049 -45.98773737 7.01653558 -50.52734375 6.9375 C-53.92254584 6.91185358 -53.92254584 6.91185358 -56.91796875 7.49609375 C-60.76881124 8.12569918 -64.4822922 8.10825516 -68.375 8.0625 C-69.11105469 8.05798828 -69.84710937 8.05347656 -70.60546875 8.04882812 C-72.40368158 8.03715142 -74.20185197 8.01922011 -76 8 C-76.33 7.01 -76.66 6.02 -77 5 C-69.82781457 3.86754967 -69.82781457 3.86754967 -65.875 4.5 C-60.96592011 5.13342966 -56.37646883 4.66778865 -51.45703125 4.25390625 C-48.55159949 4.04051296 -45.72254046 3.95713525 -42.8125 4 C-39.0757629 4.20093639 -39.0757629 4.20093639 -36 3 C-33.16285868 2.77019155 -30.34134603 2.58217622 -27.5 2.4375 C-26.34177734 2.37272461 -26.34177734 2.37272461 -25.16015625 2.30664062 C-22.10320374 2.13975327 -19.06200617 2 -16 2 C-13.45668772 1.86806217 -10.91650983 1.72253868 -8.375 1.5625 C-7.68148437 1.52318359 -6.98796875 1.48386719 -6.2734375 1.44335938 C-2.84382853 1.50900955 -2.84382853 1.50900955 0 0 Z " fill="#F4BAB7" transform="translate(897,325)"/>
<path d="M0 0 C2.5 0.25 2.5 0.25 5 1 C7.72502965 0.62277985 7.72502965 0.62277985 10 0 C10.33 0.66 10.66 1.32 11 2 C11.99 1.67 12.98 1.34 14 1 C14.99 1.33 15.98 1.66 17 2 C17.70125 1.62875 18.4025 1.2575 19.125 0.875 C22.99301932 -0.30222327 25.15050928 0.81216141 28.81640625 2.2734375 C31.24901885 3.210479 31.24901885 3.210479 35 3 C36.04671875 3.02320313 37.0934375 3.04640625 38.171875 3.0703125 C45.92809127 3.27949952 45.92809127 3.27949952 53.5 1.875 C57 1 57 1 59.75 1.9375 C64.0544278 3.34471678 67.56791661 2.70034378 72.0234375 2.23046875 C76.465354 1.88654083 80.57679046 2.30477564 84.87890625 3.5390625 C88.32056669 4.28697398 91.74090249 4.01550147 95.24609375 3.9375 C97.95304989 3.99893447 100.36784575 4.38853767 103 5 C98.39512789 8.06991474 93.45082819 7.97096763 88 8 C85.98504093 7.38001259 83.9812585 6.72045764 82 6 C80.09218112 6.22635139 78.18372519 6.4591282 76.2890625 6.77734375 C72.61918868 7.134311 69.06417831 6.60881198 65.41796875 6.15625 C62.85716254 5.83830903 62.85716254 5.83830903 60 7 C59.37738281 6.6596875 58.75476562 6.319375 58.11328125 5.96875 C56.01540934 4.74782593 56.01540934 4.74782593 53.66796875 5.53125 C52.84941406 5.8509375 52.03085938 6.170625 51.1875 6.5 C46.35552754 8.12009033 43.85943634 7.70980167 39 6 C35.46037865 5.68687965 32.03923569 5.76017638 28.5625 6.5625 C25.99928841 7.00012149 24.24425171 6.84468154 21.6875 6.5 C17.94113571 6.01080532 14.75980092 6.17054417 11.04296875 6.734375 C5.40919819 7.46687289 0.15350562 7.65987387 -5 5 C-2.8125 2.4375 -2.8125 2.4375 0 0 Z " fill="#F4BBB9" transform="translate(1094,325)"/>
<path d="M0 0 C3.73665871 0.43115293 7.35736227 0.66164836 11.125 0.5625 C11.62 2.0475 11.62 2.0475 12.125 3.5625 C13.115 3.2325 14.105 2.9025 15.125 2.5625 C16.73437386 2.69823033 18.33933978 2.89178153 19.9375 3.125 C24.27254091 3.62834292 27.0219477 3.14777021 31.125 1.5625 C33.12463028 1.52404557 35.12551633 1.51705719 37.125 1.5625 C37.785 1.2325 38.445 0.9025 39.125 0.5625 C40.93841842 0.47778636 42.75494161 0.45528917 44.5703125 0.46484375 C45.64667969 0.46806641 46.72304688 0.47128906 47.83203125 0.47460938 C48.95996094 0.48298828 50.08789062 0.49136719 51.25 0.5 C52.95349609 0.50676758 52.95349609 0.50676758 54.69140625 0.51367188 C57.50265638 0.52548385 60.3138023 0.54195493 63.125 0.5625 C59.74968865 4.43870718 59.74968865 4.43870718 56.99365234 4.98486328 C56.24035645 4.95118652 55.48706055 4.91750977 54.7109375 4.8828125 C53.86660156 4.86089844 53.02226563 4.83898437 52.15234375 4.81640625 C50.83943359 4.75259766 50.83943359 4.75259766 49.5 4.6875 C44.22364949 4.47197585 39.36263205 4.38516932 34.1875 5.55078125 C28.67094867 6.78775388 23.38012402 6.75139054 17.75 6.625 C15.82559708 6.59049875 13.90110946 6.56037445 11.9765625 6.53515625 C10.72093506 6.50820679 10.72093506 6.50820679 9.43994141 6.48071289 C7.11848426 6.46909177 7.11848426 6.46909177 4.94677734 7.18920898 C4.34559082 7.31239502 3.7444043 7.43558105 3.125 7.5625 C2.465 6.9025 1.805 6.2425 1.125 5.5625 C1.785 5.5625 2.445 5.5625 3.125 5.5625 C3.125 4.9025 3.125 4.2425 3.125 3.5625 C1.58308846 3.70572103 0.04148108 3.85221789 -1.5 4 C-2.35851562 4.08121094 -3.21703125 4.16242188 -4.1015625 4.24609375 C-5.95474546 4.45751321 -7.80180883 4.73160656 -9.63671875 5.06640625 C-14.57168245 5.82242602 -19.52255038 5.95286189 -24.50585938 6.16796875 C-25.66891602 6.22404297 -25.66891602 6.22404297 -26.85546875 6.28125 C-27.55567139 6.31154297 -28.25587402 6.34183594 -28.97729492 6.37304688 C-31.09789426 6.5143412 -31.09789426 6.5143412 -33.875 7.5625 C-33.875 6.9025 -33.875 6.2425 -33.875 5.5625 C-34.41125 5.871875 -34.9475 6.18125 -35.5 6.5 C-38.32307315 7.76295378 -40.79664784 8.2948172 -43.875 8.5625 C-44.535 7.9025 -45.195 7.2425 -45.875 6.5625 C-45.875 5.5725 -45.875 4.5825 -45.875 3.5625 C-44.60914063 3.58183594 -43.34328125 3.60117187 -42.0390625 3.62109375 C-36.73616899 3.620056 -31.52205868 3.16056216 -26.25 2.625 C-25.34765625 2.53798828 -24.4453125 2.45097656 -23.515625 2.36132812 C-15.04690361 1.64288434 -15.04690361 1.64288434 -6.7421875 -0.02734375 C-4.36567059 -0.54938198 -2.40909907 -0.30395175 0 0 Z " fill="#F3B0AD" transform="translate(752.875,325.4375)"/>
<path d="M0 0 C3.23170163 0.74813586 6.39912583 0.55547086 9.69921875 0.48046875 C12.56564456 0.47572301 15.24554969 0.95320547 18.05859375 1.4765625 C18.86296875 1.4146875 19.66734375 1.3528125 20.49609375 1.2890625 C24.36015128 1.57179842 26.79601711 3.42945559 30.05859375 5.4765625 C30.05859375 5.8065625 30.05859375 6.1365625 30.05859375 6.4765625 C20.96627284 6.49970285 11.87396202 6.51748625 2.78161812 6.52837467 C-1.44003207 6.53359978 -5.66166216 6.54069072 -9.88330078 6.55200195 C-13.95517297 6.562844 -18.02702578 6.56884214 -22.09891129 6.57143974 C-23.65468781 6.57329161 -25.21046323 6.57690768 -26.76623154 6.58229256 C-28.94036932 6.58952045 -31.11442641 6.5905527 -33.28857422 6.59008789 C-35.1472261 6.59341881 -35.1472261 6.59341881 -37.04342651 6.59681702 C-39.94140625 6.4765625 -39.94140625 6.4765625 -41.94140625 5.4765625 C-41.61140625 4.4865625 -41.28140625 3.4965625 -40.94140625 2.4765625 C-39.96300781 2.51136719 -39.96300781 2.51136719 -38.96484375 2.546875 C-38.09085938 2.56492187 -37.216875 2.58296875 -36.31640625 2.6015625 C-35.45789063 2.62476563 -34.599375 2.64796875 -33.71484375 2.671875 C-30.88237898 2.59225152 -30.88237898 2.59225152 -28.11328125 1.50390625 C-24.34262685 0.28262287 -20.74210488 0.06337015 -16.81640625 -0.0859375 C-11.68588375 -0.2446701 -11.68588375 -0.2446701 -6.64453125 -1.109375 C-4.18742936 -1.70674381 -2.34201059 -0.75548729 0 0 Z " fill="#F4B5B3" transform="translate(1054.94140625,324.5234375)"/>
<path d="M0 0 C0.99 0.495 0.99 0.495 2 1 C-3.7092026 7.09846641 -9.63442162 12.17830396 -16.3984375 17.0546875 C-18.48743023 18.61672711 -20.18961236 20.14915677 -22 22 C-32.99523176 31.00963686 -49.72392758 40.09891043 -64 40 C-66.657815 40.85124843 -66.657815 40.85124843 -69.0625 42.0625 C-73.11706541 43.82670022 -75.64206655 44.37618951 -80 43 C-76.47871595 41.04568735 -72.85622278 40.00499971 -69 38.875 C-53.25605929 34.06338514 -38.82889551 27.93659757 -25 19 C-24.05125 18.43796875 -23.1025 17.8759375 -22.125 17.296875 C-13.992195 12.42664875 -7.06009629 6.27678634 0 0 Z " fill="#E2D3D3" transform="translate(1172,1162)"/>
<path d="M0 0 C-2.61622796 1.74415198 -4.20310562 2.45897171 -7.125 3.3125 C-25.71294373 9.41868441 -38.25935865 24.10403734 -47.17919922 40.93359375 C-55.16546443 56.93036169 -58.14355932 74.01693508 -58.625 91.75 C-58.68300781 93.52890625 -58.68300781 93.52890625 -58.7421875 95.34375 C-58.83526085 98.22902375 -58.92108941 101.11431021 -59 104 C-59.33 104 -59.66 104 -60 104 C-60.96395354 89.88677476 -61.69969838 76.75054564 -58 63 C-57.731875 61.91203125 -57.46375 60.8240625 -57.1875 59.703125 C-51.43183018 38.63326228 -37.93409683 16.7853003 -18.69140625 5.765625 C-18.09199219 5.43046875 -17.49257813 5.0953125 -16.875 4.75 C-15.96427734 4.2240625 -15.96427734 4.2240625 -15.03515625 3.6875 C-9.68175528 0.65507244 -6.10529295 -0.13875666 0 0 Z " fill="#D9AFAF" transform="translate(952,888)"/>
<path d="M0 0 C0.93452165 3.38302664 0.9444937 5.83465414 0.4765625 9.33203125 C0.3425 10.37939453 0.2084375 11.42675781 0.0703125 12.50585938 C-0.07664062 13.59705078 -0.22359375 14.68824219 -0.375 15.8125 C-2.73370752 33.57924598 -3.18642482 51.06183175 -3.18530273 68.96582031 C-3.18747555 72.83149461 -3.20564575 76.69687644 -3.22460938 80.5625 C-3.25557368 94.76229971 -2.76249888 108.76772366 -1.4309082 122.90673828 C-1.0546817 126.96364803 -0.91045601 130.92769506 -1 135 C-3.37716594 131.21045932 -3.61821515 127.1587648 -4.0625 122.8125 C-4.16346739 118.01839369 -4.16346739 118.01839369 -6 114 C-6.11020609 111.89461346 -6.14914808 109.78548095 -6.16113281 107.67724609 C-6.16609772 107.01488449 -6.17106262 106.35252289 -6.17617798 105.67008972 C-6.19089295 103.45452847 -6.19763271 101.23903986 -6.203125 99.0234375 C-6.20595238 98.25767017 -6.20877975 97.49190285 -6.21169281 96.70293045 C-6.22675684 92.61477562 -6.23592825 88.52665643 -6.24023438 84.43847656 C-6.24454469 81.11642008 -6.25812699 77.79463429 -6.28125 74.47265625 C-6.39693935 57.50048471 -6.29034981 40.63414064 -4.671875 23.7265625 C-4.55515442 22.47990814 -4.43843384 21.23325378 -4.31817627 19.94882202 C-3.57769517 13.00924951 -2.30981848 6.59120588 0 0 Z " fill="#D6BFBF" transform="translate(855,1249)"/>
<path d="M0 0 C0.66 0.33 1.32 0.66 2 1 C2.33 9.58 2.66 18.16 3 27 C3.66 26.67 4.32 26.34 5 26 C5.20942257 36.18026392 5.08813627 46.28466244 4.25 56.4375 C4.18828613 57.33041748 4.12657227 58.22333496 4.06298828 59.14331055 C3.9854834 59.981604 3.90797852 60.81989746 3.828125 61.68359375 C3.7652832 62.42150146 3.70244141 63.15940918 3.63769531 63.91967773 C2.77815748 66.72370601 1.16109332 68.08074331 -1 70 C-0.96970703 69.33621338 -0.93941406 68.67242676 -0.90820312 67.98852539 C0.08722616 45.32145195 0.10897259 22.68474071 0 0 Z " fill="#E0CCCC" transform="translate(1253,940)"/>
<path d="M0 0 C0.33 0 0.66 0 1 0 C1 3.3 1 6.6 1 10 C1.66 10 2.32 10 3 10 C3.98405017 14.18636772 4.96136555 18.37428012 5.9375 22.5625 C6.35418945 24.33463867 6.35418945 24.33463867 6.77929688 26.14257812 C10.59708302 42.56365828 10.59708302 42.56365828 9 47 C8.34 47 7.68 47 7 47 C3.55580866 35.47835991 3.55580866 35.47835991 4 30 C3.34 30 2.68 30 2 30 C1.26551124 26.3172176 0.56719198 22.62844625 -0.125 18.9375 C-0.33253906 17.89916016 -0.54007813 16.86082031 -0.75390625 15.79101562 C-1.85063532 9.83464224 -2.29608462 5.65992886 0 0 Z " fill="#E1C7C6" transform="translate(747,992)"/>
<path d="M0 0 C0.85851563 -0.25910156 0.85851563 -0.25910156 1.734375 -0.5234375 C5.20733086 -1.2539558 8.52869868 -0.55653858 12 -0.0625 C18.33260452 0.78605949 24.37680706 1.13830937 30.77734375 0.77734375 C31.87755859 0.88755859 31.87755859 0.88755859 33 1 C33.66 1.99 34.32 2.98 35 4 C32 4 32 4 29 3 C26.07537744 2.76793031 26.07537744 2.76793031 24.046875 4.0234375 C21.20518413 5.37920604 18.90688873 4.71776261 15.87109375 4.2890625 C12.34430209 3.93398416 8.85149546 3.95865265 5.3125 4 C-2.17317904 4.07276265 -9.53875043 3.65285934 -17 3 C-16 1 -16 1 -12.4375 -0.1875 C-8.00306584 -1.22246668 -4.47277486 -0.67091623 0 0 Z " fill="#F4B9B7" transform="translate(1238,328)"/>
<path d="M0 0 C2.5 0.125 2.5 0.125 3.5 1.125 C7.97480899 1.30048271 12.10833973 0.98190932 16.5 0.125 C15.4375 2.0625 15.4375 2.0625 13.5 4.125 C10.1875 4.75 10.1875 4.75 6.5 5.125 C4.49617991 5.78009503 2.49541868 6.44474363 0.5 7.125 C-0.49 7.125 -1.48 7.125 -2.5 7.125 C-3.15097656 7.13660156 -3.80195312 7.14820313 -4.47265625 7.16015625 C-10.27777778 7.23611111 -10.27777778 7.23611111 -12.5 6.125 C-13.923125 6.4034375 -13.923125 6.4034375 -15.375 6.6875 C-18.89844917 7.18078288 -19.48236473 6.67953938 -22.5 5.125 C-24.83203812 5.0472654 -27.16839059 5.03532272 -29.5 5.125 C-29.17 4.465 -28.84 3.805 -28.5 3.125 C-25.41015625 2.67578125 -25.41015625 2.67578125 -21.5625 2.4375 C-20.29535156 2.35113281 -19.02820313 2.26476562 -17.72265625 2.17578125 C-14.5 2.125 -14.5 2.125 -12.5 3.125 C-10.30768632 2.8430752 -10.30768632 2.8430752 -7.9375 2.25 C-7.13183594 2.06695312 -6.32617188 1.88390625 -5.49609375 1.6953125 C-2.90469624 0.95491321 -2.83956728 0.14197836 0 0 Z " fill="#F3B5B2" transform="translate(673.5,327.875)"/>
<path d="M0 0 C2.67393995 2.57554822 4.94827664 5.18493436 7.125 8.1875 C13.38241166 16.29550787 20.88792188 22.27136641 29.65234375 27.4921875 C31.75063034 28.83983912 33.33246167 30.16185544 35 32 C27.14855154 30.87836451 22.88966892 28.18804728 17 23 C16.14921875 22.29230469 15.2984375 21.58460937 14.421875 20.85546875 C8.87417517 16.11334809 4.67085061 11.3120724 1 5 C0.01 6.32 -0.98 7.64 -2 9 C-1.125 2.25 -1.125 2.25 0 0 Z " fill="#E0CFCF" transform="translate(957,1165)"/>
<path d="M0 0 C1.11220693 3.3252184 0.87311494 5.33086977 -0.14453125 8.66015625 C-0.40943359 9.53607422 -0.67433594 10.41199219 -0.94726562 11.31445312 C-1.23279297 12.22130859 -1.51832031 13.12816406 -1.8125 14.0625 C-2.08642578 14.97322266 -2.36035156 15.88394531 -2.64257812 16.82226562 C-4.58392002 23.1397739 -5.97637896 26.67115679 -12 30 C-11.31088137 27.68727611 -10.61772793 25.37594008 -9.91796875 23.06640625 C-9.27935744 20.93317273 -8.65822901 18.79465952 -8.05078125 16.65234375 C-4.52942961 4.52942961 -4.52942961 4.52942961 0 0 Z " fill="#E1CBCB" transform="translate(1248,1038)"/>
<path d="M0 0 C0 0.99 0 1.98 0 3 C-1.98 3.99 -1.98 3.99 -4 5 C-4.66 4.01 -5.32 3.02 -6 2 C-6.68191406 2.165 -7.36382813 2.33 -8.06640625 2.5 C-12.5541035 3.26488049 -16.98773737 3.01653558 -21.52734375 2.9375 C-24.92254584 2.91185358 -24.92254584 2.91185358 -27.91796875 3.49609375 C-31.76881124 4.12569918 -35.4822922 4.10825516 -39.375 4.0625 C-40.11105469 4.05798828 -40.84710937 4.05347656 -41.60546875 4.04882812 C-43.40368158 4.03715142 -45.20185197 4.01922011 -47 4 C-47.33 3.01 -47.66 2.02 -48 1 C-40.82781457 -0.13245033 -40.82781457 -0.13245033 -36.875 0.5 C-31.96715098 1.13327084 -27.37909849 0.66812237 -22.4609375 0.25390625 C-19.53378468 0.03916028 -16.68193185 -0.04269804 -13.75 0 C0 0 0 0 0 0 Z " fill="#F4C0BE" transform="translate(868,329)"/>
<path d="M0 0 C-2.61622796 1.74415198 -4.20310562 2.45897171 -7.125 3.3125 C-22.53865029 8.37592135 -32.92496616 19.06441749 -42 32 C-43.32099101 33.67646602 -44.65056673 35.34634181 -46 37 C-45.51328099 32.30663814 -43.36586923 29.33366579 -40.5 25.75 C-40.04641113 25.17862305 -39.59282227 24.60724609 -39.12548828 24.01855469 C-37.76684419 22.33127522 -36.38862323 20.66265309 -35 19 C-34.30648437 18.1646875 -33.61296875 17.329375 -32.8984375 16.46875 C-24.70990958 7.48982363 -12.36111725 -0.28093448 0 0 Z " fill="#D49695" transform="translate(952,888)"/>
<path d="M0 0 C1.25490234 0.10828125 1.25490234 0.10828125 2.53515625 0.21875 C18.74903605 1.51155105 34.78047603 0.83576004 51 0 C50.34 0.99 49.68 1.98 49 3 C47.04467773 3.32470703 47.04467773 3.32470703 44.68359375 3.2578125 C43.83732422 3.24363281 42.99105469 3.22945312 42.11914062 3.21484375 C41.23419922 3.18519531 40.34925781 3.15554688 39.4375 3.125 C37.68629452 3.08182307 35.93498703 3.04254646 34.18359375 3.0078125 C33.40556396 2.98348145 32.62753418 2.95915039 31.82592773 2.93408203 C29.97977901 2.79317574 29.97977901 2.79317574 29 4 C26.92737924 4.08767112 24.85179706 4.10695873 22.77734375 4.09765625 C21.51728516 4.09443359 20.25722656 4.09121094 18.95898438 4.08789062 C17.61848891 4.07953403 16.27799412 4.07106907 14.9375 4.0625 C13.59310058 4.0574866 12.2486994 4.05292342 10.90429688 4.04882812 C7.60282059 4.03699488 4.30143197 4.02050971 1 4 C0.67 2.68 0.34 1.36 0 0 Z " fill="#DFCDCC" transform="translate(1025,1208)"/>
<path d="M0 0 C0.99 0.495 0.99 0.495 2 1 C2.33 9.58 2.66 18.16 3 27 C3.66 26.67 4.32 26.34 5 26 C4.61378945 30.86828564 4.16786296 35.62510959 3 40.375 C1.68279513 45.85024712 1.36049264 51.39339078 1 57 C0.67 57 0.34 57 0 57 C0 38.19 0 19.38 0 0 Z " fill="#DDAEAD" transform="translate(1253,940)"/>
<path d="M0 0 C1.37478516 0.01740234 1.37478516 0.01740234 2.77734375 0.03515625 C3.69644531 0.04417969 4.61554688 0.05320312 5.5625 0.0625 C6.27277344 0.07410156 6.98304687 0.08570313 7.71484375 0.09765625 C7.71484375 0.75765625 7.71484375 1.41765625 7.71484375 2.09765625 C9.03484375 2.42765625 10.35484375 2.75765625 11.71484375 3.09765625 C-17.15443007 5.22207062 -17.15443007 5.22207062 -28.28515625 2.09765625 C-28.28515625 1.76765625 -28.28515625 1.43765625 -28.28515625 1.09765625 C-27.53306885 1.10289307 -26.78098145 1.10812988 -26.00610352 1.11352539 C-22.61996283 1.13422852 -19.23383541 1.14729502 -15.84765625 1.16015625 C-14.66365234 1.16853516 -13.47964844 1.17691406 -12.25976562 1.18554688 C-11.13505859 1.18876953 -10.01035156 1.19199219 -8.8515625 1.1953125 C-7.2883728 1.20316772 -7.2883728 1.20316772 -5.69360352 1.21118164 C-2.89615263 1.07932004 -2.75678363 0.11781127 0 0 Z " fill="#E3DADA" transform="translate(1057.28515625,1209.90234375)"/>
<path d="M0 0 C7.4644714 0.88561525 7.4644714 0.88561525 10.4140625 1.515625 C14.11330409 2.2085343 17.81840388 2.27839474 21.57421875 2.42578125 C24 3 24 3 25.33203125 5.04296875 C25.55246094 5.68878906 25.77289062 6.33460938 26 7 C20.66786962 7.21763797 15.48226268 6.82254064 10.1875 6.1875 C8.90230469 6.03667969 7.61710937 5.88585937 6.29296875 5.73046875 C3.07806117 5.01731606 1.82152616 4.68827466 0 2 C0 1.34 0 0.68 0 0 Z " fill="#F3B9B7" transform="translate(1286,327)"/>
<path d="M0 0 C9.46576558 -0.36799953 18.63873691 0.77085408 28 2 C28 2.66 28 3.32 28 4 C27.26362305 3.99476318 26.52724609 3.98952637 25.76855469 3.98413086 C22.42904515 3.96333133 19.08954926 3.95033032 15.75 3.9375 C14.59113281 3.92912109 13.43226563 3.92074219 12.23828125 3.91210938 C11.12324219 3.90888672 10.00820313 3.90566406 8.859375 3.90234375 C7.83295898 3.89710693 6.80654297 3.89187012 5.74902344 3.88647461 C3.05366349 3.89171938 3.05366349 3.89171938 0.75878906 4.63110352 C0.17838867 4.75283936 -0.40201172 4.8745752 -1 5 C-1.66 4.34 -2.32 3.68 -3 3 C-2.34 3 -1.68 3 -1 3 C-0.67 2.01 -0.34 1.02 0 0 Z " fill="#F4BCBA" transform="translate(757,328)"/>
<path d="M0 0 C0.97839844 0.39832031 1.95679688 0.79664063 2.96484375 1.20703125 C16.13738248 6.77751162 16.13738248 6.77751162 30 10 C28.4296875 11.11328125 28.4296875 11.11328125 26 12 C22.7578125 11.35546875 22.7578125 11.35546875 19.125 10.1875 C14.736388 8.79887871 10.54305738 7.7221623 6 7 C3.625 5.9375 3.625 5.9375 2 5 C2 4.34 2 3.68 2 3 C1.34 3 0.68 3 0 3 C0 2.01 0 1.02 0 0 Z " fill="#DEC9C9" transform="translate(994,1197)"/>
<path d="M0 0 C0 0.66 0 1.32 0 2 C-6.29496102 4.54033338 -12.56707704 6.21580087 -19.1875 7.6875 C-20.64446289 8.02491211 -20.64446289 8.02491211 -22.13085938 8.36914062 C-26.52586473 9.36020078 -30.47498603 10.12784238 -35 10 C-28.15249354 6.50573469 -21.81387337 3.82560394 -14.09765625 3.28125 C-11.8897903 2.98522328 -10.2619209 2.37610673 -8.25 1.4375 C-5.12569389 0.05559537 -3.34870216 -0.30442747 0 0 Z " fill="#E4DADA" transform="translate(1113,1201)"/>
<path d="M0 0 C0.33 0.66 0.66 1.32 1 2 C0.02417969 2.06058594 -0.95164062 2.12117188 -1.95703125 2.18359375 C-3.86548828 2.30927734 -3.86548828 2.30927734 -5.8125 2.4375 C-7.07707031 2.51871094 -8.34164062 2.59992188 -9.64453125 2.68359375 C-12.99181893 2.87184547 -12.99181893 2.87184547 -16 4 C-16 3.34 -16 2.68 -16 2 C-16.53625 2.309375 -17.0725 2.61875 -17.625 2.9375 C-20.44807315 4.20045378 -22.92164784 4.7323172 -26 5 C-26.66 4.34 -27.32 3.68 -28 3 C-28 2.01 -28 1.02 -28 0 C-26.1128125 0.0309375 -26.1128125 0.0309375 -24.1875 0.0625 C-20.56056995 0.07390544 -17.04221797 -0.16980726 -13.4375 -0.5625 C-8.7216173 -1.02679225 -4.64911178 -0.94704129 0 0 Z " fill="#F3B8B6" transform="translate(735,329)"/>
<path d="M0 0 C0 0.33 0 0.66 0 1 C-0.71027344 1.04898438 -1.42054688 1.09796875 -2.15234375 1.1484375 C-3.53099609 1.26058594 -3.53099609 1.26058594 -4.9375 1.375 C-5.85402344 1.44460938 -6.77054688 1.51421875 -7.71484375 1.5859375 C-8.46894531 1.72257813 -9.22304688 1.85921875 -10 2 C-10.33 2.66 -10.66 3.32 -11 4 C-18.1070072 5.57933493 -25.7669813 5.1118508 -33 5 C-29.25525362 2.75705295 -25.23942539 2.10771129 -21 1.375 C-20.25049072 1.24311279 -19.50098145 1.11122559 -18.72875977 0.9753418 C-12.46058494 -0.05965302 -6.35071937 -0.33038424 0 0 Z " fill="#DAB2B2" transform="translate(978,732)"/>
<path d="M0 0 C1.2684375 0.309375 1.2684375 0.309375 2.5625 0.625 C5.28752965 0.24777985 5.28752965 0.24777985 7.5625 -0.375 C7.8925 0.285 8.2225 0.945 8.5625 1.625 C9.5525 1.295 10.5425 0.965 11.5625 0.625 C12.2225 0.955 12.8825 1.285 13.5625 1.625 C13.5625 2.285 13.5625 2.945 13.5625 3.625 C12.510625 3.604375 11.45875 3.58375 10.375 3.5625 C7.19991604 3.61455056 4.63855082 3.99401522 1.5625 4.625 C-1.625 4.8125 -1.625 4.8125 -4.4375 4.625 C-5.0975 3.965 -5.7575 3.305 -6.4375 2.625 C-3.08921504 -0.47526385 -3.08921504 -0.47526385 0 0 Z " fill="#F3B4B1" transform="translate(1096.4375,325.375)"/>
<path d="M0 0 C0.99 0.495 0.99 0.495 2 1 C4.01344162 8.44973399 4.15393356 17.90364949 1 25 C0.67 25 0.34 25 0 25 C0 16.75 0 8.5 0 0 Z " fill="#E0C8C7" transform="translate(1255,942)"/>
<path d="M0 0 C-3.96 1.65 -7.92 3.3 -12 5 C-12 5.33 -12 5.66 -12 6 C-16.95 6 -21.9 6 -27 6 C-27 5.67 -27 5.34 -27 5 C-26.40832031 4.96261719 -25.81664062 4.92523437 -25.20703125 4.88671875 C-20.22482487 4.47221218 -17.27199661 3.66999788 -13 1 C-8.22139766 -0.49493346 -4.92644579 -1.23161145 0 0 Z " fill="#E2D8D8" transform="translate(1092,1206)"/>
<path d="M0 0 C1.37414104 0.04859438 2.75074386 0.04522232 4.125 0 C8 0 8 0 11 2 C7.1942568 2.63429053 3.6107815 3.05719676 -0.25 3 C-3.93411922 2.80235765 -3.93411922 2.80235765 -7 4 C-7 3.01 -7 2.02 -7 1 C-7.99 0.67 -8.98 0.34 -10 0 C-5.73166004 -2.19514627 -4.2989296 -1.79955193 0 0 Z " fill="#F3ADAA" transform="translate(1001,325)"/>
<path d="M0 0 C0.66 0.33 1.32 0.66 2 1 C-4.13173787 7.5405204 -10.60974939 12.93042622 -18 18 C-18.66 17.34 -19.32 16.68 -20 16 C-19.55011719 15.67128906 -19.10023437 15.34257813 -18.63671875 15.00390625 C-8.93932457 7.94883795 -8.93932457 7.94883795 0 0 Z " fill="#DFC7C7" transform="translate(1172,1162)"/>
<path d="M0 0 C3.375 1 3.375 1 6 2 C3.875 4.0625 3.875 4.0625 1 6 C-2.81023689 5.84448013 -5.71030756 4.89789949 -9 3 C-6.37458926 -0.50054765 -4.21215241 -0.41295612 0 0 Z " fill="#F3B4B2" transform="translate(930,325)"/>
<path d="M0 0 C-1 3 -1 3 -3.21875 4.2109375 C-6.28189946 5.07997709 -8.35543317 5.02248738 -11.5 4.625 C-15.0349419 4.19802668 -18.43741877 3.93546048 -22 4 C-22.33 3.34 -22.66 2.68 -23 2 C-14.7930196 0.83779145 -14.7930196 0.83779145 -11.25 1.5625 C-7.40200702 2.31072086 -4.06195286 0 0 0 Z " fill="#F4B3B0" transform="translate(971,325)"/>
<path d="M0 0 C1.13874184 3.47807412 0.90158296 6.25158956 0.44140625 9.859375 C0.23354492 11.53193359 0.23354492 11.53193359 0.02148438 13.23828125 C-0.12998047 14.39714844 -0.28144531 15.55601563 -0.4375 16.75 C-0.58509766 17.92433594 -0.73269531 19.09867188 -0.88476562 20.30859375 C-1.24996477 23.20662568 -1.62194968 26.1036212 -2 29 C-2.33 29 -2.66 29 -3 29 C-3.57446809 8.27659574 -3.57446809 8.27659574 0 0 Z " fill="#D3AFAE" transform="translate(855,1249)"/>
<path d="M0 0 C0.33 0 0.66 0 1 0 C1.16335585 5.23419357 0.60552037 9.86306192 -0.5 14.9375 C-0.64308594 15.62134766 -0.78617188 16.30519531 -0.93359375 17.00976562 C-1.28283771 18.67449514 -1.64052946 20.33744875 -2 22 C-2.33 22 -2.66 22 -3 22 C-2.89008434 18.89510601 -2.75946585 15.79142006 -2.625 12.6875 C-2.5940625 11.80642578 -2.563125 10.92535156 -2.53125 10.01757812 C-2.47324219 8.74624023 -2.47324219 8.74624023 -2.4140625 7.44921875 C-2.3826416 6.66893311 -2.3512207 5.88864746 -2.31884766 5.0847168 C-2 3 -2 3 0 0 Z " fill="#E0CBCB" transform="translate(747,940)"/>
<path d="M0 0 C0 3.88048711 -1.2063207 4.7660375 -3.6875 7.6875 C-7.21296793 11.95187595 -10.18164712 16.24402952 -13 21 C-13.33 20.01 -13.66 19.02 -14 18 C-10.40715466 11.34614498 -5.09459545 5.54366314 0 0 Z " fill="#D6A0A0" transform="translate(920,904)"/>
<path d="M0 0 C1.27875 0.28875 2.5575 0.5775 3.875 0.875 C8.15069002 1.82740488 12.43878733 2.69741267 16.73828125 3.53515625 C18.8431189 3.96775673 20.91987257 4.46211808 23 5 C23 5.66 23 6.32 23 7 C14.72550999 6.57200914 7.66700112 3.95555804 0 1 C0 0.67 0 0.34 0 0 Z " fill="#E3D9D9" transform="translate(1003,1204)"/>
<path d="M0 0 C1.89492188 0.01353516 1.89492188 0.01353516 3.828125 0.02734375 C4.79234375 0.03894531 5.7565625 0.05054688 6.75 0.0625 C3.50972157 1.90744322 0.54552055 2.59909594 -3.125 3.1875 C-4.63707031 3.43886719 -4.63707031 3.43886719 -6.1796875 3.6953125 C-9.23561748 4.06077995 -12.17557891 4.12674163 -15.25 4.0625 C-10.25034512 -0.04435937 -6.40246492 -0.05928208 0 0 Z " fill="#DB9897" transform="translate(960.25,735.9375)"/>
<path d="M0 0 C-0.99 1.485 -0.99 1.485 -2 3 C-8.70557271 3.42575065 -15.32872277 2.69830192 -22 2 C-22 1.67 -22 1.34 -22 1 C-19.6460153 0.83034345 -17.29186616 0.6642065 -14.9375 0.5 C-13.62652344 0.4071875 -12.31554688 0.314375 -10.96484375 0.21875 C-7.29924005 0.0165098 -3.67009048 -0.0381804 0 0 Z " fill="#DABBBB" transform="translate(1076,1208)"/>
<path d="M0 0 C-11.98227183 5.87196323 -11.98227183 5.87196323 -18 6 C-18.66 5.34 -19.32 4.68 -20 4 C-17.0449595 3.13414375 -14.08554318 2.28433215 -11.125 1.4375 C-10.28324219 1.19064453 -9.44148438 0.94378906 -8.57421875 0.68945312 C-7.76855469 0.46064453 -6.96289062 0.23183594 -6.1328125 -0.00390625 C-5.01737061 -0.32597046 -5.01737061 -0.32597046 -3.87939453 -0.65454102 C-2 -1 -2 -1 0 0 Z " fill="#DABDBD" transform="translate(1112,1200)"/>
<path d="M0 0 C0 0.66 0 1.32 0 2 C-0.99 2 -1.98 2 -3 2 C-3 2.66 -3 3.32 -3 4 C-4.98 4.99 -6.96 5.98 -9 7 C-9 7.66 -9 8.32 -9 9 C-11.86724686 8.42655063 -12.8614515 8.1385485 -15 6 C-13.96939453 5.60167969 -13.96939453 5.60167969 -12.91796875 5.1953125 C-12.01691406 4.84210938 -11.11585937 4.48890625 -10.1875 4.125 C-9.29417969 3.77695313 -8.40085937 3.42890625 -7.48046875 3.0703125 C-0.3649635 0 -0.3649635 0 0 0 Z " fill="#DEC6C6" transform="translate(1137,1188)"/>
<path d="M0 0 C1.32 0.33 2.64 0.66 4 1 C0.54077371 3.95051654 -2.7838704 6.25855517 -7 8 C-7.99 7.67 -8.98 7.34 -10 7 C-6.375 4 -6.375 4 -3 4 C-3 3.34 -3 2.68 -3 2 C-2.01 2 -1.02 2 0 2 C0 1.34 0 0.68 0 0 Z " fill="#E5DBDB" transform="translate(1137,1188)"/>
<path d="M0 0 C0.33 0 0.66 0 1 0 C1.11138159 5.45769811 0.91657981 10.61509359 0 16 C-2 14 -2 14 -2.265625 11.7578125 C-2.26046875 10.88898437 -2.2553125 10.02015625 -2.25 9.125 C-2.25515625 8.26132812 -2.2603125 7.39765625 -2.265625 6.5078125 C-1.98890649 3.89526423 -1.3185995 2.2499912 0 0 Z " fill="#E1CBCB" transform="translate(746,977)"/>
<path d="M0 0 C0 0.99 0 1.98 0 3 C-3.0455314 5.78448585 -6.32731347 8.11402583 -10 10 C-10.66 9.67 -11.32 9.34 -12 9 C-8.04 6.03 -4.08 3.06 0 0 Z " fill="#E6DDDD" transform="translate(1161,1174)"/>
<path d="M0 0 C2.95929119 2.75520215 5.03681826 5.46627288 7 9 C5.125 8.6875 5.125 8.6875 3 8 C2.34 7.01 1.68 6.02 1 5 C0.01 6.32 -0.98 7.64 -2 9 C-1.125 2.25 -1.125 2.25 0 0 Z " fill="#D8BFBF" transform="translate(957,1165)"/>
<path d="M0 0 C2.475 0.495 2.475 0.495 5 1 C5 1.66 5 2.32 5 3 C5.78375 2.938125 6.5675 2.87625 7.375 2.8125 C8.674375 2.9053125 8.674375 2.9053125 10 3 C10.99 4.485 10.99 4.485 12 6 C12.99 6.66 13.98 7.32 15 8 C11.30626473 7.41712333 8.50118255 6.40083644 5.25 4.5625 C4.47140625 4.13066406 3.6928125 3.69882813 2.890625 3.25390625 C1 2 1 2 0 0 Z " fill="#E6DDDD" transform="translate(814,1123)"/>
<path d="M0 0 C0.66 0.33 1.32 0.66 2 1 C-1.625 5.875 -1.625 5.875 -5 7 C-5.99 6.34 -6.98 5.68 -8 5 C-6.71475739 4.13619741 -5.42157581 3.28419631 -4.125 2.4375 C-3.04605469 1.72400391 -3.04605469 1.72400391 -1.9453125 0.99609375 C-1.30335937 0.66738281 -0.66140625 0.33867188 0 0 Z " fill="#DEC5C5" transform="translate(1145,1182)"/>
<path d="M0 0 C6.93 0.495 6.93 0.495 14 1 C14 1.33 14 1.66 14 2 C9.71 2.66 5.42 3.32 1 4 C0.67 2.68 0.34 1.36 0 0 Z " fill="#DCC2C2" transform="translate(1025,1208)"/>
<path d="M0 0 C-4.77830905 2.91360308 -7.55106131 3.19876651 -13 2 C-8.62836676 -0.42868513 -4.86219789 -1.62073263 0 0 Z " fill="#DBC0C0" transform="translate(1092,1206)"/>
<path d="M0 0 C4.29 0.99 8.58 1.98 13 3 C8.45030675 5.27484663 8.45030675 5.27484663 4.8125 4.3125 C4.11769531 4.14363281 3.42289063 3.97476562 2.70703125 3.80078125 C2.14371094 3.53652344 1.58039062 3.27226563 1 3 C0.67 2.01 0.34 1.02 0 0 Z " fill="#DCC1C1" transform="translate(1011,1204)"/>
<path d="M0 0 C2.64 0.33 5.28 0.66 8 1 C8 1.99 8 2.98 8 4 C8.66 4.33 9.32 4.66 10 5 C5.59885603 4.49701212 3.28804981 2.91227269 0 0 Z " fill="#E2D8D8" transform="translate(986,1196)"/>
<path d="M0 0 C1.8871875 0.0309375 1.8871875 0.0309375 3.8125 0.0625 C1.01341867 2.86158133 -1.31831763 2.78612983 -5.1875 3.0625 C-5.8475 2.4025 -6.5075 1.7425 -7.1875 1.0625 C-4.43671116 0.14557039 -2.82801087 -0.04636083 0 0 Z " fill="#F3BAB8" transform="translate(660.1875,331.9375)"/>
<path d="M0 0 C2.45823172 3.68734758 3.01242616 6.69699971 4 11 C3.34 11 2.68 11 2 11 C1.46770674 9.73392393 0.94955456 8.46189588 0.4375 7.1875 C0.14746094 6.47980469 -0.14257812 5.77210937 -0.44140625 5.04296875 C-1 3 -1 3 0 0 Z " fill="#DDBBBB" transform="translate(899,1029)"/>
<path d="M0 0 C2.31 0.33 4.62 0.66 7 1 C6.01 2.485 6.01 2.485 5 4 C3.68 4 2.36 4 1 4 C0.67 2.68 0.34 1.36 0 0 Z " fill="#DAACAB" transform="translate(1075,738)"/>
<path d="M0 0 C3.3 0 6.6 0 10 0 C9 2 9 2 6.6875 2.8125 C4 3 4 3 0 0 Z " fill="#DAB7B7" transform="translate(982,731)"/>
</svg>
