<?xml version="1.0" encoding="UTF-8"?>
<svg version="1.1" xmlns="http://www.w3.org/2000/svg" width="600" height="400">
<path d="M0 0 C4.83912104 3.59292599 8.92523256 7.59270521 12.5234375 12.421875 C12.96429688 13.00324219 13.40515625 13.58460938 13.859375 14.18359375 C24.25789482 29.21418148 24.44287957 50.84428153 21.4609375 68.296875 C18.2997447 81.88704967 11.46070935 94.27770096 -0.5390625 101.859375 C-9.50741299 106.75736975 -19.48392687 108.33717055 -29.5 105.59375 C-33.13227276 104.16640528 -36.22490235 102.58964843 -39.4765625 100.421875 C-39.8065625 111.311875 -40.1365625 122.201875 -40.4765625 133.421875 C-44.0859375 134.246875 -47.6953125 135.071875 -51.4140625 135.921875 C-52.53288818 136.18291016 -53.65171387 136.44394531 -54.80444336 136.71289062 C-56.17161499 137.01743164 -56.17161499 137.01743164 -57.56640625 137.328125 C-58.48284912 137.53759766 -59.39929199 137.74707031 -60.34350586 137.96289062 C-64.34800776 138.54953939 -68.42931748 138.421875 -72.4765625 138.421875 C-72.4765625 91.561875 -72.4765625 44.701875 -72.4765625 -3.578125 C-63.2365625 -3.578125 -53.9965625 -3.578125 -44.4765625 -3.578125 C-43.8165625 -1.928125 -43.1565625 -0.278125 -42.4765625 1.421875 C-41.62578125 0.99068359 -41.62578125 0.99068359 -40.7578125 0.55078125 C-38.5153341 -0.55893837 -36.25786915 -1.61325574 -33.9765625 -2.640625 C-33.22375 -2.98222656 -32.4709375 -3.32382813 -31.6953125 -3.67578125 C-21.12299608 -7.9754381 -9.46169292 -6.02921757 0 0 Z M-40.4765625 28.421875 C-40.59000955 29.78146354 -40.63606379 31.14678511 -40.65356445 32.51098633 C-40.66639969 33.37891312 -40.67923492 34.2468399 -40.69245911 35.1410675 C-40.69984604 36.08580429 -40.70723297 37.03054108 -40.71484375 38.00390625 C-40.7229155 38.96963058 -40.73098724 39.93535492 -40.73930359 40.93034363 C-40.75316266 42.97901606 -40.76387662 45.02771176 -40.77172852 47.07641602 C-40.78893362 50.21089475 -40.83280253 53.34431697 -40.87695312 56.47851562 C-40.88708021 58.46613805 -40.89559626 60.45376948 -40.90234375 62.44140625 C-40.91985184 63.38007034 -40.93735992 64.31873444 -40.95539856 65.2858429 C-40.99076921 70.48303281 -40.99076921 70.48303281 -38.63745117 74.9831543 C-33.48487827 78.41373978 -27.42947294 78.30462598 -21.4765625 77.421875 C-16.26973782 74.89811618 -13.29082575 70.81646732 -10.9765625 65.609375 C-7.90720366 55.68876875 -7.61120806 42.9394638 -12.1953125 33.4765625 C-14.62429546 29.58130325 -17.29144306 25.51443472 -21.4765625 23.421875 C-29.32107058 22.70553519 -34.75174843 22.69706093 -40.4765625 28.421875 Z " fill="#6772E5" transform="translate(400.4765625,152.578125)"/>
<path d="M0 0 C9.85053834 7.74538297 13.77953533 18.19162956 17 30 C17 39.57 17 49.14 17 59 C-11.71 59.495 -11.71 59.495 -41 60 C-38.10729687 68.16820483 -38.10729687 68.16820483 -32 73 C-17.97410848 77.00739758 -1.31455801 73.438186 12 69 C12 77.58 12 86.16 12 95 C-5.389835 102.90447046 -24.70077608 107.1427779 -43.3046875 100.26953125 C-47.55996499 98.26523388 -51.28972463 95.87905278 -55 93 C-56.03125 92.2575 -57.0625 91.515 -58.125 90.75 C-68.45037018 80.87355896 -72.72180774 68.08277792 -73.23828125 53.98046875 C-73.61256306 34.5715231 -71.95953259 18.48895725 -58.1875 3.6875 C-41.40064048 -12.06632201 -18.58246409 -13.24628352 0 0 Z M-37.57421875 21.484375 C-41.32095895 26.16511634 -41.16220417 28.29763334 -42 35 C-32.1 35 -22.2 35 -12 35 C-13.42138745 25.37666419 -13.42138745 25.37666419 -19 19 C-25.61124163 16.06026851 -32.18256173 16.40043042 -37.57421875 21.484375 Z " fill="#6772E5" transform="translate(500,156)"/>
<path d="M0 0 C0.33 9.9 0.66 19.8 1 30 C-1.97 29.01 -4.94 28.02 -8 27 C-22.83216763 22.33300208 -22.83216763 22.33300208 -38 24 C-38.33 25.98 -38.66 27.96 -39 30 C-33.45449993 33.80105153 -28.04511826 36.25622312 -21.6875 38.375 C-11.18061567 42.10443034 -1.5237811 45.81961088 3.91015625 56.19921875 C7.31205356 64.94172904 8.00916835 74.0652887 5 83 C0.19798957 93.51868952 -7.25901179 99.89402667 -18 104 C-24.34304192 105.83653647 -30.47903101 106.386675 -37.0625 106.375 C-37.97209473 106.37411377 -38.88168945 106.37322754 -39.81884766 106.37231445 C-51.06722918 106.17817295 -60.64616299 103.43735872 -71 99 C-71 89.1 -71 79.2 -71 69 C-66.87368983 69.82526203 -63.82048405 70.82812109 -60 72.4375 C-49.23671649 76.6238955 -39.40923135 77.52123085 -28 76 C-27.05392193 73.25038489 -27.05392193 73.25038489 -27 70 C-30.92967306 64.86370533 -35.73897398 63.21880634 -41.6875 61.0625 C-48.91535317 58.31064379 -55.63672267 55.47185732 -62 51 C-63.423125 50.0409375 -63.423125 50.0409375 -64.875 49.0625 C-69.27486881 44.7920391 -71.20728688 40.8428302 -71.53125 34.78515625 C-71.54178169 32.8776048 -71.53090879 30.9698301 -71.5 29.0625 C-71.51546875 28.11181641 -71.5309375 27.16113281 -71.546875 26.18164062 C-71.49919121 17.53299402 -69.0552259 11.49883591 -62.9375 5.3125 C-58.1517741 0.75466581 -53.20608481 -1.8342402 -47 -4 C-46.30648437 -4.24492187 -45.61296875 -4.48984375 -44.8984375 -4.7421875 C-30.22658819 -8.87749638 -13.6307524 -5.84175103 0 0 Z " fill="#6772E5" transform="translate(154,153)"/>
<path d="M0 0 C0 8.58 0 17.16 0 26 C7.59 26 15.18 26 23 26 C23 35.24 23 44.48 23 54 C15.41 54 7.82 54 0 54 C0.09706769 60.29918201 0.19988305 66.59772658 0.31738281 72.89648438 C0.35560153 75.03802816 0.39046668 77.17963457 0.421875 79.32128906 C0.46767979 82.40452417 0.52564917 85.48733071 0.5859375 88.5703125 C0.60326431 90.00034103 0.60326431 90.00034103 0.62094116 91.45925903 C0.72790065 96.30658943 0.95201059 100.50825246 3 105 C5.296537 106.1482685 6.58313167 106.11561175 9.1328125 106.09765625 C9.85871582 106.09515869 10.58461914 106.09266113 11.33251953 106.09008789 C12.25403809 106.08098389 13.17555664 106.07187988 14.125 106.0625 C18.518125 106.0315625 18.518125 106.0315625 23 106 C23 114.58 23 123.16 23 132 C12.61585629 136.4503473 0.24037345 138.05263132 -10.9375 135.0625 C-19.07539898 131.69672819 -25.2240821 124.73302109 -29.16015625 117.04296875 C-30.61575737 113.5021344 -31.12482523 110.35389178 -31.12025452 106.53277588 C-31.12162918 105.64379105 -31.12300385 104.75480621 -31.12442017 103.83888245 C-31.11902725 102.38771278 -31.11902725 102.38771278 -31.11352539 100.90722656 C-31.11367142 99.88251755 -31.11381744 98.85780853 -31.1139679 97.80204773 C-31.11327121 94.41488529 -31.10549015 91.02777783 -31.09765625 87.640625 C-31.09579121 85.29221629 -31.09436771 82.94380719 -31.09336853 80.59539795 C-31.08955016 74.41403123 -31.07972564 68.232688 -31.06866455 62.05133057 C-31.05843584 55.74385903 -31.05386778 49.43638369 -31.04882812 43.12890625 C-31.0381028 30.75259384 -31.0210345 18.37629888 -31 6 C-27.0681511 5.14156091 -23.13544553 4.28717524 -19.2019043 3.43652344 C-17.86409782 3.14661943 -16.52652992 2.85561216 -15.18920898 2.56347656 C-13.26609487 2.14357641 -11.3420424 1.7279812 -9.41796875 1.3125 C-7.68196411 0.93544922 -7.68196411 0.93544922 -5.91088867 0.55078125 C-3 0 -3 0 0 0 Z " fill="#6772E5" transform="translate(196,123)"/>
<path d="M0 0 C0.92941406 0.00644531 1.85882813 0.01289063 2.81640625 0.01953125 C5.4375 0.1875 5.4375 0.1875 9.4375 1.1875 C9.4375 11.0875 9.4375 20.9875 9.4375 31.1875 C4.4875 31.1875 -0.4625 31.1875 -5.5625 31.1875 C-11.19356761 33.6077491 -11.19356761 33.6077491 -13.5625 36.1875 C-13.8958729 39.34526613 -13.8958729 39.34526613 -13.88134766 43.11572266 C-13.89139328 43.82802536 -13.9014389 44.54032806 -13.91178894 45.2742157 C-13.94272904 47.63332293 -13.95968577 49.99231615 -13.9765625 52.3515625 C-13.99526548 53.98539214 -14.01483823 55.61921203 -14.0352478 57.25302124 C-14.0866671 61.55690781 -14.12624018 65.86082573 -14.16339111 70.16485596 C-14.20336953 74.55529599 -14.2544899 78.94560452 -14.3046875 83.3359375 C-14.40156279 91.953042 -14.48490077 100.57020033 -14.5625 109.1875 C-24.7925 109.1875 -35.0225 109.1875 -45.5625 109.1875 C-45.5625 73.5475 -45.5625 37.9075 -45.5625 1.1875 C-36.3225 1.1875 -27.0825 1.1875 -17.5625 1.1875 C-16.9025 3.1675 -16.2425 5.1475 -15.5625 7.1875 C-14.840625 6.40375 -14.11875 5.62 -13.375 4.8125 C-9.15658413 0.87531185 -5.70908216 -0.0873434 0 0 Z " fill="#6772E5" transform="translate(272.5625,147.8125)"/>
<path d="M0 0 C10.56 0 21.12 0 32 0 C32 35.64 32 71.28 32 108 C21.44 108 10.88 108 0 108 C-1.54593569 106.45406431 -1.12594233 105.01509926 -1.12698364 102.86230469 C-1.12980347 101.97047485 -1.13262329 101.07864502 -1.13552856 100.15979004 C-1.13350433 99.17377808 -1.1314801 98.18776611 -1.12939453 97.171875 C-1.13114685 96.13945679 -1.13289917 95.10703857 -1.13470459 94.04333496 C-1.13912533 90.61220648 -1.13618433 87.18112906 -1.1328125 83.75 C-1.13348548 81.37727854 -1.13445545 79.00455716 -1.13571167 76.63183594 C-1.13718894 71.65168605 -1.13503314 66.67155406 -1.13037109 61.69140625 C-1.1246738 55.29171321 -1.12795264 48.8920621 -1.13394356 42.49237061 C-1.13754837 37.59065431 -1.13641095 32.68894804 -1.13381577 27.78723145 C-1.13314628 25.42679845 -1.13397568 23.06636456 -1.13629532 20.70593262 C-1.13882054 17.41330537 -1.13498309 14.12074708 -1.12939453 10.828125 C-1.13141876 9.84211304 -1.13344299 8.85610107 -1.13552856 7.84020996 C-1.13270874 6.94838013 -1.12988892 6.05655029 -1.12698364 5.13769531 C-1.12660662 4.35823547 -1.12622959 3.57877563 -1.12584114 2.7756958 C-1 1 -1 1 0 0 Z " fill="#6772E5" transform="translate(287,149)"/>
<path d="M0 0 C0 8.25 0 16.5 0 25 C-6.79567089 27.26522363 -12.9267691 28.95456712 -19.875 30.25 C-20.81085938 30.435625 -21.74671875 30.62125 -22.7109375 30.8125 C-23.608125 30.98265625 -24.5053125 31.1528125 -25.4296875 31.328125 C-26.63987549 31.55870605 -26.63987549 31.55870605 -27.87451172 31.79394531 C-30 32 -30 32 -33 31 C-33.02892857 27.04168191 -33.04677427 23.08339083 -33.0625 19.125 C-33.07087891 17.99707031 -33.07925781 16.86914062 -33.08789062 15.70703125 C-33.09111328 14.63066406 -33.09433594 13.55429688 -33.09765625 12.4453125 C-33.10289307 11.45031738 -33.10812988 10.45532227 -33.11352539 9.43017578 C-33 7 -33 7 -32 5 C-28.60850324 3.82155238 -25.06454021 3.15474229 -21.5625 2.375 C-20.60150391 2.14554687 -19.64050781 1.91609375 -18.65039062 1.6796875 C-17.21663086 1.35484375 -17.21663086 1.35484375 -15.75390625 1.0234375 C-14.45948608 0.72832275 -14.45948608 0.72832275 -13.13891602 0.42724609 C-8.79699846 -0.1637437 -4.38195356 0 0 0 Z " fill="#6772E5" transform="translate(319,110)"/>
</svg>
