<?xml version="1.0" encoding="UTF-8"?>
<svg version="1.1" xmlns="http://www.w3.org/2000/svg" width="291" height="173">
<path d="M0 0 C96.03 0 192.06 0 291 0 C291 57.09 291 114.18 291 173 C194.97 173 98.94 173 0 173 C0 115.91 0 58.82 0 0 Z " fill="#7F54B3" transform="translate(0,0)"/>
<path d="M0 0 C1.55892239 2.33838358 2.54209559 4.2198495 3.625 6.75 C6.7334036 12.97827732 11.41472847 17.18433009 17.9392395 19.57933044 C23.47570408 21.36857978 28.68638211 21.36962727 34.46044922 21.27368164 C35.57241165 21.26781036 36.68437408 21.26193909 37.83003235 21.25588989 C40.23298184 21.24229331 42.63590222 21.22236192 45.03875351 21.19673347 C48.85902099 21.15962853 52.67861635 21.14735606 56.49905396 21.14268494 C67.35749306 21.12799123 78.21531903 21.09425 89.07324219 20.9831543 C95.7300571 20.91532727 102.38526454 20.9012994 109.04248428 20.91586113 C111.56118251 20.91210427 114.07992835 20.89034309 116.5982933 20.8491993 C132.3446892 20.59977638 143.79247237 22.04746974 157.11915207 30.78276253 C159.88064552 32.56993163 162.74952985 34.11211999 165.640625 35.6796875 C167.51211035 36.74181288 169.38197607 37.80679855 171.25 38.875 C172.20261719 39.41640625 173.15523437 39.9578125 174.13671875 40.515625 C176.75967558 42.00718159 179.38036707 43.50261529 182 45 C182.73412109 45.41926758 183.46824219 45.83853516 184.22460938 46.27050781 C185.8166538 47.1799053 187.4083736 48.08987109 189 49 C188.61328125 47.97261719 188.2265625 46.94523437 187.828125 45.88671875 C187.3020527 44.48699068 186.77601281 43.08725043 186.25 41.6875 C185.99734375 41.01654297 185.7446875 40.34558594 185.484375 39.65429688 C183.93012791 35.516114 182.40246353 31.36905796 180.89355469 27.21411133 C180.53767273 26.23444901 180.18179077 25.25478668 179.81512451 24.24543762 C179.41163788 23.133946 179.41163788 23.133946 179 22 C180.63585808 21.99453156 180.63585808 21.99453156 182.30476379 21.98895264 C192.61753068 21.95189917 202.93000182 21.89401384 213.24254322 21.81609726 C218.54346204 21.77670572 223.8442168 21.74447648 229.14526367 21.72900391 C234.26777734 21.71378244 239.38983974 21.67923983 244.51215172 21.63169098 C246.45957183 21.61693364 248.4070564 21.60896225 250.35453224 21.60811615 C267.81373306 21.79098552 267.81373306 21.79098552 282.9375 13.875 C286.59227494 9.84244785 288.34162291 5.11933797 290 0 C290.33 0 290.66 0 291 0 C291 16.83 291 33.66 291 51 C194.97 51 98.94 51 0 51 C0 34.17 0 17.34 0 0 Z " fill="#FEFEFE" transform="translate(0,122)"/>
<path d="M0 0 C3.8731573 1.06819219 5.37738528 2.36854697 7.96875 5.54296875 C9.30133974 12.31696658 7.07790719 17.08290757 4.53515625 23.34765625 C-2.9835043 42.72132112 -5.76021115 64.48038416 -6.22265625 85.1640625 C-6.23897598 85.83681213 -6.25529572 86.50956177 -6.27210999 87.20269775 C-6.35253922 90.57485713 -6.40932597 93.94250823 -6.42700195 97.31591797 C-6.62944692 108.9515749 -6.62944692 108.9515749 -11.03125 113.54296875 C-13.89733129 114.97600939 -15.84425783 114.8494103 -19.03125 114.54296875 C-37.14739488 104.15572264 -44.60357299 80.13503293 -51.03125 61.54296875 C-51.56492188 62.63649658 -52.09859375 63.73002441 -52.6484375 64.85668945 C-54.65821683 68.96772366 -56.68186751 73.07180467 -58.70947266 77.17407227 C-59.58004927 78.94014966 -60.44700685 80.70801636 -61.31005859 82.4777832 C-75.05233087 110.63909087 -75.05233087 110.63909087 -84.03125 114.54296875 C-87.15625 114.66796875 -87.15625 114.66796875 -90.03125 113.54296875 C-93.67841327 108.94839783 -95.31696089 104.32896137 -96.90625 98.73046875 C-97.15963135 97.85358398 -97.4130127 96.97669922 -97.67407227 96.07324219 C-98.48019127 93.23502634 -99.26058212 90.39100505 -100.03125 87.54296875 C-100.27633301 86.6420752 -100.52141602 85.74118164 -100.77392578 84.81298828 C-104.56860382 70.59627144 -107.31648012 56.20545907 -109.90625 41.73046875 C-110.06358612 40.86748169 -110.22092224 40.00449463 -110.38302612 39.11535645 C-114.3994758 16.94292834 -114.3994758 16.94292834 -113.03125 10.54296875 C-109.89243633 6.8262493 -108.09599355 5.64769762 -103.21875 5.16796875 C-99.91284716 4.92498169 -99.04857261 5.5293291 -96.3671875 7.640625 C-93.64458971 11.02338446 -93.11875921 13.08722643 -92.46875 17.35546875 C-92.35708496 18.03851074 -92.24541992 18.72155273 -92.13037109 19.42529297 C-91.74569404 21.79529921 -91.38914287 24.16877804 -91.03125 26.54296875 C-90.41907347 30.42008676 -89.7902815 34.29436935 -89.15625 38.16796875 C-88.99278076 39.17512939 -88.82931152 40.18229004 -88.66088867 41.2199707 C-86.90682095 51.76526876 -84.53861266 62.15443901 -82.03125 72.54296875 C-81.37125 72.54296875 -80.71125 72.54296875 -80.03125 72.54296875 C-79.52787109 71.55603027 -79.02449219 70.5690918 -78.50585938 69.55224609 C-76.6007235 65.81922354 -74.69110926 62.08850608 -72.78027344 58.35839844 C-71.96072957 56.75711609 -71.14233113 55.15524689 -70.32519531 53.55273438 C-66.22066559 45.50503237 -62.08714258 37.47331895 -57.6875 29.58203125 C-57.07712891 28.4832666 -56.46675781 27.38450195 -55.83789062 26.25244141 C-54.07590421 23.60993799 -52.75947507 22.12772682 -50.03125 20.54296875 C-45.94375664 19.94842426 -43.90406847 19.92567495 -40.49609375 22.3359375 C-36.67064118 26.4257889 -36.12725807 32.04970393 -35.03125 37.35546875 C-34.53298888 39.60122841 -34.03037342 41.84602635 -33.5234375 44.08984375 C-33.2769043 45.18619141 -33.03037109 46.28253906 -32.77636719 47.41210938 C-31.23191257 53.90165264 -29.15920029 60.22502786 -27.03125 66.54296875 C-25.95724005 64.39494885 -25.73924327 62.86722921 -25.453125 60.4921875 C-19.47667975 13.56098266 -19.47667975 13.56098266 -7.6640625 1.59375 C-5.10130939 -0.05548585 -3.00452568 -0.3062305 0 0 Z " fill="#FDFCFD" transform="translate(128.03125,15.45703125)"/>
<path d="M0 0 C5.63025209 3.23890846 9.2711909 6.95030814 12.5 12.5625 C13.14775391 13.67625 13.14775391 13.67625 13.80859375 14.8125 C19.04676073 26.12259064 18.16595959 43.19440797 14.53125 54.90625 C9.66912083 67.42991604 2.75916749 78.675471 -9.73046875 84.625 C-17.63860107 87.30194183 -26.59025973 86.50261263 -34.0625 83 C-42.78788349 77.97558454 -46.38741415 71.97507933 -49.5 62.5625 C-49.9125 61.325 -50.325 60.0875 -50.75 58.8125 C-54.41471066 42.15472429 -49.38656664 25.59072479 -40.5 11.5625 C-31.75522994 -1.95214464 -14.48366541 -6.59344667 0 0 Z " fill="#FDFCFE" transform="translate(185.5,31.4375)"/>
<path d="M0 0 C7.1804533 5.24475881 11.12778417 12.46586295 13.59375 20.89453125 C14.15327636 24.97421123 14.21403989 28.96852802 14.15625 33.08203125 C14.14601807 34.18047363 14.13578613 35.27891602 14.12524414 36.41064453 C13.73090345 51.58326567 8.58446751 64.47235628 -1.71875 75.76953125 C-9.20627061 82.62895962 -16.50941546 84.82276833 -26.6484375 84.43359375 C-34.69202983 83.27973123 -41.13376141 79.91784408 -46.40625 73.70703125 C-47.46016264 72.1377579 -48.46244386 70.53238981 -49.40625 68.89453125 C-49.83808594 68.16363281 -50.26992187 67.43273437 -50.71484375 66.6796875 C-56.00834522 55.37833661 -55.23456395 37.39849559 -51.5703125 25.65234375 C-46.82385325 14.40737653 -40.34285693 3.3297881 -29.28125 -2.66796875 C-19.4663185 -6.35070919 -8.96680899 -5.14627344 0 0 Z " fill="#FDFDFE" transform="translate(262.40625,33.10546875)"/>
<path d="M0 0 C4.45285087 3.85111426 6.6559289 9.67045044 7.25390625 15.45703125 C7.49054636 25.72721195 4.725739 36.2297577 -2.25 44 C-4.75308386 46.29896972 -6.78160513 47.56870444 -10.125 48.25 C-14 48 -14 48 -16.8125 46.125 C-21.94956792 38.78633155 -23.17272939 30.83972438 -22 22 C-18.98708902 11.60931982 -12.90657261 -2.48203319 0 0 Z " fill="#8055B3" transform="translate(250,49)"/>
<path d="M0 0 C3.13737645 0.9633964 4.35028141 3.06412293 6.0234375 5.76953125 C9.75341146 13.24548764 8.94975043 24.20623235 7.09765625 32.203125 C4.57930039 38.86240156 1.11692213 43.90730851 -5.06640625 47.59375 C-8.75390625 48.84375 -8.75390625 48.84375 -12.06640625 48.59375 C-17.13425389 45.13839934 -18.90368781 40.40734219 -20.06640625 34.59375 C-21.29254224 23.08822735 -18.24799845 13.58906064 -11.06640625 4.59375 C-7.68522756 0.94563615 -4.89850132 -0.22223825 0 0 Z " fill="#7F54B3" transform="translate(174.06640625,48.40625)"/>
<path d="M0 0 C7.26 0 14.52 0 22 0 C22 6.93 22 13.86 22 21 C20 18 20 18 18.7734375 15.6953125 C14.64086393 8.09968845 10.52348957 4.69630859 2.5 1.6875 C1.675 1.460625 0.85 1.23375 0 1 C0 0.67 0 0.34 0 0 Z " fill="#FBFAFC" transform="translate(269,0)"/>
<path d="M0 0 C6.93 0 13.86 0 21 0 C18 2 18 2 15.73046875 3.15625 C8.67405935 6.88498246 5.57573201 10.98141791 2 18 C1.34 18.99 0.68 19.98 0 21 C0 14.07 0 7.14 0 0 Z " fill="#FCFBFD" transform="translate(0,0)"/>
<path d="M0 0 C0 3 0 3 -1.53125 4.82421875 C-2.1809375 5.43910156 -2.830625 6.05398437 -3.5 6.6875 C-4.1496875 7.31011719 -4.799375 7.93273437 -5.46875 8.57421875 C-5.9740625 9.04472656 -6.479375 9.51523438 -7 10 C-7 6.04435836 -5.59478606 4.89133304 -3 2 C-2.01 1.34 -1.02 0.68 0 0 Z " fill="#855CB6" transform="translate(12,4)"/>
</svg>
